<svg width="154" height="233" viewBox="0 0 154 233" xmlns="http://www.w3.org/2000/svg"><title>pr-idol</title><g fill="none" fill-rule="evenodd"><path d="M83.823 221.194l-.833 8.833m2.333-9.9l-1.333 9.9m-13.667-10v10.834m.967-10.334v10" stroke="#000" stroke-width="3" stroke-linecap="round" stroke-linejoin="round"/><path d="M54.99 208.127c-1.52-.151-3.04.96-4.56 3.334-1.52 2.373-2.758 6.411-3.714 12.113-.933 5.689-.933 9.64 0 11.853.934 2.214 2.334 3.192 4.2 2.934 1.8-.262 3.08-1.596 3.84-4a54.076 54.076 0 0 0 2-10.16c.514-3.71.721-7.456.62-11.2-.048-3.142-.844-4.767-2.386-4.874" fill="#FFF"/><path d="M46.723 223.6c-.933 5.69-.933 9.64 0 11.854.933 2.213 2.333 3.191 4.2 2.933 1.8-.262 3.08-1.595 3.84-4a54.076 54.076 0 0 0 2-10.16c.513-3.71.72-7.456.62-11.2-.067-3.191-.86-4.828-2.38-4.913-1.52-.085-3.04 1.027-4.56 3.333-1.502 2.418-2.742 6.469-3.72 12.154z" stroke="#000" stroke-width="3"/><path d="M108.776 223.62c-.955-5.75-2.182-9.788-3.68-12.113-1.498-2.408-3.018-3.52-4.56-3.333-1.475.089-2.268 1.727-2.38 4.913-.1 3.744.107 7.49.62 11.2a59.22 59.22 0 0 0 2 10.16c.76 2.387 2.052 3.72 3.874 4 1.822.28 3.2-.698 4.133-2.933.969-2.258.967-6.222-.007-11.893" fill="#FFF"/><path d="M108.75 223.6c.978 5.69.978 9.64 0 11.854-.978 2.213-2.356 3.191-4.134 2.933-1.822-.262-3.113-1.595-3.873-4a59.22 59.22 0 0 1-2-10.16 68.32 68.32 0 0 1-.62-11.2c.107-3.191.9-4.828 2.38-4.913 1.542-.173 3.062.938 4.56 3.333 1.502 2.352 2.731 6.402 3.687 12.154z" stroke="#000" stroke-width="3"/><path d="M105.59 211.86c-1.712-3.11-4.534-6.277-8.467-9.5a40.675 40.675 0 0 0-10.467-6.666 24.169 24.169 0 0 0-8.733-1.8c-.613 0-1.225.034-1.833.1a11.92 11.92 0 0 0-1.5.167 26.514 26.514 0 0 0-8.6 2.866 43.064 43.064 0 0 0-8.5 5.867 37.599 37.599 0 0 0-7.234 8.1 35.858 35.858 0 0 0-4.3 11l8.3 4.3a36.75 36.75 0 0 0 0 0 3.37 3.37 0 0 0-.1.5l.067-.233c-.245 6.822.545 12.433 2.367 16.833a319.99 319.99 0 0 0 42.3-.333c1.533-4.489 2.244-10.078 2.133-16.767a33.428 33.428 0 0 1 0 0l8.233-4.3a37.063 37.063 0 0 0-3.666-10.133" fill="#FFF"/><path d="M54.156 226.794a3.37 3.37 0 0 1 .1-.5m-.033.267c-.245 6.822.545 12.433 2.367 16.833a319.99 319.99 0 0 0 42.3-.333c1.533-4.489 2.244-10.078 2.133-16.767a33.428 33.428 0 0 0-.533-3 20.328 20.328 0 0 0-1.667-5.1m2.167 8.1l8.233-4.3a37.063 37.063 0 0 0-3.667-10.133c-1.71-3.112-4.533-6.278-8.466-9.5a40.675 40.675 0 0 0-10.467-6.667 24.171 24.171 0 0 0-8.733-1.8c-.613 0-1.225.034-1.834.1a11.92 11.92 0 0 0-1.5.167 26.498 26.498 0 0 0-8.6 2.866 43.064 43.064 0 0 0-8.5 5.867 37.591 37.591 0 0 0-7.2 8.1 35.858 35.858 0 0 0-4.3 11l8.3 4.3a36.75 36.75 0 0 1 .467-2.5c.32-1.749.857-3.451 1.6-5.067" stroke="#000" stroke-width="3" stroke-linecap="round" stroke-linejoin="round"/><path d="M87.423 216.06l-.233.034a1.092 1.092 0 0 1-.8-.333 1.038 1.038 0 0 1-.3-.767 1.116 1.116 0 0 1 .3-.767c.218-.198.504-.306.8-.3a1 1 0 0 1 .733.3c.212.199.333.476.333.767a.987.987 0 0 1-.333.767c-.1.102-.212.192-.333.266a.3.3 0 0 0-.134 0l-.033.034zm-18.667.534a.385.385 0 0 1-.1-.067.888.888 0 0 1-.233-.166.933.933 0 0 1-.3-.734c-.01-.286.099-.563.3-.766.208-.194.482-.302.767-.3.286-.01.563.098.766.3.22.193.342.474.334.766-.04.472-.354.876-.8 1.034-.1.018-.2.03-.3.033a.95.95 0 0 1-.434-.1z" stroke="#FFF" stroke-linecap="round" stroke-linejoin="round"/><path d="M85.923 228.46c2.022-2.866 2.522-7 1.5-12.4-.045-.288-.1-.577-.167-.866m-18.133.533c-.133.289-.255.578-.367.867m0 0a6.087 6.087 0 0 0-.133 2.567c.11.502.267.993.467 1.466.082.205.194.396.333.567 2 3.667 2.333 6.089 1 7.267" stroke="#FFF" stroke-linecap="round" stroke-linejoin="round"/><path d="M94.423 222.527l6.4 3.467-6.4-3.467zm6.3-10.133l1.433-13.067-6.833-4-3.933 2.467 5.6 9-9.5 1.333 5.766 4.4-10.666 9.234-.667 9.166a99.139 99.139 0 0 0 20.2.534l-1.4-19.067zm-39.9 10.4l-6.167 3.2 6.167-3.2zm-.367-27.6l-6.833 4 1.433 13.067-1.4 19.066c6.37.467 12.764.467 19.134 0l.433-9.7-10.7-9.233 5.767-4.4-9.5-1.333 5.633-9-3.967-2.467z" fill="#8AECED"/><path d="M96.99 206.794l-5.6-9-5.067 3.133c-.578 2.067-1.1 4.112-1.567 6.134a96.274 96.274 0 0 0-2.166 14.7l10.666-9.234-5.766-4.4 9.5-1.333zm-25.9.267c-.467-2.067-1-4.156-1.6-6.267l-5.067-3.133-5.633 9 9.5 1.333-5.767 4.4 10.7 9.233a91.874 91.874 0 0 0-2.133-14.566z" fill="#000"/><path d="M64.423 197.66l-5.633 9 9.5 1.334-5.767 4.4 10.7 9.233m-12.4 1.167l-6.167 3.2m31.634-25.067c-.578 2.067-1.1 4.112-1.567 6.134m-18.867-8.7l-1.4-.8-.033.1m30.067 24.866l6.4 3.467m-14.567-25.067l3.633-2.433 1.334-.9.1.1-1.4.8m5.333-3.167l-4 2.367.067.1m.033 0l5.567 9-9.5 1.333 5.766 4.4-10.666 9.234m12.733-26.434l6.833 4-1.433 13.067 1.4 19.067a99.139 99.139 0 0 1-20.2-.534l.667-9.166a96.274 96.274 0 0 1 2.166-14.7c-4.888 3.555-9.433 3.555-13.633 0a91.874 91.874 0 0 1 2.133 14.566l-.433 9.7a130.92 130.92 0 0 1-19.133 0l1.4-19.066-1.434-13.067 6.834-4 4 2.367.1-.1 1.3.9 3.633 2.433c.6 2.111 1.133 4.2 1.6 6.267" stroke="#000" stroke-width="3" stroke-linecap="round" stroke-linejoin="round"/><path d="M89.656 213.96c.22-.233.328-.547.3-.866a1.335 1.335 0 0 0-.433-.867 1.333 1.333 0 0 0-.9-.366 1.122 1.122 0 0 0-.867.366.988.988 0 0 0-.266.867c.022.329.164.637.4.867.243.231.564.362.9.366.328.011.645-.123.866-.366M67.356 213.294c.22-.233.328-.548.3-.867a1.335 1.335 0 0 0-.433-.866 1.333 1.333 0 0 0-.9-.367 1.122 1.122 0 0 0-.867.367.988.988 0 0 0-.266.866c.022.329.164.638.4.867.243.231.564.362.9.367.328.01.645-.124.866-.367M123.183 23.22a25.997 25.997 0 0 0-5.893-14.813c-3.862-4.622-9.354-6.858-16.474-6.706-7.12.151-12.513 2.788-16.18 7.913-3.666 5.08-6.01 11.365-7.033 18.853-.498 3.778.153 6.74 1.953 8.887 1.8 2.147 4.722 3.415 8.767 3.807 1.143.05 2.287-.003 3.42-.16a9.787 9.787 0 0 0 3.387-.78c.413-.24.191.628-.667 2.606a51.584 51.584 0 0 1-1.793 3.78 67.743 67.743 0 0 1-7.947 12.374 26.89 26.89 0 0 0-3.333 4.82l-1.4 4.2a27.09 27.09 0 0 0-.294 2.44 9.488 9.488 0 0 0 2 6.286c.102.088.18.201.227.327 1.671 2.222 3.202 3.667 4.593 4.333 1.476.632 3.387.36 5.734-.813a19.233 19.233 0 0 0 4.98-3.027l1.793-1.56a84.708 84.708 0 0 0 6.313-6.9 80.066 80.066 0 0 0 10.287-15.333 91.671 91.671 0 0 0 5.633-14.42 43.558 43.558 0 0 0 1.927-16.113" fill="#FFF"/><path d="M80.003 67.974a27.09 27.09 0 0 0-.293 2.44 9.488 9.488 0 0 0 2 6.287c.101.088.18.2.226.326 1.672 2.222 3.202 3.667 4.594 4.334 1.475.631 3.386.36 5.733-.814a19.233 19.233 0 0 0 4.98-3.026l1.793-1.56a84.708 84.708 0 0 0 6.314-6.9 80.066 80.066 0 0 0 10.286-15.334 91.671 91.671 0 0 0 5.634-14.42 43.543 43.543 0 0 0 1.92-16.113 25.997 25.997 0 0 0-5.894-14.813c-3.862-4.622-9.353-6.858-16.473-6.707-7.12.151-12.513 2.789-16.18 7.913-3.667 5.08-6.011 11.365-7.033 18.854-.498 3.778.153 6.74 1.953 8.886 1.8 2.147 4.72 3.42 8.76 3.82 1.143.051 2.287-.002 3.42-.16a9.787 9.787 0 0 0 3.387-.78c.413-.24.191.629-.667 2.607a51.584 51.584 0 0 1-1.793 3.78 67.743 67.743 0 0 1-7.947 12.373 26.89 26.89 0 0 0-3.333 4.82l-1.387 4.187z" stroke="#0C0C0C" stroke-width="3" stroke-linecap="round" stroke-linejoin="round"/><path d="M105.31 28.66c-1.52 2.52-2.66 4.365-3.42 5.534a21.46 21.46 0 0 1-2.7 3.22c-.089.107-.142.14-.16.1-.027-.06-.054.067-.1.193-1.392 3.689-2.152 5.654-2.28 5.894-1.996 3.973-3.46 6.784-4.394 8.433a73.046 73.046 0 0 1-5.266 7.853 83.54 83.54 0 0 1-7.26 8.107l-.294 2.44a9.547 9.547 0 0 0 2 6.287 80.584 80.584 0 0 0 18.754-22.107c4.933-8.325 7.66-15.575 8.18-21.753.24-2.734-.096-4.872-1.007-6.414a8.223 8.223 0 0 0-2.053 2.214" fill="#FDADA3"/><path d="M104.423 29.067a8.223 8.223 0 0 1 2.053-2.213M100.99 34.6c1-1.52 2.14-3.364 3.42-5.533M98.323 37.827a19.019 19.019 0 0 0 2.667-3.22M94.103 40.494a14.517 14.517 0 0 0 4.233-2.667M106.476 26.854a4.626 4.626 0 0 1 1.92-.847" stroke="#0C0C0C" stroke-width="4" stroke-linecap="round" stroke-linejoin="round"/><path d="M35.656 8.407a25.997 25.997 0 0 0-5.893 14.814 43.543 43.543 0 0 0 1.92 16.113 88.617 88.617 0 0 0 5.633 14.42 80.066 80.066 0 0 0 10.287 15.333 86.142 86.142 0 0 0 6.287 6.9 19.852 19.852 0 0 1 1.793 1.56 20.808 20.808 0 0 0 5.013 3.027c2.342 1.173 4.242 1.445 5.7.813 1.458-.631 2.998-2.075 4.62-4.333.064-.117.14-.227.227-.327a9.25 9.25 0 0 0 2-6.286L72.95 68l-1.4-4.2a27.077 27.077 0 0 0-3.334-4.82 70.364 70.364 0 0 1-7.913-12.374 79.53 79.53 0 0 1-1.793-3.78c-.889-1.973-1.112-2.842-.667-2.606 1.071.465 2.22.73 3.387.78 1.121.156 2.255.21 3.386.16 4.058-.392 6.998-1.66 8.82-3.807 1.822-2.147 2.462-5.109 1.92-8.887-.978-7.466-3.31-13.751-7-18.853-3.688-5.102-9.093-7.74-16.213-7.913-7.12-.16-12.615 2.075-16.487 6.706" fill="#FFF"/><path d="M72.936 67.974l-1.4-4.2a27.077 27.077 0 0 0-3.333-4.82 70.364 70.364 0 0 1-7.913-12.373 79.53 79.53 0 0 1-1.794-3.78c-.888-1.974-1.11-2.842-.666-2.607 1.071.465 2.22.73 3.386.78 1.122.157 2.256.21 3.387.16 4.058-.391 6.998-1.66 8.82-3.807 1.822-2.146 2.462-5.108 1.92-8.886-.978-7.467-3.311-13.752-7-18.854-3.689-5.102-9.093-7.74-16.213-7.913-7.116-.142-12.607 2.098-16.474 6.72a25.997 25.997 0 0 0-5.893 14.813 43.556 43.556 0 0 0 1.893 16.12 88.617 88.617 0 0 0 5.634 14.42 80.066 80.066 0 0 0 10.286 15.334 86.142 86.142 0 0 0 6.287 6.9 19.852 19.852 0 0 1 1.793 1.56 20.808 20.808 0 0 0 5.014 3.026c2.342 1.174 4.242 1.445 5.7.814 1.458-.632 2.998-2.076 4.62-4.334.063-.116.14-.226.226-.326a9.254 9.254 0 0 0 2-6.287l-.28-2.46z" stroke="#0C0C0C" stroke-width="3" stroke-linecap="round" stroke-linejoin="round"/><path d="M45.596 26.447c-.91 1.542-1.246 3.68-1.006 6.414.52 6.164 3.244 13.413 8.173 21.746a80.584 80.584 0 0 0 18.753 22.107 9.547 9.547 0 0 0 2-6.287l-.293-2.44a83.54 83.54 0 0 1-7.26-8.106 70.966 70.966 0 0 1-5.273-7.847c-1.022-1.738-2.487-4.549-4.394-8.433-.128-.24-.888-2.205-2.28-5.894-.044-.128-.078-.193-.1-.193-.022 0-.086-.033-.193-.1a21.679 21.679 0 0 1-2.667-3.22c-.826-1.235-1.966-3.08-3.42-5.533a8.234 8.234 0 0 0-2.04-2.214" fill="#FDADA3"/><path d="M46.436 26.854a7.395 7.395 0 0 1 2.087 2.213M48.516 29.067c1.28 2.169 2.42 4.014 3.42 5.534M51.936 34.6a19.019 19.019 0 0 0 2.667 3.22M54.61 37.827a14.517 14.517 0 0 0 4.233 2.667M44.55 26.007c.69.119 1.34.41 1.886.847" stroke="#0C0C0C" stroke-width="4" stroke-linecap="round" stroke-linejoin="round"/><path d="M108.77 68.994a56.289 56.289 0 0 0-28.42-8 60.373 60.373 0 0 0-21.714 3.907 72.665 72.665 0 0 0-23.38 14.326 77.657 77.657 0 0 0-16.933 21.607A159.443 159.443 0 0 0 6.57 128.701c-3.342 10.808-4.852 20.718-4.527 29.726.045 1.085.109 2.18.193 3.287 1.432 15.369 10.516 27.547 27.254 36.533a94.486 94.486 0 0 0 23.213 8.547 103.403 103.403 0 0 0 23.113 2.767c7.848.016 15.68-.736 23.38-2.247a96.023 96.023 0 0 0 23.574-7.653c17.035-8.236 26.575-20.1 28.62-35.594 2.822-21.444-4.34-46.231-21.487-74.36a59.424 59.424 0 0 0-21.133-20.713" fill="#FFF"/><path d="M58.63 64.934a72.666 72.666 0 0 0-23.374 14.327 77.65 77.65 0 0 0-16.933 21.586A159.494 159.494 0 0 0 6.57 128.714c-3.342 10.809-4.852 20.718-4.527 29.727.045 1.084.109 2.18.193 3.286 1.432 15.369 10.516 27.547 27.254 36.534a94.471 94.471 0 0 0 23.213 8.533 103.403 103.403 0 0 0 23.113 2.767c7.848.016 15.68-.736 23.38-2.247a96.023 96.023 0 0 0 23.574-7.653c17.035-8.227 26.575-20.089 28.62-35.587 2.822-21.445-4.34-46.231-21.487-74.36a59.421 59.421 0 0 0-21.133-20.707 56.289 56.289 0 0 0-28.42-8 60.36 60.36 0 0 0-21.72 3.927z" stroke="#0C0C0C" stroke-width="3" stroke-linecap="round" stroke-linejoin="round"/><path d="M44.99 150.127a4.251 4.251 0 0 0-1.2-3.033 3.953 3.953 0 0 0-5.8 0 4.473 4.473 0 0 0 0 6.1 3.953 3.953 0 0 0 5.8 0 4.3 4.3 0 0 0 1.2-3.067M117.49 150.127a4.251 4.251 0 0 0-1.2-3.033 4 4 0 0 0-5.834 0 4.473 4.473 0 0 0 0 6.1 4 4 0 0 0 5.834 0 4.3 4.3 0 0 0 1.2-3.067" fill="#000"/><path d="M102.956 107.627c2.4-2.155 4.79-2.155 7.167 0M44.19 107.627c2.4-2.155 4.778-2.155 7.133 0" stroke="#0C0C0C" stroke-width="3" stroke-linecap="round" stroke-linejoin="round"/><path d="M87.356 159.527c-2.555-1.8-5.81-2.778-9.766-2.933a16.236 16.236 0 0 0-10.234 2.667c-2.844 1.955-4.255 4.544-4.233 7.766a7.894 7.894 0 0 0 4.233 7.267c2.778 1.533 6.234 2.3 10.367 2.3 4.222 0 7.511-.778 9.867-2.333 2.422-1.556 3.633-3.967 3.633-7.234a8.473 8.473 0 0 0-3.867-7.5" fill="#FDADA3"/><path d="M86.756 159.227a18.399 18.399 0 0 0-9.166-2.633c-3.362-.21-6.71.603-9.6 2.333-3.267 1.978-4.889 4.689-4.867 8.134.022 3.444 1.711 5.978 5.067 7.6a20.56 20.56 0 0 0 9.533 2c3.667 0 6.689-.667 9.067-2a8.2 8.2 0 0 0 4.433-7.534c.022-3.378-1.467-6.011-4.467-7.9" fill="#FDADA3"/><path d="M91.223 167.06a8.2 8.2 0 0 1-4.433 7.534c-2.378 1.333-5.4 2-9.067 2a20.56 20.56 0 0 1-9.533-2c-3.356-1.689-5.045-4.222-5.067-7.6-.022-3.378 1.6-6.089 4.867-8.133a16.666 16.666 0 0 1 9.6-2.334 18.4 18.4 0 0 1 9.166 2.634c3 1.933 4.49 4.566 4.467 7.9z" stroke="#020202" stroke-width="3"/><path d="M72.656 165.96v1.334m9.1-1.333v1.333" stroke="#000" stroke-width="3" stroke-linecap="round" stroke-linejoin="round"/><path d="M71.443 188.36h.16a5.742 5.742 0 0 0 2.12 2.434 5.996 5.996 0 0 0 3.06 1.073 5.871 5.871 0 0 0 3.16-.713 5.78 5.78 0 0 0 2.38-2.18 1.02 1.02 0 0 0 .193-.667.666.666 0 0 0-.453-.52 6.95 6.95 0 0 0-.813-.26 3.749 3.749 0 0 1-1.14-.666 7.358 7.358 0 0 0-1.12-.734c-1.04-.444-2.332-.26-3.874.554l-1.76.98c-.594.339-1.24.576-1.913.7" fill="#CA3538"/><path d="M79.163 186.407a.94.94 0 0 0-.587-.746 2.52 2.52 0 0 0-1.333-.327h-.227a2.52 2.52 0 0 0-1.333.327c-.369.218-.542.466-.52.746-.03.292.079.581.293.78a2.666 2.666 0 0 0 1.594.327h.193a2.904 2.904 0 0 0 1.727-.327c.143-.234.21-.506.193-.78" fill="#FFF"/><path d="M69.383 186.42c1.995 1.236 3.731 1.236 5.207 0a4.041 4.041 0 0 1 2.573-1.14c.963.076 1.87.478 2.573 1.14 1.432 1.214 3.158 1.214 5.18 0" stroke="#0C0C0C" stroke-width="3" stroke-linecap="round" stroke-linejoin="round"/><path d="M83.736 187.007c-.39.565-1.02 1.618-1.886 3.16-1.062 1.258-2.618 1.887-4.667 1.887a5.908 5.908 0 0 1-4.56-1.76 934.24 934.24 0 0 1-2-3.22" stroke="#000" stroke-width="3"/><path stroke="#000" stroke-width="3" stroke-linecap="round" stroke-linejoin="round" d="M72.923 210.394l4.667 4.433 5.6-4.6"/><path d="M88.99 220.127l-1 8.334" stroke="#000" stroke-width="4" stroke-linecap="round" stroke-linejoin="round"/><path d="M88.723 220.56a.234.234 0 0 0-.267.267.228.228 0 0 0 .067.167c.05.06.123.095.2.1a.131.131 0 0 0 .1-.033.374.374 0 0 1-.1-.067.226.226 0 0 1-.067-.167.36.36 0 0 1 .067-.2.136.136 0 0 1 .1 0 .133.133 0 0 0-.1-.133v.067zm.1-.033a.136.136 0 0 0-.1 0 .36.36 0 0 0-.067.2.226.226 0 0 0 .067.167c.03.027.063.05.1.067l.067-.067a.193.193 0 0 0 .1-.1.285.285 0 0 0-.1-.2.096.096 0 0 0-.067 0v-.067z" fill="#333"/><path d="M88.356 226.76a.131.131 0 0 1-.033.1l-.067.067a.193.193 0 0 1-.166.1.285.285 0 0 1-.2-.1.228.228 0 0 1-.067-.166.234.234 0 0 1 .267-.267.228.228 0 0 1 .166.067c.081.05.131.138.134.233l-.034-.033zm.2-1.9a.136.136 0 0 1 0 .1l-.066.067a.193.193 0 0 1-.167.1.285.285 0 0 1-.2-.1.226.226 0 0 1-.067-.166.234.234 0 0 1 .267-.267.226.226 0 0 1 .167.067c.06.05.095.122.1.2h-.034zm.267-1.933a.136.136 0 0 1 0 .1l-.067.067a.193.193 0 0 1-.166.1.285.285 0 0 1-.2-.1.226.226 0 0 1-.067-.167.234.234 0 0 1 .267-.266.228.228 0 0 1 .166.066c.06.051.096.123.1.2h-.033zm0-2.4a.131.131 0 0 1 .1-.033.228.228 0 0 1 .167.067c.06.05.095.122.1.2a.399.399 0 0 1-.267.266.131.131 0 0 1-.1-.033.374.374 0 0 1-.1-.067.226.226 0 0 1-.067-.166.36.36 0 0 1 .067-.2.131.131 0 0 1 .1-.034z" stroke="#FFF" stroke-linecap="round" stroke-linejoin="round"/><path d="M66.656 220.327l.2 8.4" stroke="#000" stroke-width="4" stroke-linecap="round" stroke-linejoin="round"/><path d="M66.39 220.86a.133.133 0 0 0 .066.167c.028.03.05.064.067.1a.374.374 0 0 0 .1-.066.418.418 0 0 0 .1-.167.36.36 0 0 0-.067-.2.136.136 0 0 0-.1 0 .04.04 0 0 0-.066 0 .285.285 0 0 0-.1.2v-.033zm.166-.166a.136.136 0 0 1 .1 0 .36.36 0 0 1 .067.2.418.418 0 0 1-.1.167.374.374 0 0 1-.1.066.131.131 0 0 0 .1.034.285.285 0 0 0 .2-.1.215.215 0 0 0 .1-.134.541.541 0 0 0-.067-.233.364.364 0 0 0-.2-.067.131.131 0 0 0-.1.034v.033z" fill="#333"/><path d="M66.39 226.96v.1l.066.067a.32.32 0 0 0 .167.134.285.285 0 0 0 .2-.1.418.418 0 0 0 .1-.167.324.324 0 0 0-.067-.167.36.36 0 0 0-.2-.066.153.153 0 0 0-.166.033.272.272 0 0 0-.067.133l-.033.034zm0-1.9a.136.136 0 0 0 0 .1.131.131 0 0 1 .033.1c.033.061.097.1.167.1a.364.364 0 0 0 .2-.066c.06-.033.1-.097.1-.167a.365.365 0 0 0-.067-.2.193.193 0 0 0-.167-.1.36.36 0 0 0-.2.067.193.193 0 0 0-.066.133v.034zm-.1-2a.3.3 0 0 0 0 .134l.066.067c.034.06.098.099.167.1a.193.193 0 0 0 .2-.067.226.226 0 0 0 .067-.167.22.22 0 0 0 0-.2.838.838 0 0 0-.2-.1.228.228 0 0 0-.167.067.32.32 0 0 0-.1.167h-.033zm.266-2.366a.106.106 0 0 0-.1-.067.226.226 0 0 0-.166.067.285.285 0 0 0-.1.2.133.133 0 0 0 .066.167c.034.06.098.099.167.1h.1a.374.374 0 0 0 .1-.067.418.418 0 0 0 .1-.167.36.36 0 0 0-.067-.2.131.131 0 0 0-.1-.033z" stroke="#FFF" stroke-linecap="round" stroke-linejoin="round"/><path d="M77.923 222.594l5.8-13.333m-11.4 0l5 13.333" stroke="#000" stroke-linecap="round" stroke-linejoin="round"/><path d="M78.456 224.794a1.46 1.46 0 0 0 .534-1.067 1.852 1.852 0 0 0-.234-1.166 1.06 1.06 0 0 0-.766-.667c-.346-.04-.69.083-.934.333-.292.296-.469.686-.5 1.1-.052.4.018.807.2 1.167.166.308.458.527.8.6.33.044.662-.067.9-.3" fill="#F9C"/><path d="M78.99 223.76a1.46 1.46 0 0 1-.534 1.067 1.082 1.082 0 0 1-.9.334 1.188 1.188 0 0 1-.8-.6 2.001 2.001 0 0 1-.2-1.167c.031-.415.208-.805.5-1.1.243-.25.588-.373.934-.333.352.077.641.328.766.666.197.344.28.741.234 1.134z" stroke="#000" stroke-linecap="round" stroke-linejoin="round"/><path fill="#8AECED" d="M118.09 77.794l11.3-.767-11.7.334z"/><path d="M117.656 77.36l-5.333.134" stroke="#FFF" stroke-linecap="round" stroke-linejoin="round"/><path d="M91.256 60.927c4.622.822 8.745 1.412 12.367 1.767m14.467 15.1l-.4-.433" stroke="#000" stroke-width="3" stroke-linecap="round" stroke-linejoin="round"/><path d="M136.323 75.794c.2-1.689-1.445-3.555-4.933-5.6-3.489-2.045-9.045-4.245-16.667-6.6a69.08 69.08 0 0 0-9.8-2.167l-2.467-.5 9.467 15.867c15.822 2.511 23.955 2.178 24.4-1" fill="#8AECED"/><path d="M102.423 60.927l2.467.5a68.988 68.988 0 0 1 9.8 2.167c7.666 2.355 13.222 4.555 16.666 6.6 3.445 2.045 5.09 3.911 4.934 5.6-.445 3.178-8.567 3.511-24.367 1l-9.5-15.867z" stroke="#000" stroke-width="3" stroke-linecap="round" stroke-linejoin="round"/><path d="M109.956 49.394c-5.355-2.355-10.633-2.922-15.833-1.7-5.2 1.155-9.022 4.522-11.467 10.1-.43.938-.786 1.907-1.066 2.9 11.2 12.422 24.055 18.067 38.566 16.933.52-.883.987-1.796 1.4-2.733 2.467-5.578 2.5-10.622.1-15.133-2.4-4.512-6.3-7.967-11.7-10.367" fill="#D822B4"/><path d="M97.656 51.594a.44.44 0 0 0-.166.2.314.314 0 0 0 0 .233c.034.086.11.149.2.167.072.04.16.04.233 0 .582-.311 1.182-.6 1.8-.867a.28.28 0 0 0 .167-.2.232.232 0 0 0 0-.233.39.39 0 0 0-.2-.2.335.335 0 0 0-.234 0c-.604.289-1.204.589-1.8.9m6.167-1.7a.386.386 0 0 0-.167-.233.314.314 0 0 0-.233 0 36.25 36.25 0 0 0-1.933.466.487.487 0 0 0-.2.167.396.396 0 0 0-.034.233c.024.088.085.161.167.2a.22.22 0 0 0 .233.034 37.78 37.78 0 0 1 1.9-.434.28.28 0 0 0 .2-.166.248.248 0 0 0 .067-.234m4.033-.566a.322.322 0 0 0-.233-.1c-.693 0-1.382.022-2.067.066a.428.428 0 0 0-.233.1.372.372 0 0 0-.067.234c.001.088.037.172.1.233.06.065.145.101.234.1a30.118 30.118 0 0 1 2-.067.333.333 0 0 0 .233-.566m3.333 1.1a24.439 24.439 0 0 0-1.766-.834.406.406 0 0 0-.267 0 .425.425 0 0 0-.167.2.335.335 0 0 0 0 .234c.04.089.111.16.2.2.618.266 1.196.544 1.734.833.084.04.182.04.266 0a.272.272 0 0 0 .2-.167.242.242 0 0 0 0-.233.272.272 0 0 0-.166-.2m1.166 1.3a.299.299 0 0 0 .134.2c.532.36 1.044.75 1.533 1.167.06.064.145.101.233.1a.28.28 0 0 0 .234-.134.261.261 0 0 0 .1-.233.362.362 0 0 0-.134-.233c-.51-.44-1.044-.852-1.6-1.234a.314.314 0 0 0-.233 0 .446.446 0 0 0-.233.134.424.424 0 0 0 0 .266m-21.867 6.367a.311.311 0 0 0-.2.133c-.382.542-.76 1.109-1.133 1.7a.409.409 0 0 0 0 .234c.024.088.084.16.166.2a.22.22 0 0 0 .234.033.227.227 0 0 0 .2-.133 38.7 38.7 0 0 1 1.1-1.634.36.36 0 0 0 .066-.266.311.311 0 0 0-.133-.2.36.36 0 0 0-.267-.067m-2.133 3.333a.49.49 0 0 0-.2.167c-.307.56-.607 1.138-.9 1.733a.433.433 0 0 0-.033.267c.03.084.09.155.166.2.084.04.183.04.267 0a.26.26 0 0 0 .2-.167 56.06 56.06 0 0 1 .867-1.7.272.272 0 0 0 .033-.266.3.3 0 0 0-.133-.2.487.487 0 0 0-.267-.034m30.033-1.633a.248.248 0 0 0 .067-.233 10.969 10.969 0 0 0-.6-2.034.28.28 0 0 0-.167-.166.41.41 0 0 0-.266-.034.425.425 0 0 0-.167.2.335.335 0 0 0 0 .234c.25.624.44 1.272.567 1.933a.299.299 0 0 0 .133.2c.075.06.173.084.267.067a.28.28 0 0 0 .2-.167m-.3 1.667a.373.373 0 0 0-.067.233c.043.677.043 1.356 0 2.033a.307.307 0 0 0 .067.234.36.36 0 0 0 .233.133c.09.01.178-.029.233-.1a.28.28 0 0 0 .134-.233c.045-.7.045-1.401 0-2.1a.362.362 0 0 0-.134-.234.308.308 0 0 0-.233-.066.428.428 0 0 0-.233.1m-.134 6.666a.28.28 0 0 0 .167-.2 22.91 22.91 0 0 0 .367-2.066.308.308 0 0 0-.067-.234.333.333 0 0 0-.233-.133.308.308 0 0 0-.234.067.311.311 0 0 0-.133.2 22.51 22.51 0 0 1-.367 2.033.314.314 0 0 0 0 .233.386.386 0 0 0 .234.167.248.248 0 0 0 .233-.067m-2.433-14.266a.372.372 0 0 0-.234.066.428.428 0 0 0-.1.234.313.313 0 0 0 .067.233 9.363 9.363 0 0 1 1.133 1.6c.046.07.118.119.2.133a.271.271 0 0 0 .267 0 .226.226 0 0 0 .133-.2.22.22 0 0 0 0-.233 10.018 10.018 0 0 0-1.2-1.7.328.328 0 0 0-.233-.1m-19.467-1.4a.308.308 0 0 0-.233.067c-.538.382-1.071.782-1.6 1.2a.4.4 0 0 0-.1.233.34.34 0 0 0 .3.367c.09.007.177-.031.233-.1a38.437 38.437 0 0 1 1.567-1.167.333.333 0 0 0 .133-.233.308.308 0 0 0-.066-.234.333.333 0 0 0-.234-.133m-3.033 2.533a.322.322 0 0 0-.233.1c-.472.472-.927.96-1.367 1.467a.453.453 0 0 0-.067.267.266.266 0 0 0 .1.2.367.367 0 0 0 .267.1.239.239 0 0 0 .2-.134c.445-.493.889-.971 1.333-1.433a.334.334 0 0 0-.233-.567m24.033 14.467a.436.436 0 0 0-.166.2c-.192.618-.414 1.24-.667 1.867a.406.406 0 0 0 0 .266c.027.078.089.14.167.167.084.04.182.04.266 0a.28.28 0 0 0 .167-.2c.258-.64.48-1.273.667-1.9a.307.307 0 0 0 0-.267.436.436 0 0 0-.2-.166.427.427 0 0 0-.267.033m-1.333 3.733a.373.373 0 0 0-.167.2c-.245.578-.5 1.167-.767 1.767a.335.335 0 0 0 0 .233c.04.09.111.161.2.2.073.041.161.041.234 0a.28.28 0 0 0 .2-.166c.266-.6.522-1.189.766-1.767a.307.307 0 0 0 0-.267.254.254 0 0 0-.166-.166.418.418 0 0 0-.267-.034m-1.433 4.434a.707.707 0 0 0 .066-.2.307.307 0 0 0 0-.267.436.436 0 0 0-.2-.167.427.427 0 0 0-.266.034.436.436 0 0 0-.167.2.707.707 0 0 1-.067.2.314.314 0 0 0 0 .233c.034.086.11.149.2.167.073.04.161.04.234 0a.272.272 0 0 0 .166-.2" fill="#FFF"/><path d="M97.99 48.96a.667.667 0 0 1-.234.534.666.666 0 0 1-.533.267.793.793 0 0 1-.767-.8.925.925 0 0 1 .2-.567.842.842 0 0 1 .567-.2.72.72 0 0 1 .533.2c.146.153.23.355.234.567zM108.056 54.06a.842.842 0 0 1-.2.567.774.774 0 0 1-.566.234.667.667 0 0 1-.534-.234.774.774 0 0 1-.233-.566c0-.203.085-.396.233-.534a.667.667 0 0 1 .534-.233.774.774 0 0 1 .566.233c.131.147.202.337.2.534z" stroke="#FFF" stroke-linecap="round" stroke-linejoin="round"/><path d="M121.556 74.894c-.413.937-.88 1.85-1.4 2.733-14.51 1.134-27.366-4.511-38.566-16.933.28-.993.636-1.962 1.066-2.9 2.445-5.555 6.267-8.922 11.467-10.1 5.2-1.178 10.478-.611 15.833 1.7 5.378 2.355 9.278 5.811 11.7 10.367 2.422 4.555 2.39 9.6-.1 15.133z" stroke="#000" stroke-width="3.5" stroke-linecap="round" stroke-linejoin="round"/></g></svg>