<svg width="152" height="234" viewBox="0 0 152 234" xmlns="http://www.w3.org/2000/svg"><title>pr-ss</title><g fill="none" fill-rule="evenodd"><path d="M89.754 226.76a7.572 7.572 0 0 0-7.533 7.532 7.52 7.52 0 1 0 7.533-7.533z" fill="#FFF"/><path d="M97.254 234.292a7.46 7.46 0 0 1-7.388 7.532h-.112a7.54 7.54 0 1 1 7.5-7.578v.046z" stroke="#0C0C0C" stroke-width="4" stroke-linecap="round" stroke-linejoin="round"/><path d="M98.298 207.487a53.07 53.07 0 0 0-6-6.75c-2.479-1.326-4.174-1.304-5.087.066a11.82 11.82 0 0 0-1.37 3.358 16.543 16.543 0 0 0 0 3.62c.435 4.195.946 7.945 1.533 11.25l.13.489a15.805 15.805 0 0 0 0 0 12.775 12.775 0 0 0-5.087 5.446 37.914 37.914 0 0 1 1.728 7.826c-.086 1.174 1.076 1.772 3.49 1.793 2.493.017 4.97-.425 7.304-1.304 2.457-.913 4.174-1.805 5.152-2.674a10.906 10.906 0 0 0 3.098-4.565c.652-1.935.739-4.337.26-7.207a37.753 37.753 0 0 0-.456-2.152 26.445 26.445 0 0 0-4.695-9.196" fill="#312B66"/><path d="M87.374 219.03c-.587-3.304-1.098-7.054-1.533-11.25a16.543 16.543 0 0 1 0-3.619 11.82 11.82 0 0 1 1.37-3.358c.913-1.37 2.608-1.392 5.087-.066a53.07 53.07 0 0 1 6 6.75 26.44 26.44 0 0 1 4.695 9.13c.174.718.326 1.436.457 2.153.478 2.87.391 5.271-.261 7.206a10.906 10.906 0 0 1-3.098 4.566c-.978.869-2.695 1.76-5.152 2.674a20.332 20.332 0 0 1-7.304 1.304c-2.414 0-3.576-.598-3.49-1.794a37.956 37.956 0 0 0-1.728-7.826 12.771 12.771 0 0 1 5.087-5.445c.487-.266.988-.505 1.5-.718a9.393 9.393 0 0 1 8.152.326" stroke="#000" stroke-width="3" stroke-linecap="round" stroke-linejoin="round"/><path d="M88.026 241.563a9.13 9.13 0 0 0 3.032-4.467c.455-1.503.782-3.04.979-4.598.13-1.413.195-2.478.195-3.195H48.341l1.044 3.326a50.226 50.226 0 0 0 2.967 6.62c1.565 3.02 2.609 5.217 3.13 6.586l.816 2.315c.108.326.217.641.326.946a22.98 22.98 0 0 0 5.217.49 20.238 20.238 0 0 0 3.848-.425c.021-.347.054-.685.098-1.01a1.471 1.471 0 0 1 0-.294c.065-.652.152-1.304.26-1.957 1.345.495 2.776.717 4.207.653.491-.001.981-.034 1.467-.098.94-.1 1.867-.286 2.772-.555l.359 2.218.163.978c1.468.32 2.965.484 4.467.49h.555a22.904 22.904 0 0 0 3.913-.49l.13-.326v.391c1.087-3.76 2.402-6.293 3.946-7.598" fill="#312B66"/><path d="M56.395 249.063c.217.718.413 1.414.587 2.087v.098l.066.326c.043.15.075.303.097.457.021.04.032.085.033.13a.094.094 0 0 0 0 .066c.013.187.046.373.098.554 0 .066.01.132.032.196a.955.955 0 0 0 0 .228v.13l.066.326v.13a.094.094 0 0 0 0 .066v.065c0 .099.012.197.032.294 0 .217.033.456.098.717v.13a.362.362 0 0 0 0 .164c.022.37.044.706.065 1.01 0 .196-.021.37-.065.522l-.26.261a10.24 10.24 0 0 0 4.238.848 8.812 8.812 0 0 0 2.935-.718c-.018.057-.04.11-.065.163.55.75.938 1.604 1.141 2.511.196.87.054 1.326-.424 1.37-.478.044-1.858.044-4.141 0s-3.99-.065-5.12-.065-1.532-.37-1.206-1.109c.282-.696 1.152-1.696 2.609-3l-.816-7.957zm8.38 8.087c.066-.304.142-.63.229-.978.087-.347.13-.685.13-1.01v-.066a.972.972 0 0 1 0-.163c0-.152.022-.402.066-.75.011-.12.011-.24 0-.359v-.163c.01-.108.01-.218 0-.326v-.163a.615.615 0 0 1 0-.195v-.196c0-.174.021-.359.065-.554v-.196a3.137 3.137 0 0 0 0-.457c.01-.108.01-.217 0-.326v-.098c.044-.608.109-1.217.196-1.826a.615.615 0 0 1 0-.195l-.685 8.021zm10.305-8.087a.247.247 0 0 0 0 .098v-.098zm.913 7.957c1.337.581 2.782.87 4.24.848a8.812 8.812 0 0 0 2.934-.718l-7.174-.13zm8.218-7.859a20.29 20.29 0 0 1-3.848.424H80.2l4.01-.424zm-.164 0a.615.615 0 0 0 0 .196 26.277 26.277 0 0 0-.195 1.826v.098c.01.108.01.218 0 .326 0 .153-.011.305-.033.456v.196c0 .196-.021.38-.065.554v.196a.615.615 0 0 0 0 .196v.163c.011.108.011.218 0 .326v.163c.001.12-.01.24-.033.359 0 .347-.021.598-.065.75a.972.972 0 0 0 0 .163v.065c-.043.348-.087.685-.13 1.01-.044.327-.12.653-.229.979a1.25 1.25 0 0 1-.065.163c.489.753.821 1.595.979 2.478.195.87.054 1.326-.424 1.37-.478.044-1.86.044-4.142 0s-3.989-.065-5.12-.065c-1.13 0-1.532-.37-1.206-1.109.283-.696 1.164-1.696 2.642-3l.26-.26c0-.153.022-.327.066-.523a81.274 81.274 0 0 1-.066-1.01.362.362 0 0 1 0-.164v-.13c-.043-.26-.076-.5-.097-.717a1.576 1.576 0 0 1 0-.294v-.065a.094.094 0 0 1 0-.065v-.13l-.066-.327v-.13a.964.964 0 0 1-.032-.228.615.615 0 0 1 0-.196 2.663 2.663 0 0 1-.098-.554.09.09 0 0 1-.033-.066.276.276 0 0 0 0-.13 3.384 3.384 0 0 0-.098-.457l-.065-.326v-.098a66.573 66.573 0 0 0-.554-1.956l8.87-.033zm.033-.032c1.087-3.74 2.392-6.261 3.913-7.566a9.13 9.13 0 0 0 3.033-4.467 27.92 27.92 0 0 0 1.01-4.598c.131-1.413.196-2.478.196-3.195H48.341l1.043 3.326a50.265 50.265 0 0 0 2.968 6.62c1.565 3.02 2.609 5.217 3.13 6.586l.815 2.315c.11.327.218.642.327.946 1.714.361 3.465.526 5.217.49a20.238 20.238 0 0 0 3.848-.425c.021-.347.054-.684.098-1.01a1.471 1.471 0 0 1 0-.294c.065-.652.152-1.304.26-1.957 1.345.495 2.775.717 4.207.653.491-.001.98-.034 1.467-.098.94-.1 1.867-.286 2.772-.555l.359 2.218.163.978c1.468.32 2.965.484 4.467.49h.555l4.043-.457z" stroke="#000" stroke-width="4" stroke-linecap="round" stroke-linejoin="round"/><path d="M86.82 198.324l-1.664-4.63a33.323 33.323 0 0 0-5.217-2.707 24.182 24.182 0 0 0-8.804-1.826 25.986 25.986 0 0 0-12.033 3.163l-.652.326-4.5 10.533-.555 1.304-3.587 8.218c-.608 1.413-1.032 2.49-1.271 3.228a30.328 30.328 0 0 0-.848 3.196c-.196.913-.348 1.739-.457 2.478l-.065.522a44.68 44.68 0 0 0-.196 2.282c0 .261-.021.533-.065.815v.392a34.256 34.256 0 0 0-.032 3.326 22.978 22.978 0 0 0 3.065 10.239c3.543.63 7.12 1.109 10.728 1.435l2.707-3.587 2.608 3.913h6.881c6.12-.12 12.223-.687 18.26-1.696a23.297 23.297 0 0 0 3.685-10.989c.042-.89.031-1.784-.032-2.674a125.992 125.992 0 0 0-.391-4.01c-.13-1.01-.315-2.011-.555-3a33.61 33.61 0 0 0-.685-2.675 13.146 13.146 0 0 0-.978-2.413l-5.348-15.163z" fill="#312B66"/><path d="M86.82 198.337l-1.664-4.643a33.323 33.323 0 0 0-5.217-2.707 24.182 24.182 0 0 0-8.804-1.826 25.986 25.986 0 0 0-12.033 3.163l-.652.326-4.5 10.533" stroke="#000" stroke-width="4" stroke-linecap="round" stroke-linejoin="round"/><path d="M54.015 203.183l-.554 1.304" stroke="#0C0C0C" stroke-width="4" stroke-linecap="round" stroke-linejoin="round"/><path d="M79.124 193.726l.424 1.435.097.326-.358-2.021a23.537 23.537 0 0 0-3.913-2.61 15.65 15.65 0 0 0-6.848-1.727h-.913c-1.228.08-2.441.3-3.62.652-1.94.57-3.803 1.38-5.543 2.413l-.522.293-.815 1.794.098.424.293-.946 3.913 15.652 5.218-4.402 4.63 4.207.391-.653 7.402-14.706.033.065.033-.196zm-8.218 16.24l.13-.327-4.5-4.043-5.054 4.24 3.163 12.553.066-.065 6.228-12.391-.033.033z" fill="#FFF"/><path fill="#CCC" d="M71.037 209.64l.228-.457-4.663-4.207-5.217 4.403.097.456 5.055-4.239z"/><path fill="#100D29" d="M79.515 195.194l-.424-1.337-.033-.065-7.402 14.706-.75 1.468-6.228 12.39-.065.066-3.13-12.62-.098-.456-3.914-15.652-.293.946-3.163 10.728 3.848 2.478-2.413 6 8.935 8.935v.098h.423l.261-.261 14.348-8.772-2.935-6 6.261-2.478-3.098-9.848z"/><path d="M66.178 210.194a.497.497 0 0 0 .13-.261.587.587 0 0 0-.065-.26.313.313 0 0 0-.442-.015l-.014.014a.38.38 0 0 0-.13.261.274.274 0 0 0 .064.26.268.268 0 0 0 .457 0m-.391 4.11a.587.587 0 0 0-.066-.261.223.223 0 0 0-.195-.098.43.43 0 0 0-.261.098.38.38 0 0 0-.13.26.274.274 0 0 0 .065.261.268.268 0 0 0 .456 0 .497.497 0 0 0 .13-.26m-.684 4.63a.352.352 0 0 0 .098-.26.833.833 0 0 0 0-.262.313.313 0 0 0-.442-.014c-.006.004-.01.01-.015.014a.293.293 0 0 0-.163.261.352.352 0 0 0 .098.261c.032.08.11.131.196.13a.377.377 0 0 0 .26-.13" fill="#CCC"/><path d="M64.58 222.846a57.21 57.21 0 0 0-.652 15.228" stroke="#100D29" stroke-linecap="square" stroke-linejoin="round"/><path d="M50.689 210.879l-.815 1.826c-.609 1.413-1.033 2.49-1.272 3.228a30.328 30.328 0 0 0-.848 3.196c-.196.913-.348 1.739-.456 2.478l-.066.522a44.68 44.68 0 0 0-.195 2.282c0 .261-.022.533-.066.815v.392a34.256 34.256 0 0 0-.032 3.326 22.978 22.978 0 0 0 3.065 10.239c3.543.63 7.12 1.109 10.728 1.435l2.707-3.587 2.609 3.913h6.88c6.12-.12 12.224-.687 18.26-1.696a23.297 23.297 0 0 0 3.686-10.989c.041-.89.03-1.784-.033-2.674a125.992 125.992 0 0 0-.391-4.01c-.13-1.01-.315-2.011-.555-3a33.61 33.61 0 0 0-.684-2.675" stroke="#000" stroke-width="3" stroke-linecap="round" stroke-linejoin="round"/><path d="M67.189 227.313a.652.652 0 0 0 .26-.521.71.71 0 0 0-.26-.555.653.653 0 0 0-.522-.228.827.827 0 0 0-.554.228.757.757 0 0 0-.228.555c-.008.2.076.392.228.521.141.16.342.254.554.261a.652.652 0 0 0 .522-.26m0 6.032a.75.75 0 0 0-.522-1.304.905.905 0 0 0-.554.195.79.79 0 0 0 0 1.109c.15.143.347.224.554.228.2.008.392-.076.522-.228" fill="#100D29"/><path d="M84.308 210.585c.145-.23.308-.45.49-.652.108-.122.206-.253.293-.391-.152.109-.413.272-.783.489a3.117 3.117 0 0 0-1.304 1.206 2.608 2.608 0 0 0 .196 1.957c.028.104.073.203.13.293.302.734.662 1.443 1.076 2.12h1.207c.077-.3.077-.614 0-.913a2.353 2.353 0 0 0-.196-.652l-.13-.359a1.434 1.434 0 0 1-.163-.946 1.311 1.311 0 0 0 0-.587 3.803 3.803 0 0 0-.163-.456l-.163-.424-.13-.326v.978c0 .152-.055.228-.164.228-.196-.37-.348-.64-.456-.815-.11-.174-.022-.413.26-.717v-.033zm-1.271 2.935c-.016.286-.06.57-.13.848-.074.21-.117.43-.131.652a.905.905 0 0 0 0 .587h1.304l.065-.065-1.239-2.348.098.293.033.033z" fill="#FDBB2A"/><path fill="#1C193C" d="M85.939 217.205h-3.62v.293h3.62z"/><path stroke="#000" stroke-width="2" stroke-linecap="round" stroke-linejoin="round" d="M81.602 216.553v-.816h5.38v1.044"/><path d="M76.385 200.118a8.04 8.04 0 0 0-2.511.424 14.35 14.35 0 0 0-5.805 3.13l-.065 1.891 3.554-.195-3.554.195-.098 1.5a13.583 13.583 0 0 0 4.468 3.718 5.63 5.63 0 0 0 2.967.815 3.007 3.007 0 0 0 2.609-1.728c.088-.206.121-.43.098-.652.042-.37.03-.743-.033-1.11a.294.294 0 0 1 0-.13 13.659 13.659 0 0 1-.294-1.956c.169-.83.398-1.648.685-2.446a3.064 3.064 0 0 0 0-2.348 1.701 1.701 0 0 0-.782-.782 2.987 2.987 0 0 0-1.24-.326m-10.89 3.554a12.646 12.646 0 0 0-5.479-3.13 7.51 7.51 0 0 0-2.446-.424c-.434.028-.857.15-1.239.358a2.038 2.038 0 0 0-.913.783 3.305 3.305 0 0 0-.26 2.348c.282 1.435.423 2.25.423 2.446-.145.662-.33 1.316-.554 1.956.01.043.01.087 0 .13a4.428 4.428 0 0 0-.163 1.11 2.103 2.103 0 0 0 0 .651 2.609 2.609 0 0 0 2.445 1.729 6.252 6.252 0 0 0 3.098-.816 15.858 15.858 0 0 0 4.859-3.717l.13-1.5-3.587-.196 3.587.196.098-1.891" fill="#FDBB2A"/><path d="M65.363 205.563l.098-1.89a12.646 12.646 0 0 0-5.479-3.131 7.51 7.51 0 0 0-2.445-.424c-.435.028-.857.15-1.24.358a2.038 2.038 0 0 0-.912.783 3.305 3.305 0 0 0-.261 2.348c.282 1.435.424 2.25.424 2.446-.146.662-.33 1.316-.555 1.956.01.043.01.087 0 .13a4.428 4.428 0 0 0-.163 1.11 2.103 2.103 0 0 0 0 .651 2.609 2.609 0 0 0 2.446 1.729 6.252 6.252 0 0 0 3.098-.816 15.858 15.858 0 0 0 4.858-3.717l.13-1.533zm2.543 1.5l.098-1.5.065-1.89a14.35 14.35 0 0 1 5.805-3.131 8.04 8.04 0 0 1 2.51-.424c.435.028.857.15 1.24.358.34.167.616.443.782.783a3.064 3.064 0 0 1 0 2.348 17.377 17.377 0 0 0-.685 2.446c.05.658.15 1.312.294 1.956a.294.294 0 0 0 0 .13c.064.366.075.74.033 1.11a1.3 1.3 0 0 1-.098.651 3.007 3.007 0 0 1-2.609 1.729 5.63 5.63 0 0 1-2.967-.816 13.582 13.582 0 0 1-4.468-3.75z" stroke="#000" stroke-width="3" stroke-linecap="round" stroke-linejoin="round"/><path d="M61.808 205.368l3.587.195m6.196-.195l-3.554.195" stroke="#000" stroke-width="2" stroke-linecap="round" stroke-linejoin="round"/><path d="M68.558 207.944a3.41 3.41 0 0 0 1.044-2.446 2.798 2.798 0 0 0-.717-2.348 2.849 2.849 0 0 0-2.087-.717 3.703 3.703 0 0 0-2.25.717 2.955 2.955 0 0 0-1.077 2.348c-.119.896.154 1.8.75 2.478.573.56 1.353.855 2.153.816a3.3 3.3 0 0 0 2.184-.848" fill="#FDBB2A"/><path d="M69.635 205.498a3.41 3.41 0 0 1-1.044 2.446 3.3 3.3 0 0 1-2.185.848c-.8.04-1.58-.256-2.152-.816a3.13 3.13 0 0 1-.75-2.478 2.955 2.955 0 0 1 1.076-2.348 3.703 3.703 0 0 1 2.25-.717 2.849 2.849 0 0 1 2.087.717c.588.63.853 1.497.718 2.348z" stroke="#000" stroke-width="2" stroke-linecap="round" stroke-linejoin="round"/><path d="M57.895 5.111A20.377 20.377 0 0 0 47.832 6.58a22.296 22.296 0 0 0-7.826 5.113 23.29 23.29 0 0 0-6.391 13.61c-.618 4.666-.183 9.842 1.304 15.529a88.014 88.014 0 0 0 4.983 14.217 80.136 80.136 0 0 0 9.554 15.496c2.644 3.409 4.613 5.785 5.909 7.128a22.803 22.803 0 0 1 1.728 1.63 22.392 22.392 0 0 0 4.794 3.327c2.3 1.304 4.163 1.739 5.589 1.304 1.343-.47 2.92-1.704 4.728-3.704a.7.7 0 0 1 .222-.287 8.48 8.48 0 0 0 2.204-5.818l-.202-2.387-1.226-4.108a27.015 27.015 0 0 0-3.098-4.86 74.482 74.482 0 0 1-7.35-12.495c-1.983-4.56-2.706-6.658-2.172-6.293a10.87 10.87 0 0 0 3.326 1.024c1.094.246 2.207.396 3.327.45 4.09 0 7.308-1.065 9.652-3.196 2.343-2.13 3.365-4.984 3.065-8.563a40.117 40.117 0 0 0-6.49-18.822 22.422 22.422 0 0 0-6.456-6.521 20.683 20.683 0 0 0-9.11-3.242" fill="#FFF"/><path d="M74.428 71.737l-1.226-4.108a27.038 27.038 0 0 0-3.098-4.86 74.482 74.482 0 0 1-7.35-12.495c-1.983-4.56-2.706-6.658-2.172-6.293a10.87 10.87 0 0 0 3.326 1.024c1.094.246 2.207.396 3.327.45 4.09 0 7.308-1.065 9.652-3.196 2.343-2.13 3.365-4.984 3.065-8.563a40.117 40.117 0 0 0-6.49-18.822 22.422 22.422 0 0 0-6.456-6.521 20.68 20.68 0 0 0-9.13-3.229 20.377 20.377 0 0 0-10.063 1.468 22.296 22.296 0 0 0-7.826 5.113 23.286 23.286 0 0 0-6.392 13.61c-.617 4.666-.182 9.842 1.305 15.529a87.89 87.89 0 0 0 4.982 14.217 80.136 80.136 0 0 0 9.555 15.496c2.643 3.409 4.613 5.785 5.908 7.128a22.803 22.803 0 0 1 1.729 1.63 22.392 22.392 0 0 0 4.793 3.327c2.3 1.304 4.163 1.739 5.59 1.304 1.343-.47 2.919-1.704 4.728-3.704a.705.705 0 0 1 .221-.287 8.48 8.48 0 0 0 2.205-5.818l-.183-2.4z" stroke="#0C0C0C" stroke-width="3" stroke-linecap="round" stroke-linejoin="round"/><path d="M49.078 29.75c-.94 1.448-1.343 3.461-1.213 6.04.256 5.9 2.648 13.036 7.174 21.41a83.629 83.629 0 0 0 17.609 22.755 8.43 8.43 0 0 0 2.237-5.818l-.19-2.367a85.63 85.63 0 0 1-6.84-8.374 74.735 74.735 0 0 1-4.892-7.924c-.809-1.534-2.14-4.337-3.992-8.406-.17-.383-.521-1.352-1.056-2.91l-.959-2.94-.065-.19c-.044.044-.106.012-.19-.097a19.625 19.625 0 0 1-2.523-3.261c-.87-1.47-1.924-3.333-3.163-5.59a8.084 8.084 0 0 0-1.937-2.328" fill="#FDADA3"/><path d="M49.939 30.226a8.106 8.106 0 0 1 1.917 2.303M51.856 32.529c1.235 2.256 2.29 4.12 3.163 5.589M55.02 38.118a21.784 21.784 0 0 0 2.523 3.26M57.543 41.411A14.093 14.093 0 0 0 61.6 44.32M48.087 29.268a5.488 5.488 0 0 1 1.852.958" stroke="#0C0C0C" stroke-width="3" stroke-linecap="round" stroke-linejoin="round"/><path d="M121.313 21.787c-.705-5.069-2.133-9.043-4.285-11.921-2.705-3.579-6.911-5.922-12.62-7.03a27.287 27.287 0 0 0-17.51 2.301 22.525 22.525 0 0 0-8.916 8.276 28.97 28.97 0 0 0-4.506 13.742 15.739 15.739 0 0 0 3.613 11.693c3.174 3.813 7.254 4.805 12.241 2.974-.726 2.94-2.28 6.487-4.663 10.644a70.835 70.835 0 0 1-19.715 21.828c1.74 1.513 6.618 2.6 14.635 3.26 4.004.34 7.828.52 11.471.542 5.818-3.13 11.772-9.074 17.863-17.83C115.1 51.318 119.126 42.71 121 34.446c.872-4.163.972-8.452.293-12.652l.02-.007zM87.47 79.022c.514.404 1.707.106 3.58-.893-2.895.19-4.088.489-3.58.893z" fill="#FFF"/><path d="M91.032 78.129c5.818-3.13 11.772-9.074 17.863-17.83 6.178-8.949 10.205-17.555 12.079-25.82.885-4.173.994-8.473.32-12.685-.705-5.07-2.133-9.044-4.286-11.922-2.704-3.578-6.91-5.922-12.62-7.03a27.287 27.287 0 0 0-17.51 2.302 22.525 22.525 0 0 0-8.915 8.276 28.97 28.97 0 0 0-4.507 13.741 15.739 15.739 0 0 0 3.613 11.694c3.174 3.813 7.254 4.804 12.242 2.974-.726 2.939-2.281 6.487-4.663 10.643A70.835 70.835 0 0 1 64.932 74.3c1.74 1.513 6.618 2.6 14.635 3.261 4.004.34 7.828.52 11.472.542-1.874 1-3.067 1.297-3.58.893-.513-.404.678-.693 3.573-.867z" stroke="#0C0C0C" stroke-width="3" stroke-linecap="round" stroke-linejoin="round"/><path d="M91.26 40.74c-.317 3.13-1.765 7.043-4.343 11.739C81.783 61.83 73.613 70.405 62.408 78.2c.192.491.874.631 2.048.418a10.565 10.565 0 0 0 1.663-.45c.87-.3 1.828.063 2.876 1.089.94.895 1.76 1.024 2.46.385a8.765 8.765 0 0 1 4.858-2.048 8.555 8.555 0 0 0 5.145-2.713 38.105 38.105 0 0 0 3.098-4.122 28.747 28.747 0 0 1 3.196-4.024c3.109-2.94 6.26-7.648 9.456-14.126 4.261-8.626 5.966-16.337 5.113-23.133L91.261 40.74z" fill="#FDADA3"/><path d="M88.574 42.083a15.058 15.058 0 0 0 5.113-2.557 12.622 12.622 0 0 0 2.876-3.737l1.532-2.843a7.123 7.123 0 0 1 2.27-2.654 6.256 6.256 0 0 1 1.956-.829" stroke="#0C0C0C" stroke-width="3" stroke-linecap="round" stroke-linejoin="round"/><path d="M88.287 62.144a44.217 44.217 0 0 0-5.016-.835 63.455 63.455 0 0 0-11.086-.052 69.618 69.618 0 0 0-15.503 2.667h-.137a69.403 69.403 0 0 0-5.687 1.957 60.662 60.662 0 0 0-16.956 10.617 124.436 124.436 0 0 0-4.422 4.37C17.493 93.555 9.263 111.83 4.79 135.696c-2.23 10.478-2.626 19.77-1.187 27.874 3.43 18.726 16.926 30.848 40.487 36.365 1.961.574 3.713 1.01 5.256 1.304a104.04 104.04 0 0 0 30.137 1.957 128.835 128.835 0 0 0 31.213-6.874l.111-.078c1.74-.574 3.85-1.365 6.333-2.374 20.917-10.26 31.844-23.63 32.778-40.109 1.044-20.756-7.941-43.821-26.954-69.195a59.545 59.545 0 0 0-10.057-10.637 43.696 43.696 0 0 0-3.802-2.83 52.701 52.701 0 0 0-20.817-8.955" fill="#FFF"/><path d="M50.408 65.757a60.448 60.448 0 0 0-16.956 10.617c-1.304 1.17-2.778 2.616-4.422 4.337-11.97 12.705-20.209 30.99-24.717 54.855-2.21 10.495-2.596 19.778-1.161 27.847 3.43 18.744 16.926 30.874 40.487 36.392 1.691.504 3.43.939 5.217 1.304a103.313 103.313 0 0 0 30.137 1.957 128.078 128.078 0 0 0 31.24-6.9l.11-.053c2.3-.808 4.41-1.608 6.333-2.4 20.917-10.26 31.834-23.63 32.752-40.108 1.078-20.74-7.898-43.805-26.928-69.196a60.3 60.3 0 0 0-10.057-10.676 50.567 50.567 0 0 0-3.776-2.804 52.71 52.71 0 0 0-20.837-8.974 39.194 39.194 0 0 0-5.041-.809 60.25 60.25 0 0 0-11.087-.052A71.768 71.768 0 0 0 56.2 63.76h-.111a59.093 59.093 0 0 0-5.68 1.996z" stroke="#0C0C0C" stroke-width="3" stroke-linecap="round" stroke-linejoin="round"/><path d="M119.428 76.863v-.039c-.174-.122-2.659-1.284-7.454-3.489-5.218-2.404-12.005-6.957-20.361-13.656v-.046l-1.35 2.609a63.875 63.875 0 0 0 8.113 7.767 43.977 43.977 0 0 0 6.254 4.037 73.168 73.168 0 0 0 5.765 2.772 40.327 40.327 0 0 0 5.029 1.813l2.321.652 1.683-2.42z" fill="#FC0"/><path d="M129.798 62.613l-9.718 1.39-3.77.587v-.085l.072-13.37-12.267 5.824-.15-.04-2.146-6.488-2.178-6.457L92.2 58.498v.078l-.561 1.077v.045c8.348 6.7 15.135 11.252 20.36 13.657 4.783 2.2 7.268 3.363 7.455 3.489l10.344-14.23z" fill="#FFDF00"/><path d="M120.08 64.003l-3.809.495m.053-.032l.574-14.218-12.796 6.705-2.283-6.522m17.674 26.439l-1.722 2.367-2.321-.652a40.327 40.327 0 0 1-5.029-1.813 78.12 78.12 0 0 1-5.745-2.746 45.823 45.823 0 0 1-6.255-4.036 64.769 64.769 0 0 1-8.126-7.787l1.35-2.61m10.174-9.156l-2.178-6.456L92.2 58.498v.078l-.561 1.077m27.835 17.197l10.324-14.237-9.718 1.396" stroke="#000" stroke-width="3" stroke-linecap="round" stroke-linejoin="round"/><path d="M99.889 39.761a3.912 3.912 0 0 0-2.902 1.011 4.062 4.062 0 0 0-1.402 2.778 3.914 3.914 0 0 0 .997 2.942 4.07 4.07 0 0 0 5.68.391 3.912 3.912 0 0 0 1.436-2.765 4.174 4.174 0 0 0-3.816-4.35l.007-.007zm17.51 5.863a3.912 3.912 0 0 0-2.901 1.011 4.062 4.062 0 0 0-1.403 2.778 3.914 3.914 0 0 0 .998 2.942 4.07 4.07 0 0 0 5.68.391 3.912 3.912 0 0 0 1.435-2.765 4.174 4.174 0 0 0-3.815-4.35l.007-.007zM133.438 65.9a3.912 3.912 0 0 0 1.434-2.765 4.174 4.174 0 0 0-3.815-4.35 3.912 3.912 0 0 0-2.902 1.011 4.062 4.062 0 0 0-1.402 2.778 3.914 3.914 0 0 0 .998 2.942 4.07 4.07 0 0 0 5.68.39l.007-.006z" fill="#FFF"/><path d="M134.878 63.116a3.912 3.912 0 0 1-1.435 2.765 4.07 4.07 0 0 1-5.68-.392 3.914 3.914 0 0 1-.998-2.94 4.062 4.062 0 0 1 1.402-2.78 3.912 3.912 0 0 1 2.902-1.01 4.174 4.174 0 0 1 3.816 4.35l-.007.007zm-13.65-13.168a3.912 3.912 0 0 1-1.435 2.765 4.07 4.07 0 0 1-5.68-.39 3.914 3.914 0 0 1-.998-2.942 4.062 4.062 0 0 1 1.402-2.778 3.912 3.912 0 0 1 2.902-1.011 4.174 4.174 0 0 1 3.816 4.35l-.007.006zm-17.504-5.87a3.912 3.912 0 0 1-1.435 2.766 4.07 4.07 0 0 1-5.68-.391 3.914 3.914 0 0 1-.998-2.942 4.062 4.062 0 0 1 1.402-2.778 3.912 3.912 0 0 1 2.902-1.01 4.174 4.174 0 0 1 3.815 4.35l-.006.006z" stroke="#000" stroke-width="3" stroke-linecap="round" stroke-linejoin="round"/><path d="M69.863 191.183a3.912 3.912 0 0 0-2.935.26c-1.087.457-2.13.914-3.13 1.37a2.16 2.16 0 0 1-1.5.36c-.196-.066-.478-.36-.848-.881a4.016 4.016 0 0 0-1.598-1.598 1.957 1.957 0 0 0-1.076-.163 1.732 1.732 0 0 0-1.011.456 1.813 1.813 0 0 0-.26 2.022c.281.587.597 1.196.945 1.826l-5.544 3.75c-1.304.87-2.63 1.75-3.978 2.641a3.58 3.58 0 0 0-1.891 3.36 5.708 5.708 0 0 0 1.467 3.488 3.985 3.985 0 0 0 3.098 1.435 7.446 7.446 0 0 0 3.717-1.109 36.36 36.36 0 0 0 3.62-2.445 17.332 17.332 0 0 1 4.01-2.316c1.04-.406 2.034-.92 2.968-1.532a5.005 5.005 0 0 0 1.207-1.5c.34-.733.475-1.544.391-2.348a4.21 4.21 0 0 0-.717-2.152 13.38 13.38 0 0 0 3.456-1.533 2.198 2.198 0 0 0 .913-1.858 1.682 1.682 0 0 0-1.304-1.533" fill="#FFF"/><path d="M58.482 194.803c-.347-.631-.663-1.24-.945-1.827a1.813 1.813 0 0 1 .26-2.021c.278-.26.634-.42 1.011-.457.368-.048.74.008 1.077.163.674.369 1.229.924 1.597 1.598.37.522.653.815.848.88a2.16 2.16 0 0 0 1.5-.358c1-.457 2.043-.913 3.13-1.37a3.912 3.912 0 0 1 2.935-.26c.737.169 1.27.809 1.305 1.565a2.198 2.198 0 0 1-.913 1.858 13.38 13.38 0 0 1-3.457 1.533 4.21 4.21 0 0 1 .718 2.152 4.469 4.469 0 0 1-.392 2.348 5.005 5.005 0 0 1-1.206 1.5 16.179 16.179 0 0 1-2.968 1.532 17.332 17.332 0 0 0-4.01 2.316 36.36 36.36 0 0 1-3.62 2.445 7.446 7.446 0 0 1-3.717 1.11 3.985 3.985 0 0 1-3.098-1.436 5.704 5.704 0 0 1-1.5-3.489 3.58 3.58 0 0 1 1.858-3.391c1.305-.892 2.63-1.772 3.979-2.641l5.608-3.75z" stroke="#000" stroke-width="3" stroke-linecap="round" stroke-linejoin="round"/><path d="M56.493 195.813a1.403 1.403 0 0 0-1.435-.293 26.45 26.45 0 0 0-2.739 1.598c-1.413.87-3.37 2.185-5.87 3.945-2.499 1.761-3.956 3.022-4.369 3.783a7.042 7.042 0 0 0-.815 2.674 6.256 6.256 0 0 0 .554 3.26 5.487 5.487 0 0 0 2.707 2.675 5.12 5.12 0 0 0 4.272.098 57.434 57.434 0 0 0 4.37-1.957 50.508 50.508 0 0 0 4.434-2.609 25.413 25.413 0 0 0 3.359-2.543 2.758 2.758 0 0 0 1.076-1.859c0-.522-.435-1.435-1.305-2.739l-2.739-4.435a5.053 5.053 0 0 0-1.5-1.598" fill="#312B66"/><path d="M44.526 213.487a5.487 5.487 0 0 1-2.707-2.674 6.263 6.263 0 0 1-.554-3.26c.09-.937.368-1.847.815-2.674.37-.74 1.826-2 4.37-3.783 2.543-1.782 4.5-3.098 5.87-3.946a26.45 26.45 0 0 1 2.738-1.597 1.403 1.403 0 0 1 1.435.293 5.053 5.053 0 0 1 1.5 1.598l2.674 4.467c.913 1.305 1.348 2.218 1.304 2.74a2.757 2.757 0 0 1-1.043 1.793c-1.047.939-2.17 1.79-3.359 2.543a50.508 50.508 0 0 1-4.434 2.609 44.358 44.358 0 0 1-4.37 1.957 5.118 5.118 0 0 1-4.24-.066z" stroke="#000" stroke-width="3" stroke-linecap="round" stroke-linejoin="round"/><path d="M58.124 183.487h.156a5.618 5.618 0 0 0 2.068 2.387 5.866 5.866 0 0 0 2.993 1.05 5.743 5.743 0 0 0 3.091-.698 5.654 5.654 0 0 0 2.329-2.132.997.997 0 0 0 .189-.652.652.652 0 0 0-.444-.509 6.8 6.8 0 0 0-.795-.254 3.667 3.667 0 0 1-1.116-.653 7.15 7.15 0 0 0-1.115-.73c-1.017-.435-2.28-.254-3.789.541l-1.722.959a5.96 5.96 0 0 1-1.845.691" fill="#CA3538"/><path d="M65.663 181.576a.92.92 0 0 0-.574-.73 2.466 2.466 0 0 0-1.304-.32h-.222a2.466 2.466 0 0 0-1.305.32c-.36.213-.53.457-.508.73a.914.914 0 0 0 .287.763 2.608 2.608 0 0 0 1.558.32h.19a2.84 2.84 0 0 0 1.689-.32c.14-.228.206-.494.189-.763" fill="#FFF"/><path d="M56.082 181.596c1.952 1.208 3.65 1.208 5.094 0a3.953 3.953 0 0 1 2.517-1.115 4.14 4.14 0 0 1 2.518 1.115c1.4 1.187 3.089 1.187 5.067 0" stroke="#0C0C0C" stroke-width="2" stroke-linecap="round" stroke-linejoin="round"/><path d="M70.124 182.17c-.383.552-.998 1.583-1.846 3.091-1.039 1.23-2.561 1.846-4.565 1.846a5.78 5.78 0 0 1-4.461-1.722 914.036 914.036 0 0 1-1.957-3.15" stroke="#000" stroke-width="2"/><path fill="#FDBB2A" d="M64.515 216.26h2.087v-2.838h-2.087z"/><path d="M64.221 208.433l1.337 4.99m.62 0l2.25-5.642M64.71 216.324h2.12v-2.87h-2.12z" stroke="#000" stroke-linecap="round" stroke-linejoin="round"/><path d="M66.06 153.448a17.973 17.973 0 0 0-9.13-1.735 16.304 16.304 0 0 0-9.13 3.13c-3 2.218-4.335 5.001-4.005 8.349.331 3.347 2.203 5.66 5.616 6.939a20.09 20.09 0 0 0 9.45 1.056c3.565-.352 6.443-1.282 8.634-2.791a8.009 8.009 0 0 0 3.633-7.728c-.292-3.248-1.98-5.655-5.067-7.22" fill="#FDADA3"/><path d="M71.076 160.635a8.009 8.009 0 0 1-3.633 7.728c-2.173 1.513-5.052 2.444-8.635 2.792a20.09 20.09 0 0 1-9.45-1.057c-3.417-1.356-5.278-3.667-5.582-6.932-.305-3.266 1.03-6.048 4.004-8.348a16.303 16.303 0 0 1 9.13-3.137 17.973 17.973 0 0 1 9.131 1.735c3.078 1.57 4.756 3.976 5.035 7.22z" stroke="#020202" stroke-width="2"/><path d="M51.341 161.066l.117 1.304m8.74-2.133l.117 1.305M32.591 147.813l-7.043 2.87m.228-6.946l6.815 3.555" stroke="#000" stroke-width="3" stroke-linecap="round" stroke-linejoin="round"/><path d="M103.489 140.737a4.155 4.155 0 0 0-1.454-2.837 3.913 3.913 0 0 0-5.668.548 4.37 4.37 0 0 0 .574 5.928 3.913 3.913 0 0 0 5.667-.547 4.193 4.193 0 0 0 .88-3.092" fill="#000"/><path d="M92.448 113.894c1.739-2.609 4-3.185 6.782-1.728M36.25 130.394c-3.096.574-5.076-.637-5.942-3.633" stroke="#0C0C0C" stroke-width="2" stroke-linecap="round" stroke-linejoin="round"/><path d="M108.993 146.51a26.196 26.196 0 0 0-9.391 2.575c-2.544 1.391-3.761 2.848-3.652 4.37.109 1.521 1.51 2.663 4.206 3.424a24.78 24.78 0 0 0 9.62.62 26.805 26.805 0 0 0 9.391-2.61c2.544-1.304 3.761-2.739 3.652-4.304-.109-1.565-1.51-2.717-4.206-3.456a26.972 26.972 0 0 0-9.555-.587l-.065-.033zm-76.956 16.108c1.87-1.022 2.793-2.25 2.771-3.685-.086-1.348-1.13-2.478-3.13-3.391a17.726 17.726 0 0 0-14.12.456c-1.847 1.065-2.739 2.294-2.673 3.685.065 1.391 1.108 2.522 3.13 3.391a17.85 17.85 0 0 0 14.022-.456z" fill="#FEBBBC"/></g></svg>