<?xml version="1.0" encoding="UTF-8" standalone="no"?>
<svg width="154px" height="233px" viewBox="0 0 154 233" version="1.1" xmlns="http://www.w3.org/2000/svg" xmlns:xlink="http://www.w3.org/1999/xlink">
    <!-- Generator: Sketch 41 (35326) - http://www.bohemiancoding.com/sketch -->
    <title>pr-idol</title>
    <desc>Created with Sketch.</desc>
    <defs></defs>
    <g id="Symbols" stroke="none" stroke-width="1" fill="none" fill-rule="evenodd">
        <g id="component/artwork/plan/mva/idol/card" transform="translate(-20.000000, -18.000000)">
            <g id="component/artwork/plan/idol/card">
                <g id="pig-rabbit">
                    <g id="pr-idol" transform="translate(22.000000, 19.000000)">
                        <path d="M81.8230667,220.194 L80.9897333,229.027333 M83.3230667,219.127333 L81.9897333,229.027333 M68.3230667,219.027333 L68.3230667,229.860667 M69.2897333,219.527333 L69.2897333,229.527333" id="Stroke-1" stroke="#000000" stroke-width="3" stroke-linecap="round" stroke-linejoin="round"></path>
                        <g id="Group-152" transform="translate(0.000000, 0.034667)">
                            <path d="M52.9897333,207.092667 C51.4697333,206.941333 49.9497333,208.052667 48.4297333,210.426 C46.9097333,212.799333 45.6717333,216.837333 44.7164,222.539333 C43.7830667,228.228 43.7830667,232.179333 44.7164,234.392667 C45.6497333,236.606 47.0497333,237.584 48.9164,237.326 C50.7164,237.064 51.9964,235.730667 52.7564,233.326 C53.7464,230.011333 54.4164,226.608667 54.7564,223.166 C55.2697333,219.456 55.4770667,215.71 55.3764,211.966 C55.3277333,208.824 54.5317333,207.199333 52.9897333,207.092667" id="Fill-26" fill="#FFFFFF"></path>
                            <path d="M44.7230667,222.566 C43.7897333,228.254667 43.7897333,232.206 44.7230667,234.419333 C45.6564,236.632667 47.0564,237.610667 48.9230667,237.352667 C50.7230667,237.090667 52.0030667,235.757333 52.7630667,233.352667 C53.7530667,230.038 54.4230667,226.635333 54.7630667,223.192667 C55.2764,219.482667 55.4837333,215.736667 55.3830667,211.992667 C55.3164,208.801333 54.5230667,207.164 53.0030667,207.079333 C51.4830667,206.994667 49.9630667,208.106 48.4430667,210.412667 C46.9410667,212.830667 45.7010667,216.881333 44.7230667,222.566 Z" id="Stroke-28" stroke="#000000" stroke-width="3"></path>
                            <path d="M106.7764,222.586 C105.821067,216.834667 104.5944,212.797333 103.0964,210.472667 C101.5984,208.064 100.0784,206.952667 98.5364,207.139333 C97.0610667,207.228 96.2677333,208.866 96.1564,212.052667 C96.0557333,215.796667 96.2630667,219.542667 96.7764,223.252667 C97.1450667,226.691333 97.8144,230.090667 98.7764,233.412667 C99.5364,235.799333 100.827733,237.132667 102.649733,237.412667 C104.471733,237.692667 105.849733,236.714667 106.783067,234.479333 C107.751733,232.221333 107.749733,228.257333 106.7764,222.586" id="Fill-30" fill="#FFFFFF"></path>
                            <path d="M106.749733,222.566 C107.727733,228.254667 107.727733,232.206 106.749733,234.419333 C105.771733,236.632667 104.3944,237.610667 102.6164,237.352667 C100.7944,237.090667 99.5030667,235.757333 98.7430667,233.352667 C97.7810667,230.030667 97.1117333,226.631333 96.7430667,223.192667 C96.2297333,219.482667 96.0224,215.736667 96.1230667,211.992667 C96.2297333,208.801333 97.0230667,207.164 98.5030667,207.079333 C100.045067,206.906 101.565067,208.017333 103.063067,210.412667 C104.565067,212.764 105.7944,216.814667 106.749733,222.566 Z" id="Stroke-32" stroke="#000000" stroke-width="3"></path>
                            <path d="M103.589733,210.826 C101.8784,207.714667 99.0564,204.548 95.1230667,201.326 C91.9957333,198.581333 88.4657333,196.333333 84.6564,194.659333 C81.8824,193.522667 78.9204,192.912667 75.9230667,192.859333 C75.3104,192.86 74.6984,192.893333 74.0897333,192.959333 C73.5864,192.983333 73.0857333,193.038667 72.5897333,193.126 C69.5797333,193.580667 66.6704,194.550667 63.9897333,195.992667 C60.9310667,197.6 58.0777333,199.57 55.4897333,201.859333 C52.6990667,204.195333 50.2630667,206.923333 48.2564,209.959333 C46.2250667,213.363333 44.7717333,217.08 43.9564,220.959333 L52.2564,225.259333 C52.3677333,224.504 52.5230667,223.670667 52.7230667,222.759333 C53.0430667,221.010667 53.5804,219.308 54.3230667,217.692667 C53.5804,219.308 53.0430667,221.010667 52.7230667,222.759333 C52.5230667,223.670667 52.3677333,224.504 52.2564,225.259333 C52.2104,225.423333 52.1770667,225.590667 52.1564,225.759333 L52.2230667,225.526 C51.9784,232.348 52.7677333,237.959333 54.5897333,242.359333 C68.6817333,243.181333 82.8124,243.07 96.8897333,242.026 C98.4230667,237.537333 99.1344,231.948 99.0230667,225.259333 C98.9117333,224.370667 98.7344,223.370667 98.4897333,222.259333 C98.1617333,220.493333 97.6017333,218.778 96.8230667,217.159333 C97.6017333,218.778 98.1617333,220.493333 98.4897333,222.259333 C98.7344,223.370667 98.9117333,224.370667 99.0230667,225.259333 L107.2564,220.959333 C106.5344,217.420667 105.299067,214.007333 103.589733,210.826" id="Fill-34" fill="#FFFFFF"></path>
                            <path d="M52.1564,225.759333 C52.1770667,225.590667 52.2104,225.423333 52.2564,225.259333 M52.2230667,225.526 C51.9784,232.348 52.7677333,237.959333 54.5897333,242.359333 C68.6817333,243.181333 82.8124,243.07 96.8897333,242.026 C98.4230667,237.537333 99.1344,231.948 99.0230667,225.259333 C98.9117333,224.370667 98.7344,223.370667 98.4897333,222.259333 C98.1617333,220.493333 97.6017333,218.778 96.8230667,217.159333 M98.9897333,225.259333 L107.223067,220.959333 C106.501067,217.420667 105.265733,214.007333 103.5564,210.826 C101.845067,207.714667 99.0230667,204.548 95.0897333,201.326 C91.9624,198.581333 88.4324,196.333333 84.6230667,194.659333 C81.8484,193.522667 78.8870667,192.912667 75.8897333,192.859333 C75.2770667,192.86 74.6650667,192.893333 74.0564,192.959333 C73.5530667,192.983333 73.0524,193.038667 72.5564,193.126 C69.5464,193.580667 66.6370667,194.55 63.9564,195.992667 C60.8977333,197.6 58.0444,199.57 55.4564,201.859333 C52.6777333,204.197333 50.2524,206.926 48.2564,209.959333 C46.2250667,213.363333 44.7717333,217.08 43.9564,220.959333 L52.2564,225.259333 C52.3677333,224.504 52.5230667,223.670667 52.7230667,222.759333 C53.0430667,221.010667 53.5804,219.308 54.3230667,217.692667" id="Stroke-36" stroke="#000000" stroke-width="3" stroke-linecap="round" stroke-linejoin="round"></path>
                            <path d="M85.4230667,215.026 L85.1897333,215.059333 C84.8884,215.063333 84.5990667,214.942667 84.3897333,214.726 C84.1884,214.522667 84.0797333,214.245333 84.0897333,213.959333 C84.0884,213.674667 84.1957333,213.400667 84.3897333,213.192667 C84.6084,212.994 84.8944,212.886667 85.1897333,212.892667 C85.4650667,212.887333 85.7304,212.996 85.9230667,213.192667 C86.1350667,213.391333 86.2557333,213.668667 86.2564,213.959333 C86.2644,214.251333 86.1424,214.532667 85.9230667,214.726 C85.8230667,214.828 85.7110667,214.918 85.5897333,214.992667 C85.5457333,214.982667 85.5004,214.982667 85.4564,214.992667 L85.4230667,215.026 Z M66.7564,215.559333 C66.7197333,215.542667 66.6864,215.52 66.6564,215.492667 C66.5704,215.45 66.4910667,215.394 66.4230667,215.326 C66.2190667,215.138 66.1090667,214.869333 66.1230667,214.592667 C66.1130667,214.306667 66.2217333,214.029333 66.4230667,213.826 C66.6310667,213.632 66.9050667,213.524667 67.1897333,213.526 C67.4757333,213.516 67.7530667,213.624667 67.9564,213.826 C68.1757333,214.019333 68.2977333,214.3 68.2897333,214.592667 C68.2490667,215.064 67.9357333,215.468 67.4897333,215.626 C67.3904,215.644667 67.2904,215.656 67.1897333,215.659333 C67.0397333,215.660667 66.8910667,215.626667 66.7564,215.559333 Z" id="Stroke-38" stroke="#FFFFFF" stroke-linecap="round" stroke-linejoin="round"></path>
                            <path d="M83.9230667,227.426 C85.9450667,224.559333 86.4450667,220.426 85.4230667,215.026 C85.3784,214.737333 85.3230667,214.448 85.2564,214.159333 M67.1230667,214.692667 C66.9897333,214.981333 66.8677333,215.270667 66.7564,215.559333 M66.7564,215.559333 C66.5297333,216.395333 66.4844,217.270667 66.6230667,218.126 C66.7337333,218.628 66.8897333,219.119333 67.0897333,219.592667 C67.1717333,219.797333 67.2844,219.988 67.4230667,220.159333 C69.4230667,223.826 69.7564,226.248 68.4230667,227.426" id="Stroke-40" stroke="#FFFFFF" stroke-linecap="round" stroke-linejoin="round"></path>
                            <path d="M92.4230667,221.492667 L98.8230667,224.959333 L92.4230667,221.492667 Z M98.7230667,211.359333 L100.1564,198.292667 L93.3230667,194.292667 L89.3897333,196.759333 L94.9897333,205.759333 L85.4897333,207.092667 L91.2564,211.492667 L80.5897333,220.726 L79.9230667,229.892667 C86.6204,230.758 93.3890667,230.936667 100.123067,230.426 L98.7230667,211.359333 L98.7230667,211.359333 Z M58.8230667,221.759333 L52.6564,224.959333 L58.8230667,221.759333 L58.8230667,221.759333 Z M58.4564,194.159333 L51.6230667,198.159333 L53.0564,211.226 L51.6564,230.292667 C58.0257333,230.759333 64.4204,230.759333 70.7897333,230.292667 L71.2230667,220.592667 L60.5230667,211.359333 L66.2897333,206.959333 L56.7897333,205.626 L62.4230667,196.626 L58.4564,194.159333 L58.4564,194.159333 Z" id="Fill-42" fill="#8AECED"></path>
                            <path d="M94.9897333,205.759333 L89.3897333,196.759333 L84.3230667,199.892667 C83.7450667,201.959333 83.2230667,204.004 82.7564,206.026 C81.6564,210.862667 80.9324,215.777333 80.5897333,220.726 L91.2564,211.492667 L85.4897333,207.092667 L94.9897333,205.759333 Z M69.0897333,206.026 C68.6230667,203.959333 68.0897333,201.870667 67.4897333,199.759333 L62.4230667,196.626 L56.7897333,205.626 L66.2897333,206.959333 L60.5230667,211.359333 L71.2230667,220.592667 C70.9030667,215.688 70.1890667,210.816667 69.0897333,206.026 L69.0897333,206.026 Z" id="Fill-44" fill="#000000"></path>
                            <path d="M62.4230667,196.625933 L56.7897333,205.625933 L66.2897333,206.959267 L60.5230667,211.359267 L71.2230667,220.5926 M58.8230667,221.759267 L52.6564,224.959267 M84.2897333,199.8926 C83.7117333,201.959267 83.1897333,204.003933 82.7230667,206.025933 M63.8564,197.325933 L62.4564,196.525933 L62.4230667,196.625933 M92.4897333,221.4926 L98.8897333,224.959267 M84.3230667,199.8926 L87.9564,197.459267 L89.2897333,196.559267 L89.3897333,196.659267 L87.9897333,197.459267 M93.3230667,194.2926 L89.3230667,196.659267 L89.3897333,196.759267 M89.4230667,196.759267 L94.9897333,205.759267 L85.4897333,207.0926 L91.2564,211.4926 L80.5897333,220.725933 M93.3230667,194.2926 L100.1564,198.2926 L98.7230667,211.359267 L100.123067,230.425933 C93.3890667,230.9366 86.6204,230.757933 79.9230667,229.8926 L80.5897333,220.725933 C80.9324,215.777267 81.6564,210.8626 82.7564,206.025933 C77.8677333,209.581267 73.3230667,209.581267 69.1230667,206.025933 C70.2224,210.8166 70.9364,215.687933 71.2564,220.5926 L70.8230667,230.2926 C64.4537333,230.759267 58.0590667,230.759267 51.6897333,230.2926 L53.0897333,211.225933 L51.6564,198.159267 L58.4897333,194.159267 L62.4897333,196.525933 L62.5897333,196.425933 L63.8897333,197.325933 L67.5230667,199.759267 C68.1230667,201.8706 68.6564,203.959267 69.1230667,206.025933" id="Stroke-46" stroke="#000000" stroke-width="3" stroke-linecap="round" stroke-linejoin="round"></path>
                            <path d="M87.6564,212.926 C87.8750667,212.692667 87.9837333,212.378 87.9564,212.059333 C87.9257333,211.726667 87.7710667,211.417333 87.5230667,211.192667 C87.2797333,210.961333 86.9584,210.830667 86.6230667,210.826 C86.2944,210.815333 85.9777333,210.949333 85.7564,211.192667 C85.5324,211.421333 85.4330667,211.744 85.4897333,212.059333 C85.5117333,212.388 85.6537333,212.696667 85.8897333,212.926 C86.1330667,213.157333 86.4544,213.288 86.7897333,213.292667 C87.1184,213.303333 87.4350667,213.169333 87.6564,212.926" id="Fill-48" fill="#FFFFFF"></path>
                            <path d="M65.3564,212.259333 C65.5750667,212.026 65.6837333,211.711333 65.6564,211.392667 C65.6257333,211.06 65.4710667,210.750667 65.2230667,210.526 C64.9797333,210.294667 64.6584,210.164 64.3230667,210.159333 C63.9944,210.148667 63.6777333,210.282667 63.4564,210.526 C63.2324,210.754667 63.1330667,211.077333 63.1897333,211.392667 C63.2117333,211.721333 63.3537333,212.03 63.5897333,212.259333 C63.8330667,212.490667 64.1544,212.621333 64.4897333,212.626 C64.8184,212.636667 65.1350667,212.502667 65.3564,212.259333" id="Fill-50" fill="#FFFFFF"></path>
                            <path d="M121.183067,22.186 C120.8184,16.7526667 118.757067,11.5713333 115.289733,7.37266667 C111.427733,2.75066667 105.9364,0.514666667 98.8164,0.666 C91.6964,0.817333333 86.3030667,3.45466667 82.6364,8.57933333 C78.9697333,13.6593333 76.6250667,19.944 75.6030667,27.4326667 C75.1050667,31.2106667 75.7564,34.1726667 77.5564,36.3193333 C79.3564,38.466 82.2784,39.7346667 86.3230667,40.126 C87.4657333,40.1766667 88.6104,40.1233333 89.7430667,39.966 C90.9097333,39.91 92.0564,39.646 93.1297333,39.186 C93.5430667,38.946 93.3210667,39.8146667 92.4630667,41.7926667 C91.8764,43.1613333 91.2784,44.4213333 90.6697333,45.5726667 C88.4777333,49.9733333 85.8130667,54.122 82.7230667,57.946 C81.4397333,59.4266667 80.3217333,61.0426667 79.3897333,62.766 L77.9897333,66.966 C77.8610667,67.726 77.7630667,68.5393333 77.6964,69.406 C77.5897333,71.6733333 78.2990667,73.904 79.6964,75.6926667 C79.7977333,75.7806667 79.8757333,75.8933333 79.9230667,76.0193333 C81.5944,78.2413333 83.1250667,79.686 84.5164,80.3526667 C85.9917333,80.984 87.9030667,80.7126667 90.2497333,79.5393333 C92.0537333,78.7893333 93.7330667,77.7686667 95.2297333,76.5126667 L97.0230667,74.9526667 C99.2530667,72.7706667 101.3604,70.4673333 103.3364,68.0526667 C107.345067,63.3553333 110.797067,58.21 113.623067,52.7193333 C115.9044,48.08 117.7884,43.256 119.2564,38.2993333 C120.9024,33.0966667 121.555733,27.6306667 121.183067,22.186" id="Fill-52" fill="#FFFFFF"></path>
                            <path d="M78.0030667,66.9393333 C77.8744,67.6993333 77.7764,68.5126667 77.7097333,69.3793333 C77.6030667,71.6466667 78.3124,73.8773333 79.7097333,75.666 C79.8110667,75.754 79.8890667,75.8666667 79.9364,75.9926667 C81.6077333,78.2146667 83.1384,79.6593333 84.5297333,80.326 C86.0050667,80.9573333 87.9164,80.686 90.2630667,79.5126667 C92.0670667,78.7626667 93.7464,77.742 95.2430667,76.486 L97.0364,74.926 C99.2664,72.744 101.373733,70.4406667 103.349733,68.026 C107.3584,63.3286667 110.8104,58.1833333 113.6364,52.6926667 C115.917733,48.0533333 117.801733,43.2293333 119.269733,38.2726667 C120.913733,33.0693333 121.565067,27.6033333 121.189733,22.1593333 C120.825067,16.726 118.763733,11.5446667 115.2964,7.346 C111.4344,2.724 105.943067,0.488 98.8230667,0.639333333 C91.7030667,0.790666667 86.3097333,3.428 82.6430667,8.55266667 C78.9764,13.6326667 76.6317333,19.9173333 75.6097333,27.406 C75.1117333,31.184 75.7630667,34.146 77.5630667,36.2926667 C79.3630667,38.4393333 82.2830667,39.7126667 86.3230667,40.1126667 C87.4657333,40.1633333 88.6104,40.11 89.7430667,39.9526667 C90.9097333,39.8966667 92.0564,39.6326667 93.1297333,39.1726667 C93.5430667,38.9326667 93.3210667,39.8013333 92.4630667,41.7793333 C91.8764,43.148 91.2784,44.408 90.6697333,45.5593333 C88.4777333,49.96 85.8130667,54.1086667 82.7230667,57.9326667 C81.4397333,59.4133333 80.3217333,61.0293333 79.3897333,62.7526667 L78.0030667,66.9393333 Z" id="Stroke-54" stroke="#0C0C0C" stroke-width="3" stroke-linecap="round" stroke-linejoin="round"></path>
                            <path d="M103.309733,27.626 C101.789733,30.146 100.649733,31.9906667 99.8897333,33.1593333 C99.0970667,34.3186667 98.1930667,35.3966667 97.1897333,36.3793333 C97.1010667,36.486 97.0477333,36.5193333 97.0297333,36.4793333 C97.0030667,36.4193333 96.9764,36.546 96.9297333,36.6726667 C95.5384,40.3613333 94.7784,42.326 94.6497333,42.566 C92.6544,46.5393333 91.1897333,49.3506667 90.2564,50.9993333 C88.6724,53.728 86.9130667,56.3513333 84.9897333,58.8526667 C82.7484,61.71 80.3230667,64.418 77.7297333,66.9593333 L77.4364,69.3993333 C77.3350667,71.666 78.0437333,73.8946667 79.4364,75.686 C86.9724,69.5113333 93.3264,62.0213333 98.1897333,53.5793333 C103.123067,45.2546667 105.849733,38.004 106.369733,31.826 C106.609733,29.0926667 106.2744,26.9546667 105.363067,25.4126667 C104.547733,26.0173333 103.851733,26.768 103.309733,27.626" id="Fill-56" fill="#FDADA3"></path>
                            <path d="M102.423067,28.0326667 C102.965067,27.1746667 103.661067,26.424 104.4764,25.8193333" id="Stroke-58" stroke="#0C0C0C" stroke-width="4" stroke-linecap="round" stroke-linejoin="round"></path>
                            <path d="M98.9897333,33.566 C99.9897333,32.046 101.129733,30.2013333 102.409733,28.0326667" id="Stroke-60" stroke="#0C0C0C" stroke-width="4" stroke-linecap="round" stroke-linejoin="round"></path>
                            <path d="M96.3230667,36.7926667 C97.3277333,35.8206667 98.2217333,34.7406667 98.9897333,33.5726667" id="Stroke-62" stroke="#0C0C0C" stroke-width="4" stroke-linecap="round" stroke-linejoin="round"></path>
                            <path d="M92.1030667,39.4593333 C93.6577333,38.822 95.0904,37.92 96.3364,36.7926667" id="Stroke-64" stroke="#0C0C0C" stroke-width="4" stroke-linecap="round" stroke-linejoin="round"></path>
                            <path d="M104.4764,25.8193333 C105.043067,25.394 105.699733,25.104 106.3964,24.9726667" id="Stroke-66" stroke="#0C0C0C" stroke-width="4" stroke-linecap="round" stroke-linejoin="round"></path>
                            <path d="M33.6564,7.37266667 C30.1890667,11.5713333 28.1277333,16.7526667 27.7630667,22.186 C27.3877333,27.63 28.0390667,33.096 29.6830667,38.2993333 C31.1364,43.2613333 33.0217333,48.086 35.3164,52.7193333 C38.1424,58.21 41.5944,63.3553333 45.6030667,68.0526667 C47.5724,70.4646667 49.6710667,72.768 51.8897333,74.9526667 C52.5184,75.4366667 53.1170667,75.9573333 53.6830667,76.5126667 C55.2030667,77.7526667 56.8910667,78.772 58.6964,79.5393333 C61.0384,80.7126667 62.9384,80.984 64.3964,80.3526667 C65.8544,79.7213333 67.3944,78.2773333 69.0164,76.0193333 C69.0797333,75.9026667 69.1557333,75.7926667 69.2430667,75.6926667 C70.6597333,73.914 71.3717333,71.676 71.2430667,69.406 L70.9497333,66.966 L69.5497333,62.766 C68.6164,61.0433333 67.4984,59.4273333 66.2164,57.946 C63.1544,54.1086667 60.5017333,49.962 58.3030667,45.5726667 C57.7164,44.4213333 57.1184,43.1613333 56.5097333,41.7926667 C55.6210667,39.8193333 55.3984,38.9506667 55.8430667,39.186 C56.9144,39.6513333 58.0624,39.916 59.2297333,39.966 C60.3510667,40.1226667 61.4850667,40.1766667 62.6164,40.126 C66.6744,39.7346667 69.6144,38.466 71.4364,36.3193333 C73.2584,34.1726667 73.8984,31.2106667 73.3564,27.4326667 C72.3784,19.966 70.0450667,13.6813333 66.3564,8.57933333 C62.6677333,3.47733333 57.2630667,0.839333333 50.1430667,0.666 C43.0230667,0.506 37.5277333,2.74133333 33.6564,7.37266667" id="Fill-68" fill="#FFFFFF"></path>
                            <path d="M70.9364,66.9393333 L69.5364,62.7393333 C68.6030667,61.0166667 67.4850667,59.4006667 66.2030667,57.9193333 C63.1410667,54.082 60.4884,49.9353333 58.2897333,45.546 C57.7030667,44.3946667 57.1050667,43.1346667 56.4964,41.766 C55.6077333,39.7926667 55.3850667,38.924 55.8297333,39.1593333 C56.9010667,39.6246667 58.0490667,39.8893333 59.2164,39.9393333 C60.3377333,40.096 61.4717333,40.15 62.6030667,40.0993333 C66.6610667,39.708 69.6010667,38.4393333 71.4230667,36.2926667 C73.2450667,34.146 73.8850667,31.184 73.3430667,27.406 C72.3650667,19.9393333 70.0317333,13.6546667 66.3430667,8.55266667 C62.6544,3.45066667 57.2497333,0.812666667 50.1297333,0.639333333 C43.0144,0.497333333 37.5230667,2.73733333 33.6564,7.35933333 C30.1890667,11.558 28.1277333,16.7393333 27.7630667,22.1726667 C27.3784,27.6173333 28.0210667,33.0853333 29.6564,38.2926667 C31.1097333,43.2546667 32.9950667,48.0793333 35.2897333,52.7126667 C38.1157333,58.2033333 41.5677333,63.3486667 45.5764,68.046 C47.5457333,70.458 49.6444,72.7613333 51.8630667,74.946 C52.4917333,75.43 53.0904,75.9506667 53.6564,76.506 C55.1764,77.746 56.8644,78.7653333 58.6697333,79.5326667 C61.0117333,80.706 62.9117333,80.9773333 64.3697333,80.346 C65.8277333,79.7146667 67.3677333,78.2706667 68.9897333,76.0126667 C69.0530667,75.896 69.1290667,75.786 69.2164,75.686 C70.6330667,73.9073333 71.3444,71.6693333 71.2164,69.3993333 L70.9364,66.9393333 Z" id="Stroke-70" stroke="#0C0C0C" stroke-width="3" stroke-linecap="round" stroke-linejoin="round"></path>
                            <path d="M43.5964,25.4126667 C42.6850667,26.9546667 42.3497333,29.0926667 42.5897333,31.826 C43.1097333,37.9906667 45.8344,45.2393333 50.7630667,53.5726667 C55.6264,62.0146667 61.9804,69.5046667 69.5164,75.6793333 C70.9090667,73.888 71.6177333,71.6593333 71.5164,69.3926667 L71.2230667,66.9526667 C68.6297333,64.4113333 66.2044,61.7033333 63.9630667,58.846 C62.0330667,56.3506667 60.2710667,53.7293333 58.6897333,50.9993333 C57.6677333,49.2613333 56.2030667,46.4506667 54.2964,42.566 C54.1677333,42.326 53.4077333,40.3613333 52.0164,36.6726667 C51.9717333,36.544 51.9384,36.4793333 51.9164,36.4793333 C51.8944,36.4793333 51.8297333,36.446 51.7230667,36.3793333 C50.7324,35.3946667 49.8397333,34.316 49.0564,33.1593333 C48.2297333,31.924 47.0897333,30.0793333 45.6364,27.626 C45.0984,26.7693333 44.4064,26.0186667 43.5964,25.4126667" id="Fill-72" fill="#FDADA3"></path>
                            <path d="M44.4364,25.8193333 C45.2777333,26.4046667 45.9884,27.158 46.5230667,28.0326667" id="Stroke-74" stroke="#0C0C0C" stroke-width="4" stroke-linecap="round" stroke-linejoin="round"></path>
                            <path d="M46.5164,28.0326667 C47.7964,30.2013333 48.9364,32.046 49.9364,33.566" id="Stroke-76" stroke="#0C0C0C" stroke-width="4" stroke-linecap="round" stroke-linejoin="round"></path>
                            <path d="M49.9364,33.566 C50.7044,34.734 51.5984,35.814 52.6030667,36.786" id="Stroke-78" stroke="#0C0C0C" stroke-width="4" stroke-linecap="round" stroke-linejoin="round"></path>
                            <path d="M52.6097333,36.7926667 C53.8557333,37.92 55.2884,38.822 56.8430667,39.4593333" id="Stroke-80" stroke="#0C0C0C" stroke-width="4" stroke-linecap="round" stroke-linejoin="round"></path>
                            <path d="M42.5497333,24.9726667 C43.2397333,25.0913333 43.8890667,25.3826667 44.4364,25.8193333" id="Stroke-82" stroke="#0C0C0C" stroke-width="4" stroke-linecap="round" stroke-linejoin="round"></path>
                            <path d="M106.769733,67.9593333 C98.1770667,62.8113333 88.3664,60.05 78.3497333,59.9593333 C70.9337333,59.9166667 63.5724,61.2413333 56.6364,63.866 C48.0044,67.1146667 40.0697333,71.9766667 33.2564,78.1926667 C26.3737333,84.332 20.6397333,91.6486667 16.3230667,99.7993333 C11.5310667,108.694667 7.59573333,118.026 4.56973333,127.666 C1.22773333,138.474667 -0.2816,148.384 0.0430666667,157.392667 C0.0877333333,158.477333 0.151733333,159.572667 0.2364,160.679333 C1.66773333,176.048 10.7517333,188.226 27.4897333,197.212667 C34.8197333,201.066667 42.6244,203.94 50.7030667,205.759333 C58.2790667,207.548667 66.0324,208.476667 73.8164,208.526 C81.6644,208.542667 89.4950667,207.79 97.1964,206.279333 C105.351733,204.757333 113.275733,202.184667 120.769733,198.626 C137.805067,190.390667 147.345067,178.526 149.389733,163.032667 C152.211733,141.588 145.049733,116.801333 127.903067,88.6726667 C122.717733,80.0966667 115.4484,72.9713333 106.769733,67.9593333" id="Fill-84" fill="#FFFFFF"></path>
                            <path d="M56.6297333,63.8993333 C48.0004,67.1486667 40.0677333,72.0106667 33.2564,78.226 C26.3750667,84.3593333 20.6417333,91.6693333 16.3230667,99.8126667 C11.5317333,108.708 7.59573333,118.039333 4.56973333,127.679333 C1.22773333,138.488 -0.2816,148.397333 0.0430666667,157.406 C0.0877333333,158.490667 0.151733333,159.586 0.2364,160.692667 C1.66773333,176.061333 10.7517333,188.239333 27.4897333,197.226 C34.8204,201.075333 42.6250667,203.944667 50.7030667,205.759333 C58.2790667,207.548667 66.0324,208.476667 73.8164,208.526 C81.6644,208.542667 89.4950667,207.79 97.1964,206.279333 C105.351733,204.757333 113.275733,202.184667 120.769733,198.626 C137.805067,190.399333 147.345067,178.537333 149.389733,163.039333 C152.211733,141.594667 145.049733,116.808 127.903067,88.6793333 C122.717067,80.1053333 115.447067,72.9826667 106.769733,67.9726667 C98.1770667,62.8246667 88.3664,60.0633333 78.3497333,59.9726667 C70.9297333,59.9353333 63.5670667,61.2666667 56.6297333,63.8993333 Z" id="Stroke-86" stroke="#0C0C0C" stroke-width="3" stroke-linecap="round" stroke-linejoin="round"></path>
                            <path d="M42.9897333,149.092667 C43.0090667,147.962 42.5770667,146.870667 41.7897333,146.059333 C40.3057333,144.458 37.8044,144.362 36.2030667,145.846 C36.1290667,145.914667 36.0584,145.985333 35.9897333,146.059333 C34.3884,147.777333 34.3884,150.441333 35.9897333,152.159333 C37.4737333,153.760667 39.9750667,153.856667 41.5764,152.372667 C41.6504,152.304 41.7217333,152.233333 41.7897333,152.159333 C42.5810667,151.336667 43.0124,150.233333 42.9897333,149.092667" id="Fill-88" fill="#000000"></path>
                            <path d="M115.489733,149.092667 C115.509067,147.962 115.077067,146.870667 114.289733,146.059333 C112.777733,144.448667 110.2464,144.368 108.635733,145.88 C108.5744,145.938 108.5144,145.998 108.4564,146.059333 C106.855067,147.777333 106.855067,150.441333 108.4564,152.159333 C109.9684,153.77 112.499733,153.850667 114.1104,152.338667 C114.171733,152.280667 114.231733,152.220667 114.289733,152.159333 C115.081067,151.336667 115.5124,150.233333 115.489733,149.092667" id="Fill-90" fill="#000000"></path>
                            <path d="M100.9564,106.592667 C103.3564,104.437333 105.745067,104.437333 108.123067,106.592667" id="Stroke-92" stroke="#0C0C0C" stroke-width="3" stroke-linecap="round" stroke-linejoin="round"></path>
                            <path d="M42.1897333,106.592667 C44.5897333,104.437333 46.9677333,104.437333 49.3230667,106.592667" id="Stroke-94" stroke="#0C0C0C" stroke-width="3" stroke-linecap="round" stroke-linejoin="round"></path>
                            <path d="M85.3564,158.492667 C82.8010667,156.692667 79.5450667,155.714667 75.5897333,155.559333 C71.9764,155.281333 68.3744,156.22 65.3564,158.226 C62.5117333,160.181333 61.1010667,162.770667 61.1230667,165.992667 C61.0190667,169.027333 62.6650667,171.853333 65.3564,173.259333 C68.1344,174.792667 71.5897333,175.559333 75.7230667,175.559333 C79.9450667,175.559333 83.2344,174.781333 85.5897333,173.226 C88.0117333,171.670667 89.2230667,169.259333 89.2230667,165.992667 C89.3590667,162.983333 87.8870667,160.127333 85.3564,158.492667" id="Fill-96" fill="#FDADA3"></path>
                            <path d="M84.7564,158.192667 C81.9857333,156.524667 78.8237333,155.616 75.5897333,155.559333 C72.2277333,155.348667 68.8804,156.162667 65.9897333,157.892667 C62.7230667,159.870667 61.1010667,162.581333 61.1230667,166.026 C61.1450667,169.470667 62.8344,172.004 66.1897333,173.626 C69.1617333,175.046667 72.4310667,175.732667 75.7230667,175.626 C79.3897333,175.626 82.4117333,174.959333 84.7897333,173.626 C87.5944,172.177333 89.3184,169.248 89.2230667,166.092667 C89.2450667,162.714667 87.7564,160.081333 84.7564,158.192667" id="Fill-98" fill="#FDADA3"></path>
                            <path d="M89.2230667,166.026 C89.3184,169.181333 87.5944,172.110667 84.7897333,173.559333 C82.4117333,174.892667 79.3897333,175.559333 75.7230667,175.559333 C72.4310667,175.666 69.1617333,174.98 66.1897333,173.559333 C62.8344,171.870667 61.1450667,169.337333 61.1230667,165.959333 C61.1010667,162.581333 62.7230667,159.870667 65.9897333,157.826 C68.8804,156.096 72.2277333,155.282 75.5897333,155.492667 C78.8237333,155.549333 81.9850667,156.458 84.7564,158.126 C87.7564,160.059333 89.2450667,162.692667 89.2230667,166.026 Z" id="Stroke-100" stroke="#020202" stroke-width="3"></path>
                            <path d="M70.6564,164.926 L70.6564,166.259333 M79.7564,164.926 L79.7564,166.259333" id="Stroke-102" stroke="#000000" stroke-width="3" stroke-linecap="round" stroke-linejoin="round"></path>
                            <path d="M69.4430667,187.326 L69.6030667,187.326 C70.0624,188.323333 70.7984,189.167333 71.7230667,189.759333 C72.6250667,190.391333 73.6837333,190.762667 74.7830667,190.832667 C75.8824,190.896 76.9777333,190.648667 77.9430667,190.119333 C78.9270667,189.633333 79.7530667,188.877333 80.3230667,187.939333 C80.4637333,187.746667 80.5317333,187.510667 80.5164,187.272667 C80.4737333,187.028667 80.2990667,186.828 80.0630667,186.752667 C79.7977333,186.649333 79.5257333,186.562667 79.2497333,186.492667 C78.8330667,186.339333 78.4470667,186.114 78.1097333,185.826 C77.7597333,185.548 77.3844,185.302667 76.9897333,185.092667 C75.9497333,184.648 74.6584,184.832667 73.1164,185.646 L71.3564,186.626 C70.7624,186.965333 70.1157333,187.202 69.4430667,187.326" id="Fill-104" fill="#CA3538"></path>
                            <path d="M77.1630667,185.372667 C77.1170667,185.036 76.8924,184.750667 76.5764,184.626 C76.1710667,184.396 75.7090667,184.282667 75.2430667,184.299333 L75.0164,184.299333 C74.5504,184.282667 74.0884,184.396 73.6830667,184.626 C73.3144,184.844 73.1410667,185.092667 73.1630667,185.372667 C73.1330667,185.664 73.2417333,185.953333 73.4564,186.152667 C73.9404,186.424667 74.4977333,186.539333 75.0497333,186.479333 L75.2430667,186.479333 C75.8384,186.551333 76.4417333,186.437333 76.9697333,186.152667 C77.1130667,185.918667 77.1804,185.646667 77.1630667,185.372667" id="Fill-106" fill="#FFFFFF"></path>
                            <path d="M67.3830667,185.386 C69.3784,186.621333 71.1144,186.621333 72.5897333,185.386 C73.2830667,184.71 74.1964,184.305333 75.1630667,184.246 C76.1257333,184.321333 77.0337333,184.723333 77.7364,185.386 C79.1677333,186.599333 80.8944,186.599333 82.9164,185.386" id="Stroke-108" stroke="#0C0C0C" stroke-width="3" stroke-linecap="round" stroke-linejoin="round"></path>
                            <path d="M81.7364,185.972667 C81.3450667,186.537333 80.7164,187.590667 79.8497333,189.132667 C78.7877333,190.390667 77.2317333,191.019333 75.1830667,191.019333 C73.4804,191.118667 71.8177333,190.476667 70.6230667,189.259333 C69.6897333,187.761333 69.0230667,186.688 68.6230667,186.039333" id="Stroke-110" stroke="#000000" stroke-width="3"></path>
                            <polyline id="Stroke-112" stroke="#000000" stroke-width="3" stroke-linecap="round" stroke-linejoin="round" points="70.9230667 209.359333 75.5897333 213.792667 81.1897333 209.192667"></polyline>
                            <path d="M86.9897333,219.092667 L85.9897333,227.426" id="Stroke-114" stroke="#000000" stroke-width="4" stroke-linecap="round" stroke-linejoin="round"></path>
                            <path d="M86.7230667,219.526 C86.5957333,219.506 86.4764,219.593333 86.4564,219.720667 C86.4524,219.744 86.4524,219.768667 86.4564,219.792667 C86.4550667,219.855333 86.4790667,219.915333 86.5230667,219.959333 C86.5737333,220.018667 86.6457333,220.054667 86.7230667,220.059333 C86.7597333,220.062667 86.7957333,220.050667 86.8230667,220.026 C86.7864,220.009333 86.7524,219.986667 86.7230667,219.959333 C86.6790667,219.915333 86.6544,219.855333 86.6564,219.792667 C86.6584,219.720667 86.6810667,219.651333 86.7230667,219.592667 C86.7550667,219.58 86.7910667,219.58 86.8230667,219.592667 C86.8250667,219.53 86.7837333,219.474667 86.7230667,219.459333 L86.7230667,219.526 Z M86.8230667,219.492667 C86.7910667,219.48 86.7550667,219.48 86.7230667,219.492667 C86.6810667,219.551333 86.6584,219.620667 86.6564,219.692667 C86.6544,219.755333 86.6790667,219.815333 86.7230667,219.859333 C86.7524,219.886667 86.7864,219.909333 86.8230667,219.926 L86.8897333,219.859333 C86.9344,219.84 86.9704,219.804 86.9897333,219.759333 C86.9850667,219.682 86.9490667,219.61 86.8897333,219.559333 C86.8684,219.551333 86.8444,219.551333 86.8230667,219.559333 L86.8230667,219.492667 Z" id="Fill-116" fill="#333333"></path>
                            <path d="M86.3564,225.726 C86.3597333,225.762667 86.3477333,225.798667 86.3230667,225.826 L86.2564,225.892667 C86.2230667,225.953333 86.1590667,225.992 86.0897333,225.992667 C86.0124,225.988 85.9404,225.952 85.8897333,225.892667 C85.8457333,225.848667 85.8217333,225.788667 85.8230667,225.726 C85.8030667,225.598667 85.8904,225.479333 86.0177333,225.459333 C86.0410667,225.455333 86.0657333,225.455333 86.0897333,225.459333 C86.1524,225.458 86.2124,225.482 86.2564,225.526 C86.3370667,225.576667 86.3870667,225.664 86.3897333,225.759333 L86.3564,225.726 Z M86.5564,223.826 C86.5690667,223.858 86.5690667,223.894 86.5564,223.926 L86.4897333,223.992667 C86.4564,224.053333 86.3924,224.092 86.3230667,224.092667 C86.2457333,224.088 86.1737333,224.052 86.1230667,223.992667 C86.0790667,223.948667 86.0544,223.888667 86.0564,223.826 C86.0364,223.698667 86.1237333,223.579333 86.2510667,223.559333 C86.2744,223.555333 86.2990667,223.555333 86.3230667,223.559333 C86.3857333,223.557333 86.4457333,223.582 86.4897333,223.626 C86.5490667,223.676667 86.5850667,223.748667 86.5897333,223.826 L86.5564,223.826 Z M86.8230667,221.892667 C86.8357333,221.924667 86.8357333,221.960667 86.8230667,221.992667 L86.7564,222.059333 C86.7230667,222.12 86.6590667,222.158667 86.5897333,222.159333 C86.5124,222.154667 86.4404,222.118667 86.3897333,222.059333 C86.3457333,222.015333 86.3210667,221.955333 86.3230667,221.892667 C86.3030667,221.765333 86.3904,221.646 86.5177333,221.626 C86.5410667,221.622 86.5657333,221.622 86.5897333,221.626 C86.6524,221.624667 86.7124,221.648667 86.7564,221.692667 C86.8157333,221.743333 86.8517333,221.815333 86.8564,221.892667 L86.8230667,221.892667 Z M86.8230667,219.492667 C86.8504,219.468 86.8864,219.456 86.9230667,219.459333 C86.9857333,219.458 87.0457333,219.482 87.0897333,219.526 C87.1490667,219.576667 87.1850667,219.648667 87.1897333,219.726 C87.1510667,219.854 87.0510667,219.954 86.9230667,219.992667 C86.8864,219.996 86.8504,219.984 86.8230667,219.959333 C86.7864,219.942667 86.7524,219.92 86.7230667,219.892667 C86.6790667,219.848667 86.6544,219.788667 86.6564,219.726 C86.6584,219.654 86.6810667,219.584667 86.7230667,219.526 C86.7504,219.501333 86.7864,219.489333 86.8230667,219.492667 Z" id="Stroke-118" stroke="#FFFFFF" stroke-linecap="round" stroke-linejoin="round"></path>
                            <path d="M64.6564,219.2926 L64.8564,227.6926" id="Stroke-120" stroke="#000000" stroke-width="4" stroke-linecap="round" stroke-linejoin="round"></path>
                            <path d="M64.3897333,219.825933 C64.3657333,219.8906 64.3944,219.9626 64.4564,219.9926 C64.4837333,220.021933 64.5064,220.055933 64.5230667,220.0926 C64.5597333,220.075933 64.5937333,220.053267 64.6230667,220.025933 C64.6690667,219.979267 64.7030667,219.921933 64.7230667,219.859267 C64.7210667,219.787267 64.6984,219.717933 64.6564,219.659267 C64.6244,219.6466 64.5884,219.6466 64.5564,219.659267 C64.5444,219.6406 64.5190667,219.635933 64.5010667,219.647933 C64.4964,219.651267 64.4924,219.6546 64.4897333,219.659267 C64.4304,219.709933 64.3944,219.781933 64.3897333,219.859267 L64.3897333,219.825933 Z M64.5564,219.659267 C64.5884,219.6466 64.6244,219.6466 64.6564,219.659267 C64.6984,219.717933 64.7210667,219.787267 64.7230667,219.859267 C64.7030667,219.921933 64.6690667,219.979267 64.6230667,220.025933 C64.5937333,220.053267 64.5597333,220.075933 64.5230667,220.0926 C64.5504,220.117267 64.5864,220.129267 64.6230667,220.125933 C64.7004,220.121267 64.7724,220.085267 64.8230667,220.025933 C64.8730667,219.9966 64.9090667,219.9486 64.9230667,219.8926 C64.9190667,219.8106 64.8957333,219.731267 64.8564,219.659267 C64.7977333,219.617933 64.7284,219.5946 64.6564,219.5926 C64.6197333,219.589267 64.5837333,219.601267 64.5564,219.625933 L64.5564,219.659267 Z" id="Fill-122" fill="#333333"></path>
                            <path d="M64.3897333,225.926 L64.3897333,226.026 L64.4564,226.092667 C64.4950667,226.154667 64.5537333,226.202 64.6230667,226.226 C64.7004,226.221333 64.7724,226.185333 64.8230667,226.126 C64.8690667,226.079333 64.9030667,226.022 64.9230667,225.959333 C64.9170667,225.898667 64.8937333,225.840667 64.8564,225.792667 C64.7977333,225.750667 64.7284,225.728 64.6564,225.726 C64.5990667,225.702667 64.5337333,225.715333 64.4897333,225.759333 C64.4557333,225.796667 64.4324,225.842667 64.4230667,225.892667 L64.3897333,225.926 Z M64.3897333,224.026 C64.3770667,224.058 64.3770667,224.094 64.3897333,224.126 C64.4144,224.153333 64.4264,224.189333 64.4230667,224.226 C64.4564,224.286667 64.5204,224.325333 64.5897333,224.326 C64.6617333,224.324 64.7310667,224.300667 64.7897333,224.259333 C64.8504,224.226 64.8890667,224.162 64.8897333,224.092667 C64.8877333,224.020667 64.8644,223.951333 64.8230667,223.892667 C64.7897333,223.832 64.7257333,223.793333 64.6564,223.792667 C64.5844,223.794667 64.5150667,223.817333 64.4564,223.859333 C64.4170667,223.893333 64.3930667,223.941333 64.3897333,223.992667 L64.3897333,224.026 Z M64.2897333,222.026 C64.2797333,222.07 64.2797333,222.115333 64.2897333,222.159333 L64.3564,222.226 C64.3897333,222.286667 64.4537333,222.325333 64.5230667,222.326 C64.5970667,222.345333 64.6757333,222.319333 64.7230667,222.259333 C64.7670667,222.215333 64.7917333,222.155333 64.7897333,222.092667 C64.8217333,222.03 64.8217333,221.955333 64.7897333,221.892667 C64.7277333,221.850667 64.6604,221.816667 64.5897333,221.792667 C64.5270667,221.791333 64.4670667,221.815333 64.4230667,221.859333 C64.3730667,221.903333 64.3384,221.961333 64.3230667,222.026 L64.2897333,222.026 Z M64.5564,219.659333 C64.5397333,219.618667 64.5004,219.592 64.4564,219.592667 C64.3937333,219.590667 64.3337333,219.615333 64.2897333,219.659333 C64.2304,219.71 64.1944,219.782 64.1897333,219.859333 C64.1657333,219.924 64.1944,219.996 64.2564,220.026 C64.2897333,220.086667 64.3537333,220.125333 64.4230667,220.126 L64.5230667,220.126 C64.5597333,220.109333 64.5937333,220.086667 64.6230667,220.059333 C64.6690667,220.012667 64.7030667,219.955333 64.7230667,219.892667 C64.7210667,219.820667 64.6984,219.751333 64.6564,219.692667 C64.6290667,219.668 64.5930667,219.656 64.5564,219.659333 Z" id="Stroke-124" stroke="#FFFFFF" stroke-linecap="round" stroke-linejoin="round"></path>
                            <path d="M75.9230667,221.559333 L81.7230667,208.226 M70.3230667,208.226 L75.3230667,221.559333" id="Stroke-126" stroke="#000000" stroke-linecap="round" stroke-linejoin="round"></path>
                            <path d="M76.4564,223.759333 C76.7777333,223.496 76.9717333,223.108 76.9897333,222.692667 C77.0424,222.288667 76.9604,221.878667 76.7564,221.526 C76.6310667,221.188 76.3417333,220.936667 75.9897333,220.859333 C75.6437333,220.819333 75.2990667,220.942667 75.0564,221.192667 C74.7644,221.488 74.5870667,221.878 74.5564,222.292667 C74.5037333,222.692667 74.5737333,223.099333 74.7564,223.459333 C74.9217333,223.767333 75.2144,223.986667 75.5564,224.059333 C75.8864,224.103333 76.2184,223.992667 76.4564,223.759333" id="Fill-128" fill="#FF99CC"></path>
                            <path d="M76.9897333,222.726 C76.9717333,223.141333 76.7777333,223.529333 76.4564,223.792667 C76.2250667,224.038 75.8917333,224.161333 75.5564,224.126 C75.2144,224.053333 74.9217333,223.834 74.7564,223.526 C74.5737333,223.166 74.5037333,222.759333 74.5564,222.359333 C74.5870667,221.944667 74.7644,221.554667 75.0564,221.259333 C75.2990667,221.009333 75.6437333,220.886 75.9897333,220.926 C76.3424,221.003333 76.6310667,221.254667 76.7564,221.592667 C76.9530667,221.936 77.0350667,222.333333 76.9897333,222.726 Z" id="Stroke-130" stroke="#000000" stroke-linecap="round" stroke-linejoin="round"></path>
                            <polygon id="Fill-132" fill="#8AECED" points="116.089733 76.7593333 127.389733 75.9926667 115.689733 76.326"></polygon>
                            <path d="M115.6564,76.326 L110.323067,76.4593333" id="Stroke-134" stroke="#FFFFFF" stroke-linecap="round" stroke-linejoin="round"></path>
                            <path d="M89.2564,59.8926667 C93.8784,60.7146667 98.0010667,61.304 101.623067,61.6593333 M116.089733,76.7593333 L115.689733,76.326" id="Stroke-136" stroke="#000000" stroke-width="3" stroke-linecap="round" stroke-linejoin="round"></path>
                            <path d="M134.323067,74.7593333 C134.523067,73.0706667 132.8784,71.204 129.389733,69.1593333 C125.901067,67.1146667 120.345067,64.9146667 112.723067,62.5593333 C109.513067,61.6006667 106.237733,60.876 102.923067,60.3926667 L100.4564,59.8926667 L109.923067,75.7593333 C125.745067,78.2706667 133.8784,77.9373333 134.323067,74.7593333" id="Fill-138" fill="#8AECED"></path>
                            <path d="M100.423067,59.8926667 L102.889733,60.3926667 C106.2044,60.876 109.479733,61.6 112.689733,62.5593333 C120.3564,64.9146667 125.911733,67.1146667 129.3564,69.1593333 C132.801067,71.204 134.445067,73.0706667 134.289733,74.7593333 C133.845067,77.9373333 125.723067,78.2706667 109.923067,75.7593333 L100.423067,59.8926667 Z" id="Stroke-140" stroke="#000000" stroke-width="3" stroke-linecap="round" stroke-linejoin="round"></path>
                            <path d="M107.9564,48.3593333 C102.601067,46.004 97.3230667,45.4373333 92.1230667,46.6593333 C86.9230667,47.8146667 83.1010667,51.1813333 80.6564,56.7593333 C80.2264,57.6973333 79.8697333,58.6666667 79.5897333,59.6593333 C90.7897333,72.0813333 103.645067,77.726 118.1564,76.5926667 C118.675733,75.7093333 119.143067,74.7966667 119.5564,73.8593333 C122.023067,68.2813333 122.0564,63.2373333 119.6564,58.726 C117.2564,54.2146667 113.3564,50.7593333 107.9564,48.3593333" id="Fill-142" fill="#D822B4"></path>
                            <path d="M95.6564,50.5593333 C95.5817333,50.608 95.5237333,50.6773333 95.4897333,50.7593333 C95.4597333,50.834 95.4597333,50.918 95.4897333,50.9926667 C95.5237333,51.0786667 95.5990667,51.1413333 95.6897333,51.1593333 C95.7624,51.2 95.8504,51.2 95.9230667,51.1593333 C96.5050667,50.848 97.1050667,50.5593333 97.7230667,50.2926667 C97.8084,50.2573333 97.8704,50.1826667 97.8897333,50.0926667 C97.9317333,50.0206667 97.9317333,49.9313333 97.8897333,49.8593333 C97.8504,49.77 97.7790667,49.6986667 97.6897333,49.6593333 C97.6144,49.6313333 97.5317333,49.6313333 97.4564,49.6593333 C96.8517333,49.948 96.2517333,50.248 95.6564,50.5593333 M101.823067,48.8593333 C101.799733,48.7633333 101.739733,48.6793333 101.6564,48.626 C101.581733,48.596 101.497733,48.596 101.423067,48.626 C100.7744,48.764 100.129733,48.9193333 99.4897333,49.0926667 C99.4090667,49.1293333 99.3397333,49.1866667 99.2897333,49.2593333 C99.2550667,49.332 99.2437333,49.4133333 99.2564,49.4926667 C99.2804,49.5806667 99.3410667,49.6533333 99.4230667,49.6926667 C99.4877333,49.748 99.5784,49.7613333 99.6564,49.726 C100.283067,49.566 100.9164,49.4213333 101.5564,49.2926667 C101.6464,49.2733333 101.721067,49.2113333 101.7564,49.126 C101.817733,49.0653333 101.843067,48.9766667 101.823067,48.8926667 M105.8564,48.326 C105.795733,48.262 105.711067,48.226 105.623067,48.226 C104.929733,48.226 104.241067,48.248 103.5564,48.2926667 C103.4704,48.3013333 103.389067,48.3366667 103.323067,48.3926667 C103.275733,48.4606667 103.251733,48.5426667 103.2564,48.626 C103.257067,48.714 103.293067,48.798 103.3564,48.8593333 C103.4164,48.924 103.501067,48.9606667 103.589733,48.9593333 C104.261067,48.9146667 104.927733,48.8926667 105.589733,48.8926667 C105.773733,48.89 105.921067,48.7386667 105.9184,48.5546667 C105.917067,48.4693333 105.883067,48.3873333 105.823067,48.326 M109.1564,49.426 C108.605067,49.1373333 108.0164,48.8593333 107.389733,48.5926667 C107.303067,48.5626667 107.209067,48.5626667 107.123067,48.5926667 C107.047733,48.6406667 106.989733,48.71 106.9564,48.7926667 C106.9284,48.868 106.9284,48.9506667 106.9564,49.026 C106.995733,49.1153333 107.067067,49.1866667 107.1564,49.226 C107.7744,49.4926667 108.351733,49.7706667 108.889733,50.0593333 C108.973733,50.1 109.0724,50.1 109.1564,50.0593333 C109.247067,50.0413333 109.3224,49.9786667 109.3564,49.8926667 C109.3964,49.82 109.3964,49.732 109.3564,49.6593333 C109.3384,49.5686667 109.275733,49.4933333 109.189733,49.4593333 M110.3564,50.7593333 C110.371067,50.842 110.419067,50.914 110.489733,50.9593333 C111.021733,51.32 111.533733,51.7093333 112.023067,52.126 C112.083067,52.1906667 112.167733,52.2273333 112.2564,52.226 C112.351733,52.224 112.439733,52.174 112.489733,52.0926667 C112.561067,52.0373333 112.599067,51.9493333 112.589733,51.8593333 C112.577067,51.7673333 112.529067,51.684 112.4564,51.626 C111.945733,51.186 111.411733,50.7746667 110.8564,50.3926667 C110.781733,50.3626667 110.697733,50.3626667 110.623067,50.3926667 C110.533733,50.412 110.451733,50.4586667 110.389733,50.526 C110.361067,50.6126667 110.361067,50.706 110.389733,50.7926667 M88.5230667,57.1593333 C88.4410667,57.1753333 88.3690667,57.2233333 88.3230667,57.2926667 C87.9410667,57.8346667 87.5630667,58.4013333 87.1897333,58.9926667 C87.1670667,59.0686667 87.1670667,59.15 87.1897333,59.226 C87.2137333,59.314 87.2744,59.3866667 87.3564,59.426 C87.4210667,59.4813333 87.5117333,59.4946667 87.5897333,59.4593333 C87.6764,59.4566667 87.7537333,59.4053333 87.7897333,59.326 C88.1497333,58.7613333 88.5164,58.2173333 88.8897333,57.6926667 C88.9464,57.616 88.9704,57.52 88.9564,57.426 C88.9404,57.344 88.8924,57.272 88.8230667,57.226 C88.7464,57.1693333 88.6504,57.1453333 88.5564,57.1593333 M86.4230667,60.4926667 C86.3424,60.5293333 86.2737333,60.5866667 86.2230667,60.6593333 C85.9164,61.2193333 85.6164,61.7973333 85.3230667,62.3926667 C85.2837333,62.476 85.2724,62.5693333 85.2897333,62.6593333 C85.3204,62.7433333 85.3797333,62.814 85.4564,62.8593333 C85.5404,62.9 85.6390667,62.9 85.7230667,62.8593333 C85.8150667,62.8433333 85.8910667,62.78 85.9230667,62.6926667 C86.2077333,62.1106667 86.4964,61.544 86.7897333,60.9926667 C86.8470667,60.916 86.8597333,60.8146667 86.8230667,60.726 C86.8084,60.644 86.7604,60.5713333 86.6897333,60.526 C86.6057333,60.49 86.5130667,60.4786667 86.4230667,60.4926667 M116.4564,58.8593333 C116.517733,58.7986667 116.543067,58.71 116.523067,58.626 C116.389067,57.9306667 116.1884,57.2493333 115.923067,56.5926667 C115.895067,56.5153333 115.833733,56.4546667 115.7564,56.426 C115.673733,56.3853333 115.579733,56.3733333 115.489733,56.3926667 C115.4144,56.4406667 115.3564,56.51 115.323067,56.5926667 C115.295067,56.668 115.295067,56.7506667 115.323067,56.826 C115.573733,57.4506667 115.763067,58.098 115.889733,58.7593333 C115.9044,58.842 115.9524,58.914 116.023067,58.9593333 C116.0984,59.0186667 116.195733,59.0433333 116.289733,59.026 C116.379733,59.0066667 116.4544,58.9446667 116.489733,58.8593333 M116.189733,60.526 C116.1424,60.594 116.1184,60.6766667 116.123067,60.7593333 C116.1664,61.4366667 116.1664,62.1153333 116.123067,62.7926667 C116.1124,62.8766667 116.1364,62.9606667 116.189733,63.026 C116.247067,63.0986667 116.331067,63.1466667 116.423067,63.1593333 C116.513067,63.1686667 116.601067,63.1306667 116.6564,63.0593333 C116.737733,63.0093333 116.787733,62.9213333 116.789733,62.826 C116.835067,62.1266667 116.835067,61.4253333 116.789733,60.726 C116.777067,60.634 116.729067,60.5506667 116.6564,60.4926667 C116.591067,60.4393333 116.5064,60.4153333 116.423067,60.426 C116.337067,60.4346667 116.255733,60.47 116.189733,60.526 M116.0564,67.1926667 C116.141733,67.1573333 116.203733,67.0826667 116.223067,66.9926667 C116.3784,66.2993333 116.501067,65.6106667 116.589733,64.926 C116.6004,64.8426667 116.5764,64.758 116.523067,64.6926667 C116.467733,64.6173333 116.383067,64.5693333 116.289733,64.5593333 C116.2064,64.5486667 116.121733,64.5726667 116.0564,64.626 C115.987067,64.672 115.939067,64.744 115.923067,64.826 C115.8344,65.4973333 115.711733,66.1746667 115.5564,66.8593333 C115.5264,66.934 115.5264,67.018 115.5564,67.0926667 C115.609733,67.176 115.693733,67.236 115.789733,67.2593333 C115.873733,67.2793333 115.9624,67.254 116.023067,67.1926667 M113.589733,52.926 C113.5064,52.9213333 113.4244,52.9453333 113.3564,52.9926667 C113.3004,53.0586667 113.265067,53.14 113.2564,53.226 C113.2464,53.3093333 113.2704,53.394 113.323067,53.4593333 C113.755733,53.9513333 114.135733,54.488 114.4564,55.0593333 C114.501733,55.13 114.573733,55.178 114.6564,55.1926667 C114.739067,55.2393333 114.8404,55.2393333 114.923067,55.1926667 C115.0024,55.1573333 115.053733,55.0793333 115.0564,54.9926667 C115.101067,54.9213333 115.101067,54.8306667 115.0564,54.7593333 C114.7164,54.1526667 114.3144,53.5826667 113.8564,53.0593333 C113.795067,52.996 113.711067,52.96 113.623067,52.9593333 M94.1564,51.5593333 C94.0730667,51.5486667 93.9884,51.5726667 93.9230667,51.626 C93.3850667,52.008 92.8517333,52.408 92.3230667,52.826 C92.2650667,52.8906667 92.2304,52.9726667 92.2230667,53.0593333 C92.2144,53.1426667 92.2384,53.2266667 92.2897333,53.2926667 C92.3457333,53.3673333 92.4304,53.4153333 92.5230667,53.426 C92.6124,53.4333333 92.6997333,53.3953333 92.7564,53.326 C93.2717333,52.9213333 93.7944,52.5326667 94.3230667,52.1593333 C94.3984,52.104 94.4464,52.0193333 94.4564,51.926 C94.4670667,51.8426667 94.4430667,51.758 94.3897333,51.6926667 C94.3344,51.6173333 94.2497333,51.5693333 94.1564,51.5593333 M91.1230667,54.0926667 C91.0350667,54.0926667 90.9504,54.1286667 90.8897333,54.1926667 C90.4184,54.664 89.9630667,55.1526667 89.5230667,55.6593333 C89.4737333,55.7393333 89.4504,55.8326667 89.4564,55.926 C89.4590667,56.004 89.4950667,56.0773333 89.5564,56.126 C89.6284,56.194 89.7244,56.23 89.8230667,56.226 C89.9090667,56.2206667 89.9850667,56.17 90.0230667,56.0926667 C90.4677333,55.5993333 90.9117333,55.1213333 91.3564,54.6593333 C91.4850667,54.528 91.4830667,54.3166667 91.3517333,54.188 C91.2904,54.128 91.2084,54.094 91.1230667,54.0926667 M115.1564,68.5593333 C115.081733,68.6073333 115.023733,68.6773333 114.989733,68.7593333 C114.7984,69.3773333 114.5764,69.9993333 114.323067,70.626 C114.293067,70.7126667 114.293067,70.806 114.323067,70.8926667 C114.3504,70.9706667 114.411733,71.032 114.489733,71.0593333 C114.573733,71.1 114.6724,71.1 114.7564,71.0593333 C114.841733,71.024 114.903733,70.9493333 114.923067,70.8593333 C115.181067,70.2193333 115.403067,69.586 115.589733,68.9593333 C115.6304,68.8753333 115.6304,68.7766667 115.589733,68.6926667 C115.541733,68.618 115.471733,68.56 115.389733,68.526 C115.299733,68.508 115.205733,68.52 115.123067,68.5593333 M113.789733,72.2926667 C113.711733,72.3373333 113.653067,72.408 113.623067,72.4926667 C113.3784,73.0706667 113.123067,73.6593333 112.8564,74.2593333 C112.8284,74.3346667 112.8284,74.4173333 112.8564,74.4926667 C112.895733,74.582 112.967067,74.6533333 113.0564,74.6926667 C113.129067,74.7333333 113.217067,74.7333333 113.289733,74.6926667 C113.379733,74.6733333 113.4544,74.6113333 113.489733,74.526 C113.7564,73.926 114.011733,73.3373333 114.2564,72.7593333 C114.297067,72.6753333 114.297067,72.5766667 114.2564,72.4926667 C114.231733,72.4133333 114.169067,72.3506667 114.089733,72.326 C114.007067,72.286 113.913067,72.274 113.823067,72.2926667 M112.389733,76.726 C112.421733,76.6633333 112.4444,76.5953333 112.4564,76.526 C112.497067,76.442 112.497067,76.3433333 112.4564,76.2593333 C112.4084,76.1846667 112.3384,76.1266667 112.2564,76.0926667 C112.1664,76.0746667 112.0724,76.0866667 111.989733,76.126 C111.915067,76.174 111.857067,76.244 111.823067,76.326 C111.811067,76.3953333 111.7884,76.4633333 111.7564,76.526 C111.7264,76.6006667 111.7264,76.6846667 111.7564,76.7593333 C111.7904,76.8453333 111.865733,76.908 111.9564,76.926 C112.029067,76.9666667 112.117067,76.9666667 112.189733,76.926 C112.275733,76.892 112.3384,76.8166667 112.3564,76.726" id="Fill-144" fill="#FFFFFF"></path>
                            <path d="M95.9897333,47.926 C95.9977333,48.13 95.9117333,48.3266667 95.7564,48.4593333 C95.6304,48.6273333 95.4330667,48.726 95.2230667,48.726 C94.7930667,48.7113333 94.4524,48.3566667 94.4564,47.926 C94.4584,47.72 94.5284,47.5206667 94.6564,47.3593333 C94.8144,47.2253333 95.0157333,47.154 95.2230667,47.1593333 C95.4210667,47.15 95.6137333,47.222 95.7564,47.3593333 C95.9024,47.5126667 95.9857333,47.7146667 95.9897333,47.926 Z" id="Stroke-146" stroke="#FFFFFF" stroke-linecap="round" stroke-linejoin="round"></path>
                            <path d="M106.0564,53.026 C106.061733,53.2333333 105.9904,53.4346667 105.8564,53.5926667 C105.707733,53.7453333 105.5024,53.8293333 105.289733,53.826 C105.085733,53.834 104.889067,53.748 104.7564,53.5926667 C104.603733,53.444 104.519733,53.2386667 104.523067,53.026 C104.523733,52.8233333 104.6084,52.6306667 104.7564,52.4926667 C104.889067,52.3373333 105.085733,52.2513333 105.289733,52.2593333 C105.5024,52.256 105.707733,52.34 105.8564,52.4926667 C105.987067,52.6393333 106.057733,52.8293333 106.0564,53.026 Z" id="Stroke-148" stroke="#FFFFFF" stroke-linecap="round" stroke-linejoin="round"></path>
                            <path d="M119.5564,73.8593333 C119.143067,74.7966667 118.675733,75.7093333 118.1564,76.5926667 C103.645067,77.726 90.7897333,72.0813333 79.5897333,59.6593333 C79.8697333,58.6666667 80.2264,57.6973333 80.6564,56.7593333 C83.1010667,51.204 86.9230667,47.8373333 92.1230667,46.6593333 C97.3230667,45.4813333 102.601067,46.048 107.9564,48.3593333 C113.3344,50.7146667 117.2344,54.1706667 119.6564,58.726 C122.0784,63.2813333 122.045067,68.326 119.5564,73.8593333 Z" id="Stroke-150" stroke="#000000" stroke-width="3.5" stroke-linecap="round" stroke-linejoin="round"></path>
                        </g>
                    </g>
                </g>
            </g>
        </g>
    </g>
</svg>