<?xml version="1.0" encoding="UTF-8" standalone="no"?>
<svg width="152px" height="234px" viewBox="0 0 152 234" version="1.1" xmlns="http://www.w3.org/2000/svg" xmlns:xlink="http://www.w3.org/1999/xlink">
    <!-- Generator: Sketch 41 (35326) - http://www.bohemiancoding.com/sketch -->
    <title>pr-ss</title>
    <desc>Created with Sketch.</desc>
    <defs></defs>
    <g id="Symbols" stroke="none" stroke-width="1" fill="none" fill-rule="evenodd">
        <g id="component/artwork/plan/mva/superstar/card" transform="translate(-3.000000, -24.000000)">
            <g id="component/artwork/plan/superstar/card" transform="translate(0.000000, -2.000000)">
                <g id="pr-ss" transform="translate(5.000000, 28.000000)">
                    <path d="M87.754087,224.759065 C83.603,224.780587 80.243,228.140587 80.2214783,232.291674 C80.2286522,236.444717 83.6010435,239.80537 87.754087,239.798196 C91.9071304,239.791022 95.2677826,236.41863 95.2606087,232.265587 C95.2534348,228.122978 91.8966957,224.766239 87.754087,224.759065 Z" id="Fill-1" fill="#FFFFFF"></path>
                    <path d="M95.254087,232.291674 C95.2938696,236.412109 91.9860435,239.7845 87.8656087,239.824283 L87.754087,239.824283 C83.5906087,239.845804 80.1973478,236.487761 80.1758261,232.324283 C80.1543043,228.160804 83.5123478,224.767543 87.6758261,224.746022 C91.8393043,224.7245 95.2325652,228.082543 95.254087,232.246022 L95.254087,232.291674 Z" id="Stroke-3" stroke="#0C0C0C" stroke-width="4" stroke-linecap="round" stroke-linejoin="round"></path>
                    <path d="M96.2975652,205.487326 C94.493,203.071022 92.4856087,200.812543 90.2975652,198.737326 C87.8193043,197.411457 86.1236522,197.432978 85.2106087,198.802543 C84.5838696,199.844717 84.1221304,200.978196 83.8410435,202.161239 C83.7086522,203.363848 83.7086522,204.578196 83.8410435,205.780804 C84.2760435,209.976239 84.7866957,213.726239 85.3736522,217.030804 L85.504087,217.519935 C85.9912609,217.2545 86.4921304,217.015152 87.004087,216.802543 C89.629087,215.663848 92.6303913,215.783848 95.1562609,217.12863 C92.6303913,215.783848 89.629087,215.663848 87.004087,216.802543 C86.4921304,217.015152 85.9912609,217.2545 85.504087,217.519935 C83.3049565,218.789065 81.5343043,220.684935 80.4171304,222.965587 C81.2682174,225.505804 81.8473478,228.1295 82.1453913,230.791674 C82.0586522,231.965587 83.2214783,232.56363 85.6345217,232.585152 C88.1284348,232.602109 90.6047391,232.159935 92.9388696,231.280804 C95.3956087,230.367761 97.1127826,229.476239 98.0910435,228.606891 C99.4977826,227.375587 100.564739,225.803848 101.18887,224.041674 C101.841043,222.106674 101.927783,219.704717 101.449739,216.835152 C101.319304,216.117761 101.167348,215.40037 100.993217,214.682978 C100.047565,211.339283 98.4516957,208.214065 96.2975652,205.487326" id="Fill-5" fill="#312B66"></path>
                    <path d="M85.3736522,217.030804 C84.7866957,213.726239 84.2760435,209.976239 83.8410435,205.780804 C83.7086522,204.578196 83.7086522,203.363848 83.8410435,202.161239 C84.1221304,200.978196 84.5838696,199.844717 85.2106087,198.802543 C86.1236522,197.432978 87.8193043,197.411457 90.2975652,198.737326 C92.4856087,200.812543 94.493,203.071022 96.2975652,205.487326 C98.4445217,208.195152 100.039739,211.296891 100.993217,214.617761 C101.167348,215.335152 101.319304,216.052543 101.449739,216.769935 C101.927783,219.6395 101.841043,222.041457 101.18887,223.976457 C100.564739,225.73863 99.4977826,227.31037 98.0910435,228.541674 C97.1127826,229.411022 95.3956087,230.302543 92.9388696,231.215587 C90.6047391,232.094717 88.1284348,232.536891 85.6345217,232.519935 C83.2214783,232.519935 82.0586522,231.921891 82.1453913,230.726457 C81.8473478,228.064283 81.2675652,225.440587 80.4171304,222.90037 C81.5336522,220.619717 83.3049565,218.723848 85.504087,217.454717 C85.9912609,217.189283 86.4921304,216.949935 87.004087,216.737326 C89.629087,215.59863 92.6303913,215.71863 95.1562609,217.063413" id="Stroke-7" stroke="#000000" stroke-width="3" stroke-linecap="round" stroke-linejoin="round"></path>
                    <path d="M86.0258261,239.563413 C87.4638696,238.414283 88.5210435,236.856891 89.0584348,235.096022 C89.513,233.593413 89.8403913,232.055587 90.0366957,230.498196 C90.1671304,229.084935 90.2323478,228.019935 90.2323478,227.302543 L46.3410435,227.302543 L47.3845217,230.62863 C48.2127826,232.904065 49.2047391,235.116239 50.351913,237.248196 C51.9171304,240.269717 52.9606087,242.465587 53.4823478,243.835152 L54.2975652,246.15037 C54.4064783,246.476457 54.5147391,246.791457 54.6236522,247.096022 C56.3382174,247.457326 58.0886522,247.621674 59.8410435,247.585152 C61.1343043,247.566891 62.423,247.42537 63.6888696,247.161239 C63.7103913,246.81363 63.743,246.476457 63.7866957,246.15037 C63.776913,246.052543 63.776913,245.954717 63.7866957,245.856891 C63.851913,245.204717 63.9386522,244.552543 64.0475652,243.90037 C65.3923478,244.39537 66.8225652,244.617109 68.254087,244.552543 C68.7451739,244.551891 69.2349565,244.519283 69.7214783,244.454717 C70.6606087,244.354283 71.588,244.169065 72.4932174,243.90037 L72.851913,246.117761 L73.0149565,247.096022 C74.483,247.416239 75.9803913,247.579935 77.4823478,247.585152 L78.0366957,247.585152 C79.3527826,247.534935 80.6616957,247.371239 81.9497391,247.096022 L82.0801739,246.769935 L82.0801739,247.161239 C83.1673478,243.400152 84.4821304,240.867761 86.0258261,239.563413" id="Fill-15" fill="#312B66"></path>
                    <path d="M54.3953261,247.063478 C54.6125,247.78087 54.8081522,248.476739 54.9822826,249.150435 L54.9822826,249.248261 L55.0475,249.574348 C55.0905435,249.724348 55.1231522,249.876957 55.1453261,250.03087 C55.1661957,250.071304 55.1772826,250.115652 55.1779348,250.161304 C55.1701087,250.182174 55.1701087,250.205652 55.1779348,250.226522 C55.1909783,250.414348 55.223587,250.600217 55.2757609,250.78087 C55.2757609,250.847391 55.2868478,250.913261 55.3083696,250.976522 C55.2992391,251.052174 55.2992391,251.12913 55.3083696,251.204783 L55.3083696,251.335217 L55.373587,251.661304 L55.373587,251.791739 C55.3657609,251.812609 55.3657609,251.836087 55.373587,251.856957 L55.373587,251.922174 C55.3748913,252.020652 55.3859783,252.11913 55.4061957,252.215652 C55.4061957,252.432826 55.4388043,252.672174 55.5040217,252.933043 L55.5040217,253.063478 C55.4916304,253.116957 55.4916304,253.173043 55.5040217,253.226522 C55.5255435,253.596304 55.5477174,253.932826 55.5692391,254.237391 C55.5692391,254.433043 55.5477174,254.607174 55.5040217,254.75913 L55.2431522,255.02 C56.5794565,255.601087 58.0246739,255.89 59.4822826,255.867826 C60.4944565,255.799348 61.4877174,255.556739 62.4170652,255.150435 C62.3994565,255.206522 62.3772826,255.260652 62.3518478,255.313478 C62.9016304,256.062826 63.2903261,256.917174 63.4931522,257.824348 C63.6888043,258.693696 63.5472826,259.150217 63.0692391,259.193913 C62.5911957,259.237609 61.2105435,259.237609 58.9279348,259.193913 C56.6453261,259.150217 54.938587,259.128696 53.8083696,259.128696 C52.6781522,259.128696 52.2757609,258.758913 52.6018478,258.02 C52.8842391,257.32413 53.7542391,256.324348 55.2105435,255.02 L54.3953261,247.063478 Z M62.7757609,255.150435 C62.8409783,254.84587 62.9172826,254.519783 63.0040217,254.172174 C63.0907609,253.824565 63.1344565,253.487391 63.1344565,253.161304 L63.1344565,253.096087 C63.1298913,253.041957 63.1298913,252.987174 63.1344565,252.933043 C63.1344565,252.781087 63.1559783,252.530652 63.1996739,252.183043 C63.211413,252.063696 63.211413,251.943696 63.1996739,251.824348 L63.1996739,251.661304 C63.2101087,251.553043 63.2101087,251.443478 63.1996739,251.335217 L63.1996739,251.172174 C63.1892391,251.107609 63.1892391,251.041087 63.1996739,250.976522 L63.1996739,250.78087 C63.1996739,250.606739 63.2211957,250.422174 63.2648913,250.226522 L63.2648913,250.03087 C63.2759783,249.878913 63.2759783,249.726304 63.2648913,249.574348 C63.2753261,249.466087 63.2753261,249.356522 63.2648913,249.248261 L63.2648913,249.150435 C63.308587,248.541957 63.3738043,247.932826 63.4605435,247.324348 C63.4501087,247.259783 63.4501087,247.193261 63.4605435,247.128696 L62.7757609,255.150435 Z M73.0801087,247.063478 L73.0801087,247.063478 C73.073587,247.095435 73.073587,247.128696 73.0801087,247.161304 L73.0801087,247.063478 Z M73.9931522,255.02 C75.3301087,255.601087 76.7753261,255.89 78.2322826,255.867826 C79.2444565,255.799348 80.2377174,255.556739 81.1670652,255.150435 L73.9931522,255.02 Z M82.2105435,247.161304 C80.9446739,247.424783 79.6559783,247.566957 78.3627174,247.585217 L78.1996739,247.585217 L82.2105435,247.161304 Z M82.0475,247.161304 C82.0370652,247.22587 82.0370652,247.292391 82.0475,247.356957 C81.9607609,247.965435 81.8955435,248.574565 81.8518478,249.183043 L81.8518478,249.28087 C81.8629348,249.38913 81.8629348,249.498696 81.8518478,249.606957 C81.8518478,249.759565 81.8407609,249.912174 81.8192391,250.063478 L81.8192391,250.25913 C81.8192391,250.454783 81.7977174,250.639348 81.7540217,250.813478 L81.7540217,251.00913 C81.743587,251.073696 81.743587,251.140217 81.7540217,251.204783 L81.7540217,251.367826 C81.7651087,251.476087 81.7651087,251.585652 81.7540217,251.693913 L81.7540217,251.856957 C81.7553261,251.976957 81.7442391,252.097609 81.721413,252.215652 C81.721413,252.563261 81.6998913,252.813696 81.6561957,252.965652 C81.6516304,253.019783 81.6516304,253.074565 81.6561957,253.128696 L81.6561957,253.193913 C81.6131522,253.541522 81.5694565,253.878696 81.5257609,254.204783 C81.4820652,254.53087 81.406413,254.856957 81.2975,255.183043 C81.2798913,255.238478 81.2577174,255.293261 81.2322826,255.346087 C81.7207609,256.098696 82.0533696,256.941304 82.2105435,257.824348 C82.4061957,258.693696 82.2646739,259.150217 81.7866304,259.193913 C81.308587,259.237609 79.9279348,259.237609 77.6453261,259.193913 C75.3627174,259.150217 73.6559783,259.128696 72.5257609,259.128696 C71.3955435,259.128696 70.9931522,258.758913 71.3192391,258.02 C71.6016304,257.32413 72.4827174,256.324348 73.9605435,255.02 L74.221413,254.75913 C74.221413,254.607174 74.2429348,254.433043 74.2866304,254.237391 C74.2651087,253.932826 74.2429348,253.596304 74.221413,253.226522 C74.2090217,253.173043 74.2090217,253.116957 74.221413,253.063478 L74.221413,252.933043 C74.1777174,252.672174 74.1451087,252.432826 74.123587,252.215652 C74.1144565,252.117826 74.1144565,252.02 74.123587,251.922174 L74.123587,251.856957 C74.1157609,251.836087 74.1157609,251.812609 74.123587,251.791739 L74.123587,251.661304 L74.0583696,251.335217 L74.0583696,251.204783 C74.0381522,251.130435 74.0277174,251.053478 74.0257609,250.976522 C74.0153261,250.911957 74.0153261,250.845435 74.0257609,250.78087 C73.973587,250.600217 73.9409783,250.414348 73.9279348,250.226522 C73.9083696,250.210217 73.8966304,250.186739 73.8953261,250.161304 C73.9057609,250.118261 73.9057609,250.073913 73.8953261,250.03087 C73.8731522,249.876304 73.8405435,249.723696 73.7975,249.574348 L73.7322826,249.248261 L73.7322826,249.150435 C73.5581522,248.498261 73.373587,247.846087 73.1779348,247.193913 L82.0475,247.161304 Z M82.0801087,247.128696 C83.1672826,243.389783 84.4716304,240.867826 85.9931522,239.563478 C87.4311957,238.414348 88.4883696,236.856957 89.0257609,235.096087 C89.491413,233.594783 89.8298913,232.056304 90.0366304,230.498261 C90.1670652,229.085 90.2322826,228.02 90.2322826,227.302609 L46.3409783,227.302609 L47.3844565,230.628696 C48.2127174,232.903478 49.2046739,235.116304 50.3518478,237.248261 C51.9170652,240.269783 52.9605435,242.465652 53.4822826,243.835217 L54.2975,246.150435 C54.406413,246.476522 54.5146739,246.791522 54.623587,247.096087 C56.3381522,247.457391 58.0892391,247.621739 59.8409783,247.585217 C61.1342391,247.566957 62.4229348,247.425435 63.6888043,247.161304 C63.7103261,246.813696 63.7429348,246.476522 63.7866304,246.150435 C63.7768478,246.052609 63.7768478,245.954783 63.7866304,245.856957 C63.8518478,245.204783 63.938587,244.552609 64.0475,243.900435 C65.3922826,244.395435 66.8225,244.617174 68.2540217,244.552609 C68.7451087,244.551957 69.2348913,244.519348 69.721413,244.454783 C70.6605435,244.354348 71.5879348,244.16913 72.4931522,243.900435 L72.8518478,246.117826 L73.0148913,247.096087 C74.4829348,247.416304 75.9803261,247.58 77.4822826,247.585217 L78.0366304,247.585217 L82.0801087,247.128696 Z" id="Stroke-17" stroke="#000000" stroke-width="4" stroke-linecap="round" stroke-linejoin="round"></path>
                    <path d="M84.8193043,196.324283 L83.1562609,191.693848 C81.5003913,190.639935 79.7545217,189.734065 77.9388696,188.987326 C75.1443043,187.83363 72.1573478,187.214065 69.1345217,187.161239 C64.9266957,187.225804 60.7977826,188.311022 57.101913,190.324283 L56.4497391,190.65037 L51.9497391,201.182978 L51.3953913,202.487326 L47.8084348,210.704717 C47.1999565,212.117978 46.7760435,213.194065 46.5366957,213.932978 C46.1962609,214.981674 45.9132174,216.04863 45.6888696,217.12863 C45.4932174,218.041674 45.3412609,218.867978 45.2323478,219.606891 L45.1671304,220.12863 C45.0803913,220.911239 45.0151739,221.672326 44.9714783,222.411239 C44.9714783,222.672109 44.9499565,222.944065 44.9062609,223.226457 L44.9062609,223.617761 C44.8410435,224.791674 44.8299565,225.90037 44.8736522,226.943848 C45.0764783,230.55037 46.1264783,234.058413 47.9388696,237.182978 C51.4821304,237.81363 55.0586522,238.291674 58.6671304,238.617761 L61.3736522,235.030804 L63.9823478,238.943848 L65.1562609,238.943848 L70.8627826,238.943848 C76.9827826,238.823848 83.0864783,238.257109 89.1236522,237.248196 C91.2582174,233.954065 92.5253913,230.174065 92.8084348,226.259065 C92.8501739,225.368196 92.839087,224.47537 92.7758261,223.585152 C92.689087,222.476457 92.5586522,221.1395 92.3845217,219.574283 C92.254087,218.564717 92.0695217,217.56363 91.8301739,216.574283 C91.613,215.5745 91.3847391,214.682978 91.1453913,213.90037 C90.9001739,213.065587 90.5721304,212.257543 90.1671304,211.487326 L84.8193043,196.324283 Z" id="Fill-19" fill="#312B66"></path>
                    <path d="M84.8193043,196.337326 L83.1562609,191.693848 C81.5003913,190.639935 79.7545217,189.734065 77.9388696,188.987326 C75.1443043,187.83363 72.1573478,187.214065 69.1345217,187.161239 C64.9266957,187.225804 60.7977826,188.311022 57.101913,190.324283 L56.4497391,190.65037 L51.9497391,201.182978" id="Stroke-21" stroke="#000000" stroke-width="4" stroke-linecap="round" stroke-linejoin="round"></path>
                    <path d="M52.0149565,201.182978 L51.4606087,202.487326" id="Stroke-23" stroke="#0C0C0C" stroke-width="4" stroke-linecap="round" stroke-linejoin="round"></path>
                    <path d="M77.1236522,191.726457 L77.5475652,193.161239 L77.6453913,193.487326 L77.2866957,191.465587 C76.073,190.467761 74.7621304,189.593848 73.3736522,188.856891 C71.2527826,187.766457 68.9101739,187.175587 66.5258261,187.12863 L65.6127826,187.12863 C64.3853913,187.2095 63.1716957,187.42863 61.9932174,187.780804 C60.0523478,188.350804 58.1897391,189.161457 56.4497391,190.193848 L55.928,190.487326 L55.1127826,192.280804 L55.2106087,192.704717 L55.504087,191.759065 L59.4171304,207.411239 L64.6345217,203.009065 L69.2649565,207.215587 L69.6562609,206.563413 L77.0584348,191.856891 L77.0910435,191.922109 L77.1236522,191.726457 Z M68.9062609,207.965587 L69.0366957,207.6395 L64.5366957,203.596022 L59.4823478,207.835152 L62.6453913,220.3895 L62.7106087,220.324283 L68.9388696,207.932978 L68.9062609,207.965587 Z" id="Fill-25" fill="#FFFFFF"></path>
                    <polygon id="Fill-27" fill="#CCCCCC" points="69.0366957 207.6395 69.2649565 207.182978 64.601913 202.976457 59.3845217 207.37863 59.4823478 207.835152 64.5366957 203.596022"></polygon>
                    <polygon id="Fill-29" fill="#100D29" points="77.5149565 193.193848 77.0910435 191.856891 77.0584348 191.791674 69.6562609 206.498196 68.9062609 207.965587 62.678 220.356891 62.6127826 220.422109 59.4823478 207.802543 59.3845217 207.346022 55.4714783 191.693848 55.178 192.6395 52.0149565 203.367761 55.8627826 205.846022 53.4497391 211.846022 62.3845217 220.780804 62.3845217 220.87863 62.8084348 220.87863 63.0693043 220.617761 77.4171304 211.846022 74.4823478 205.846022 80.7432174 203.367761 77.6453913 193.519935"></polygon>
                    <path d="M64.178,208.193848 C64.2464783,208.122109 64.2921304,208.030804 64.3084348,207.932978 C64.3071304,207.842326 64.2849565,207.752978 64.2432174,207.672109 C64.1251739,207.546239 63.926913,207.539717 63.8010435,207.657761 C63.7958261,207.662326 63.7912609,207.667543 63.7866957,207.672109 C63.7103913,207.737978 63.6634348,207.831891 63.6562609,207.932978 C63.6308261,208.025587 63.6556087,208.124065 63.7214783,208.193848 C63.7984348,208.319717 63.9627826,208.3595 64.0893043,208.282543 C64.1251739,208.26037 64.1558261,208.23037 64.178,208.193848 M63.7866957,212.302543 C63.7853913,212.211891 63.7632174,212.122543 63.7214783,212.041674 C63.6777826,211.977109 63.6034348,211.939935 63.5258261,211.943848 C63.4306087,211.946457 63.3386522,211.981022 63.2649565,212.041674 C63.1886522,212.107543 63.1416957,212.201457 63.1345217,212.302543 C63.109087,212.395152 63.1338696,212.49363 63.1997391,212.563413 C63.2766957,212.689283 63.4410435,212.729065 63.5675652,212.652109 C63.6034348,212.629935 63.634087,212.599935 63.6562609,212.563413 C63.7247391,212.491674 63.7703913,212.40037 63.7866957,212.302543 M63.101913,216.932978 C63.169087,216.863196 63.2043043,216.76863 63.1997391,216.672109 C63.2134348,216.58537 63.2134348,216.497978 63.1997391,216.411239 C63.0816957,216.28537 62.8834348,216.278848 62.7575652,216.396891 C62.7523478,216.401457 62.7477826,216.406674 62.7432174,216.411239 C62.644087,216.460152 62.5808261,216.561239 62.5801739,216.672109 C62.5756087,216.76863 62.6108261,216.863196 62.678,216.932978 C62.7099565,217.012543 62.7875652,217.064065 62.8736522,217.063413 C62.9747391,217.056891 63.0686522,217.009283 63.1345217,216.932978" id="Fill-31" fill="#CCCCCC"></path>
                    <path d="M62.5801739,220.846022 C61.6847391,225.87037 61.4649565,230.991891 61.928,236.074283" id="Stroke-33" stroke="#100D29" stroke-linecap="square" stroke-linejoin="round"></path>
                    <path d="M48.6888696,208.87863 L47.8736522,210.704717 C47.2651739,212.117978 46.8412609,213.194065 46.601913,213.932978 C46.2614783,214.981674 45.9784348,216.04863 45.754087,217.12863 C45.5584348,218.041674 45.4064783,218.867978 45.2975652,219.606891 L45.2323478,220.12863 C45.1456087,220.911239 45.0803913,221.672326 45.0366957,222.411239 C45.0366957,222.672109 45.0151739,222.944065 44.9714783,223.226457 L44.9714783,223.617761 C44.9062609,224.791674 44.8951739,225.90037 44.9388696,226.943848 C45.1416957,230.55037 46.1916957,234.058413 48.004087,237.182978 C51.5473478,237.81363 55.1238696,238.291674 58.7323478,238.617761 L61.4388696,235.030804 L64.0475652,238.943848 L65.2214783,238.943848 L70.928,238.943848 C77.048,238.823848 83.1516957,238.257109 89.1888696,237.248196 C91.3234348,233.954065 92.5906087,230.174065 92.8736522,226.259065 C92.9153913,225.368196 92.9043043,224.47537 92.8410435,223.585152 C92.7543043,222.476457 92.6238696,221.1395 92.4497391,219.574283 C92.3193043,218.564717 92.1347391,217.56363 91.8953913,216.574283 C91.6782174,215.5745 91.4499565,214.682978 91.2106087,213.90037" id="Stroke-35" stroke="#000000" stroke-width="3" stroke-linecap="round" stroke-linejoin="round"></path>
                    <path d="M65.1888696,225.313413 C65.3532174,225.190152 65.4497391,224.997109 65.4497391,224.791674 C65.4510435,224.577109 65.3551739,224.372978 65.1888696,224.237326 C65.059087,224.08537 64.8666957,224.001239 64.6671304,224.009065 C64.4603913,224.012978 64.2627826,224.0945 64.1127826,224.237326 C63.9634348,224.382761 63.8812609,224.58363 63.8845217,224.791674 C63.8766957,224.991239 63.9608261,225.18363 64.1127826,225.313413 C64.2543043,225.472543 64.4545217,225.567109 64.6671304,225.574283 C64.8725652,225.574283 65.0656087,225.477761 65.1888696,225.313413 M65.1888696,231.346022 C65.4953913,231.066891 65.5175652,230.592761 65.2384348,230.286239 C65.0923478,230.125804 64.8843043,230.037109 64.6671304,230.041674 C64.4656087,230.04363 64.2706087,230.112109 64.1127826,230.237326 C63.8095217,230.5445 63.8095217,231.038848 64.1127826,231.346022 C64.2627826,231.488848 64.4603913,231.57037 64.6671304,231.574283 C64.8666957,231.582109 65.059087,231.497978 65.1888696,231.346022" id="Fill-37" fill="#100D29"></path>
                    <path d="M82.3084348,208.585152 C82.4525652,208.354283 82.6162609,208.135804 82.7975652,207.932978 C82.9058261,207.811022 83.0036522,207.679935 83.0910435,207.541674 C82.939087,207.650587 82.6782174,207.81363 82.3084348,208.030804 C81.7658261,208.298196 81.3125652,208.716891 81.004087,209.237326 C80.8116957,209.890152 80.8814783,210.591891 81.1997391,211.193848 C81.2284348,211.297543 81.2727826,211.396674 81.3301739,211.487326 C81.6321304,212.221022 81.9921304,212.929935 82.4062609,213.606891 L83.6127826,213.606891 C83.6897391,213.307543 83.6897391,212.993196 83.6127826,212.693848 C83.5795217,212.468196 83.5136522,212.248413 83.4171304,212.041674 L83.2866957,211.682978 C83.1256087,211.396022 83.0675652,211.062109 83.1236522,210.737326 C83.168,210.544283 83.168,210.343413 83.1236522,210.15037 C83.0793043,209.995152 83.0245217,209.842543 82.9606087,209.693848 L82.7975652,209.269935 L82.6671304,208.943848 L82.6671304,209.759065 L82.6671304,209.922109 C82.6671304,210.074065 82.613,210.15037 82.504087,210.15037 C82.3084348,209.780587 82.1564783,209.509283 82.0475652,209.335152 C81.9386522,209.161022 82.0260435,208.922326 82.3084348,208.617761 L82.3084348,208.585152 Z M81.0366957,211.519935 C81.0210435,211.806239 80.9773478,212.089935 80.9062609,212.367761 C80.8332174,212.578413 80.7895217,212.797543 80.7758261,213.019935 C80.7106087,213.21037 80.7106087,213.416457 80.7758261,213.606891 L82.0801739,213.606891 L82.1453913,213.541674 L80.9062609,211.193848 L81.004087,211.487326 L81.0366957,211.519935 Z" id="Fill-39" fill="#FDBB2A"></path>
                    <polygon id="Fill-41" fill="#1C193C" points="83.9388696 215.204717 80.3193043 215.204717 80.3193043 215.498196 83.9388696 215.498196"></polygon>
                    <polyline id="Stroke-43" stroke="#000000" stroke-width="2" stroke-linecap="round" stroke-linejoin="round" points="79.601913 214.552543 79.601913 213.737326 84.9823478 213.737326 84.9823478 214.780804"></polyline>
                    <path d="M74.3845217,198.117761 C73.5301739,198.124935 72.683,198.267761 71.8736522,198.541674 C69.7221304,199.120152 67.7349565,200.192326 66.0693043,201.672109 L66.004087,203.563413 L69.5584348,203.367761 L66.004087,203.563413 L65.9062609,205.063413 C67.1095217,206.61037 68.6336522,207.878196 70.3736522,208.780804 C71.2677826,209.322761 72.2956087,209.605152 73.3410435,209.596022 C74.4653913,209.55363 75.4723478,208.886457 75.9497391,207.867761 C76.0377826,207.662326 76.0710435,207.437978 76.0475652,207.215587 C76.0899565,206.846457 76.0788696,206.472761 76.0149565,206.106891 C76.0051739,206.063848 76.0051739,206.0195 76.0149565,205.976457 C75.8701739,205.332109 75.7716957,204.67863 75.7214783,204.019935 C75.8897391,203.189065 76.1186522,202.371891 76.4062609,201.574283 C76.718,200.822978 76.718,199.977761 76.4062609,199.226457 C76.2399565,198.88537 75.964087,198.610152 75.6236522,198.443848 C75.2388696,198.246891 74.8162609,198.13537 74.3845217,198.117761 M63.4932174,201.672109 C61.9612609,200.182543 60.0764783,199.105804 58.0149565,198.541674 C57.229087,198.265804 56.4021304,198.122326 55.5693043,198.117761 C55.1349565,198.145804 54.7123478,198.267761 54.3301739,198.476457 C53.9538696,198.6395 53.6356087,198.912761 53.4171304,199.259065 C53.044087,199.982978 52.9508261,200.819065 53.1562609,201.606891 C53.4386522,203.041674 53.5801739,203.856891 53.5801739,204.052543 C53.4347391,204.715152 53.2501739,205.36863 53.0258261,206.009065 C53.0356087,206.052109 53.0356087,206.096457 53.0258261,206.1395 C52.9247391,206.500804 52.8699565,206.873196 52.8627826,207.248196 C52.8288696,207.464065 52.8288696,207.6845 52.8627826,207.90037 C53.2332174,208.933413 54.2108261,209.624717 55.3084348,209.62863 C56.3943043,209.630587 57.461913,209.3495 58.4062609,208.813413 C60.251913,207.901674 61.901913,206.638413 63.2649565,205.096022 L63.3953913,203.596022 L59.8084348,203.40037 L63.3953913,203.596022 L63.4932174,201.704717" id="Fill-45" fill="#FDBB2A"></path>
                    <path d="M63.3627826,203.563413 L63.4606087,201.672109 C61.9286522,200.182543 60.0438696,199.105804 57.9823478,198.541674 C57.1964783,198.265804 56.3695217,198.122326 55.5366957,198.117761 C55.1023478,198.145804 54.6797391,198.267761 54.2975652,198.476457 C53.9212609,198.6395 53.6036522,198.912109 53.3845217,199.259065 C53.0114783,199.982978 52.9182174,200.819065 53.1236522,201.606891 C53.4060435,203.041674 53.5475652,203.856891 53.5475652,204.052543 C53.4021304,204.715152 53.2175652,205.36863 52.9932174,206.009065 C53.003,206.052109 53.003,206.096457 52.9932174,206.1395 C52.8921304,206.500804 52.8373478,206.873196 52.8301739,207.248196 C52.7962609,207.464065 52.7962609,207.6845 52.8301739,207.90037 C53.2006087,208.933413 54.1782174,209.624717 55.2758261,209.62863 C56.3616957,209.630587 57.4293043,209.3495 58.3736522,208.813413 C60.2193043,207.901674 61.8693043,206.638413 63.2323478,205.096022 L63.3627826,203.563413 Z M65.9062609,205.063413 L66.004087,203.563413 L66.0693043,201.672109 C67.7349565,200.192326 69.7221304,199.120152 71.8736522,198.541674 C72.683,198.267761 73.5301739,198.124935 74.3845217,198.117761 C74.8188696,198.145804 75.2414783,198.267761 75.6236522,198.476457 C75.9647391,198.642761 76.2399565,198.91863 76.4062609,199.259065 C76.718,200.01037 76.718,200.855587 76.4062609,201.606891 C76.1186522,202.4045 75.8897391,203.221674 75.7214783,204.052543 C75.7716957,204.711239 75.8701739,205.364717 76.0149565,206.009065 C76.0051739,206.052109 76.0051739,206.096457 76.0149565,206.1395 C76.0788696,206.50537 76.0899565,206.879065 76.0475652,207.248196 C76.0716957,207.470587 76.0377826,207.694935 75.9497391,207.90037 C75.4723478,208.919065 74.4653913,209.586239 73.3410435,209.62863 C72.2956087,209.637761 71.2677826,209.35537 70.3736522,208.813413 C68.6303913,207.901674 67.1062609,206.622109 65.9062609,205.063413 Z" id="Stroke-47" stroke="#000000" stroke-width="3" stroke-linecap="round" stroke-linejoin="round"></path>
                    <path d="M59.8084348,203.367761 L63.3953913,203.563413 M69.5910435,203.367761 L66.0366957,203.563413" id="Stroke-49" stroke="#000000" stroke-width="2" stroke-linecap="round" stroke-linejoin="round"></path>
                    <path d="M66.5584348,205.943848 C67.223,205.303413 67.5993043,204.421022 67.601913,203.498196 C67.736913,202.647109 67.4727826,201.78037 66.8845217,201.15037 C66.3132174,200.64037 65.5612609,200.382109 64.7975652,200.432978 C63.9895217,200.419935 63.199087,200.672326 62.5475652,201.15037 C61.8477826,201.726239 61.4512609,202.591674 61.4714783,203.498196 C61.3521304,204.39363 61.6253913,205.297543 62.2214783,205.976457 C62.794087,206.536022 63.574087,206.831457 64.3736522,206.791674 C65.1810435,206.785804 65.9584348,206.4845 66.5584348,205.943848" id="Fill-51" fill="#FDBB2A"></path>
                    <path d="M67.6345217,203.498196 C67.631913,204.421022 67.2556087,205.303413 66.5910435,205.943848 C65.9910435,206.4845 65.2136522,206.785804 64.4062609,206.791674 C63.6066957,206.831457 62.8266957,206.536022 62.254087,205.976457 C61.658,205.297543 61.3847391,204.39363 61.504087,203.498196 C61.4838696,202.591674 61.8803913,201.726239 62.5801739,201.15037 C63.2316957,200.672326 64.0221304,200.419935 64.8301739,200.432978 C65.5938696,200.382109 66.3458261,200.64037 66.9171304,201.15037 C67.5053913,201.78037 67.7701739,202.647109 67.6345217,203.498196 Z" id="Stroke-53" stroke="#000000" stroke-width="2" stroke-linecap="round" stroke-linejoin="round"></path>
                    <path d="M55.8953913,3.11123913 C52.4708261,2.7421087 49.0084348,3.2468913 45.8323478,4.57863043 C42.8916957,5.71080435 40.2243043,7.45341304 38.0062609,9.69167391 C34.4297391,13.3973261 32.1816957,18.1836304 31.6149565,23.3025435 C30.9973478,27.9675435 31.4323478,33.1438478 32.9193043,38.8308043 C34.1708261,43.7038478 35.8377826,48.4601522 37.901913,53.0481957 C40.4877826,58.5597174 43.6932174,63.7581957 47.4562609,68.5438478 C50.0995217,71.9527609 52.069087,74.3286304 53.3649565,75.6721087 C53.9688696,76.1853696 54.5460435,76.7292826 55.0932174,77.3025435 C56.539087,78.6153696 58.1506087,79.7338478 59.8866957,80.6286304 C62.186913,81.9329783 64.0495217,82.3679783 65.4758261,81.9329783 C66.8193043,81.463413 68.3956087,80.2288478 70.204087,78.2286304 C70.2516957,78.1151522 70.328,78.0160217 70.4258261,77.9416739 C71.8710435,76.3516739 72.6588696,74.2725435 72.6301739,72.1242826 L72.428,69.7373261 L71.201913,65.6286304 C70.3456087,63.9029783 69.3066957,62.2745 68.104087,60.7699348 C65.2534348,56.8536304 62.7921304,52.6686304 60.754087,48.2742826 C58.7714783,43.7136304 58.0475652,41.615587 58.5823478,41.9808043 C59.629087,42.4986304 60.7521304,42.8442826 61.9084348,43.0047174 C63.0021304,43.2512391 64.1147391,43.4012391 65.2345217,43.4547174 C69.3256087,43.4547174 72.5434348,42.3897174 74.8866957,40.2590652 C77.2299565,38.128413 78.251913,35.2745 77.951913,31.6960217 C77.4047391,24.9766739 75.173,18.5031957 71.4627826,12.8742826 C69.7834348,10.2786304 67.5849565,8.05797826 65.0062609,6.35254348 C62.2677826,4.56754348 59.1458261,3.45623913 55.8953913,3.11123913" id="Fill-55" fill="#FFFFFF"></path>
                    <path d="M72.428,69.7373261 L71.201913,65.6286304 C70.3456087,63.9036304 69.3066957,62.2745 68.104087,60.7699348 C65.2534348,56.8536304 62.7921304,52.6686304 60.754087,48.2742826 C58.7714783,43.7136304 58.0475652,41.615587 58.5823478,41.9808043 C59.629087,42.4986304 60.7521304,42.8442826 61.9084348,43.0047174 C63.0021304,43.2512391 64.1147391,43.4012391 65.2345217,43.4547174 C69.3256087,43.4547174 72.5434348,42.3897174 74.8866957,40.2590652 C77.2299565,38.128413 78.251913,35.2745 77.951913,31.6960217 C77.4047391,24.9766739 75.173,18.5031957 71.4627826,12.8742826 C69.7834348,10.2786304 67.5849565,8.05797826 65.0062609,6.35254348 C62.2612609,4.56884783 59.1321304,3.46276087 55.8758261,3.12428261 C52.4512609,2.75515217 48.9888696,3.25993478 45.8127826,4.59167391 C42.8721304,5.72384783 40.2047391,7.46645652 37.9866957,9.70471739 C34.4095217,13.4103696 32.1621304,18.1966739 31.5953913,23.315587 C30.9777826,27.980587 31.4127826,33.1568913 32.8997391,38.8438478 C34.1506087,43.7168913 35.8175652,48.4731957 37.8823478,53.0612391 C40.4682174,58.5727609 43.6736522,63.7712391 47.4366957,68.5568913 C50.0799565,71.9658043 52.0495217,74.3416739 53.3453913,75.6851522 C53.9493043,76.198413 54.5264783,76.7423261 55.0736522,77.315587 C56.5195217,78.628413 58.1310435,79.7468913 59.8671304,80.6416739 C62.1673478,81.9460217 64.0299565,82.3810217 65.4562609,81.9460217 C66.7997391,81.4764565 68.3760435,80.2418913 70.1845217,78.2416739 C70.2321304,78.1281957 70.3084348,78.0297174 70.4062609,77.9547174 C71.8514783,76.3647174 72.6393043,74.285587 72.6106087,72.1373261 L72.428,69.7373261 Z" id="Stroke-57" stroke="#0C0C0C" stroke-width="3" stroke-linecap="round" stroke-linejoin="round"></path>
                    <path d="M47.078,27.7503696 C46.1388696,29.1981957 45.7345217,31.2114565 45.8649565,33.7895 C46.1212609,39.6897174 48.5127826,46.8264565 53.0388696,55.2003696 C57.5499565,63.7458043 63.5075652,71.4440652 70.6475652,77.9547174 C72.109087,76.3725435 72.9093043,74.2908043 72.8845217,72.1373261 L72.6953913,69.7699348 C70.2406087,67.1253696 67.9560435,64.3288478 65.854087,61.3960217 C64.0606087,58.8590652 62.426913,56.2125435 60.9627826,53.4721087 C60.154087,51.9375435 58.8236522,49.1351522 56.9714783,45.065587 C56.801913,44.6827609 56.4497391,43.7136304 55.9149565,42.1568913 C55.3801739,40.5179783 55.0606087,39.5371087 54.9562609,39.215587 L54.8910435,39.0264565 C54.8473478,39.0701522 54.7847391,39.0375435 54.701913,38.9286304 C53.7484348,37.933413 52.9025652,36.8403696 52.178,35.6677609 C51.3086522,34.198413 50.254087,32.3351522 49.0149565,30.0786304 C48.521913,29.1877609 47.8645217,28.3973261 47.078,27.7503696" id="Fill-59" fill="#FDADA3"></path>
                    <path d="M47.9388696,28.2264565 C48.7156087,28.8681957 49.3658261,29.6488478 49.8562609,30.5286304" id="Stroke-61" stroke="#0C0C0C" stroke-width="3" stroke-linecap="round" stroke-linejoin="round"></path>
                    <path d="M49.8562609,30.5286304 C51.0908261,32.7851522 52.1453913,34.648413 53.0193043,36.1177609" id="Stroke-63" stroke="#0C0C0C" stroke-width="3" stroke-linecap="round" stroke-linejoin="round"></path>
                    <path d="M53.0193043,36.1177609 C53.7556087,37.2818913 54.6008261,38.3742826 55.5432174,39.3786304" id="Stroke-65" stroke="#0C0C0C" stroke-width="3" stroke-linecap="round" stroke-linejoin="round"></path>
                    <path d="M55.5432174,39.4112391 C56.7112609,40.6145 58.0853913,41.5992826 59.5997391,42.3199348" id="Stroke-67" stroke="#0C0C0C" stroke-width="3" stroke-linecap="round" stroke-linejoin="round"></path>
                    <path d="M46.0866957,27.2677609 C46.7597391,27.4660217 47.3884348,27.7914565 47.9388696,28.2264565" id="Stroke-69" stroke="#0C0C0C" stroke-width="3" stroke-linecap="round" stroke-linejoin="round"></path>
                    <path d="M119.312783,19.7873261 C118.608435,14.7179783 117.180174,10.7436304 115.028,7.86558696 C112.323435,4.2871087 108.116913,1.94384783 102.408435,0.835152174 C96.4775652,-0.359630435 90.3177826,0.449717391 84.8975652,3.13732609 C81.2232174,5.02602174 78.139087,7.88906522 75.9823478,11.413413 C73.343,15.5390652 71.7921304,20.2666739 71.4758261,25.1547174 C71.0532174,29.3801522 72.3562609,33.5977609 75.0888696,36.8481957 C78.263,40.6614565 82.343,41.6527609 87.3301739,39.8221087 C86.6043043,42.7614565 85.0495217,46.3092826 82.6671304,50.465587 C77.6949565,59.0410217 70.9788696,66.4771087 62.951913,72.2938478 C64.6912609,73.8068913 69.5695217,74.8940652 77.5866957,75.5547174 C81.5910435,75.8938478 85.4147391,76.0745 89.0584348,76.0960217 C94.8758261,72.965587 100.830174,67.0223261 106.921478,58.265587 C113.099522,49.3177609 117.126043,40.7110217 118.999739,32.4460217 C119.872348,28.2825435 119.97213,23.9938478 119.293217,19.7938478 L119.312783,19.7873261 Z M85.4714783,77.0221087 C85.9847391,77.4264565 87.1782174,77.128413 89.051913,76.1286304 C86.1562609,76.3197174 84.9627826,76.6177609 85.4714783,77.0221087 L85.4714783,77.0221087 Z" id="Fill-71" fill="#FFFFFF"></path>
                    <path d="M89.0323478,76.1286304 C94.8497391,72.9981957 100.804087,67.0549348 106.895391,58.2981957 C113.073435,49.3503696 117.099957,40.7436304 118.973652,32.4786304 C119.859304,28.3060217 119.967565,24.005587 119.293217,19.7938478 C118.58887,14.7245 117.160609,10.7501522 115.008435,7.8721087 C112.30387,4.29363043 108.097348,1.95036957 102.38887,0.841673913 C96.458,-0.353108696 90.2982174,0.45623913 84.878,3.14384783 C81.2036522,5.03254348 78.1195217,7.89558696 75.9627826,11.4199348 C73.3234348,15.545587 71.7725652,20.2731957 71.4562609,25.1612391 C71.0336522,29.3866739 72.3366957,33.6042826 75.0693043,36.8547174 C78.2434348,40.6679783 82.3234348,41.6592826 87.3106087,39.8286304 C86.5847391,42.7679783 85.0299565,46.3158043 82.6475652,50.4721087 C77.6753913,59.0475435 70.9593043,66.4836304 62.9323478,72.3003696 C64.6716957,73.813413 69.5499565,74.900587 77.5671304,75.5612391 C81.5714783,75.9003696 85.3951739,76.0810217 89.0388696,76.1025435 C87.1651739,77.1023261 85.9716957,77.4003696 85.4584348,76.9960217 C84.9458261,76.5916739 86.1366957,76.3027609 89.0323478,76.1286304 Z" id="Stroke-73" stroke="#0C0C0C" stroke-width="3" stroke-linecap="round" stroke-linejoin="round"></path>
                    <path d="M89.2606087,38.7395 C88.943,41.8699348 87.4951739,45.7829783 84.9171304,50.4786304 C79.7825652,59.8308043 71.6127826,68.4049348 60.4084348,76.2003696 C60.5995217,76.6914565 61.2823478,76.8310217 62.4562609,76.6177609 C63.0216957,76.513413 63.578,76.3627609 64.1193043,76.1677609 C64.9886522,75.8677609 65.9473478,76.2310217 66.9953913,77.2568913 C67.9345217,78.1523261 68.7543043,78.2808043 69.454087,77.6416739 C70.8249565,76.4768913 72.5212609,75.7614565 74.3127826,75.5938478 C76.2921304,75.3179783 78.113,74.3586304 79.4584348,72.8808043 C80.5827826,71.578413 81.6177826,70.2016739 82.5562609,68.7590652 C83.4993043,67.3249348 84.5688696,65.9781957 85.751913,64.7351522 C88.8608261,61.7958043 92.0127826,57.0871087 95.2084348,50.6090652 C99.469087,41.9827609 101.17387,34.2721087 100.321478,27.4764565 L89.2606087,38.7395 Z" id="Fill-75" fill="#FDADA3"></path>
                    <path d="M86.5736522,40.0829783 C88.4258261,39.5651522 90.1612609,38.6971087 91.6866957,37.5264565 C92.8716957,36.4725435 93.8473478,35.2047174 94.5627826,33.7895 L96.0953913,30.9460217 C96.6197391,29.8868913 97.3997391,28.9745 98.3649565,28.2916739 C98.9649565,27.9062391 99.626913,27.6258043 100.321478,27.463413" id="Stroke-77" stroke="#0C0C0C" stroke-width="3" stroke-linecap="round" stroke-linejoin="round"></path>
                    <path d="M86.2866957,60.1438478 C84.6321304,59.7695 82.958,59.4910217 81.2714783,59.3090652 C77.5847391,58.9679783 73.8745217,58.9510217 70.1845217,59.2568913 C64.9332174,59.5575435 59.7321304,60.4523261 54.6823478,61.9242826 L54.5453913,61.9242826 C52.7108261,62.4636304 50.8149565,63.1158043 48.8584348,63.8808043 C42.6575652,66.4568913 36.9275652,70.0451522 31.901913,74.4981957 C30.319087,75.9897174 28.8451739,77.4460217 27.4801739,78.8677609 C15.4932174,91.5545 7.26278261,109.831022 2.78886957,133.696022 C0.558434783,144.1745 0.162565217,153.46537 1.60191304,161.569935 C5.03234783,180.295804 18.5277826,192.417761 42.0888696,197.935152 C44.0499565,198.509065 45.8016957,198.944065 47.3453913,199.2395 C57.2421304,201.353848 67.3951739,202.013196 77.4823478,201.196022 C88.1316957,200.209283 98.6166957,197.899935 108.695391,194.322109 L108.806261,194.243848 C110.545609,193.669935 112.656043,192.878848 115.13887,191.869935 C136.056043,181.609283 146.982565,168.239717 147.91713,151.761239 C148.960609,131.0045 139.975609,107.939717 120.962783,82.565587 C118.061261,78.6199348 114.683,75.0473261 110.906261,71.9286304 C109.691261,70.9171087 108.421478,69.9721087 107.104087,69.0981957 C100.896696,64.6392826 93.7932174,61.5838478 86.2866957,60.1438478" id="Fill-79" fill="#FFFFFF"></path>
                    <path d="M48.4084348,63.7568913 C42.2056087,66.3297174 36.4749565,69.9179783 31.451913,74.3742826 C30.1475652,75.5436304 28.6736522,76.9895 27.0301739,78.7112391 C15.0608261,91.415587 6.82126087,109.700587 2.31278261,133.565587 C0.103869565,144.061022 -0.282869565,153.344065 1.15191304,161.413413 C4.58234783,180.156891 18.0777826,192.287326 41.6388696,197.804717 C43.3299565,198.308848 45.0693043,198.743848 46.8562609,199.109065 C56.7516957,201.233848 66.9060435,201.893196 76.9932174,201.065587 C87.6536522,200.080152 98.1484348,197.762326 108.232348,194.165587 L108.343217,194.113413 C110.643435,193.304717 112.75387,192.5045 114.675826,191.713413 C135.593,181.452761 146.510391,168.083196 147.428,151.604717 C148.506043,130.865587 139.530174,107.800152 120.499739,82.4090652 C117.594304,78.4542826 114.217348,74.8692826 110.443217,71.7329783 C109.329957,70.8153696 108.071261,69.8808043 106.66713,68.9286304 C100.455174,64.460587 93.3451739,61.3979783 85.8301739,59.9547174 C84.169087,59.5758043 82.4851739,59.3058043 80.7888696,59.1460217 C77.1027826,58.7879783 73.3912609,58.7703696 69.701913,59.0938478 C64.4525652,59.4121087 59.254087,60.3068913 54.1997391,61.7612391 L54.0888696,61.7612391 C52.163,62.3292826 50.2664783,62.9958043 48.4084348,63.7568913 Z" id="Stroke-81" stroke="#0C0C0C" stroke-width="3" stroke-linecap="round" stroke-linejoin="round"></path>
                    <path d="M117.428,74.863413 L117.428,74.8242826 C117.25387,74.7023261 114.769087,73.5395 109.973652,71.3351522 C104.756261,68.930587 97.969087,64.378413 89.6127826,57.6786304 L89.6127826,57.6329783 L88.2627826,60.2416739 C90.7338696,63.0642826 93.4488696,65.6631957 96.3758261,68.0090652 C98.3427826,69.5292826 100.434957,70.8792826 102.630174,72.0460217 C104.612783,73.1025435 106.534739,74.0266739 108.395391,74.8177609 C110.029739,75.5325435 111.709087,76.138413 113.423652,76.6308043 L115.745391,77.2829783 L117.428,74.863413 Z" id="Fill-83" fill="#FFCC00"></path>
                    <path d="M127.797565,60.613413 L118.080174,62.0025435 L114.310609,62.5895 L114.310609,62.5047174 L114.382348,49.1351522 L102.114957,54.9590652 L101.964957,54.9199348 L99.8193043,48.4308043 L97.6410435,41.9742826 L90.1997391,56.4981957 L90.1997391,56.5764565 L89.6388696,57.6525435 L89.6388696,57.6981957 C97.9866957,64.3979783 104.77387,68.9501522 109.999739,71.3547174 C114.78213,73.5545 117.266913,74.7179783 117.454087,74.8438478 L127.797565,60.613413 Z" id="Fill-85" fill="#FFDF00"></path>
                    <path d="M118.080174,62.0025435 L114.271478,62.4981957 M114.323652,62.465587 L114.897565,48.2481957 L102.101913,54.9525435 L99.8193043,48.4308043 M117.493217,74.8699348 L117.493217,74.8699348 L115.771478,77.2373261 L113.449739,76.5851522 C111.735174,76.0927609 110.055826,75.4868913 108.421478,74.7721087 C106.564739,73.9810217 104.649957,73.0653696 102.675826,72.0264565 C100.485174,70.8525435 98.393,69.5025435 96.4214783,67.9895 C93.491913,65.6345 90.773,63.0290652 88.2953913,60.2025435 L89.6453913,57.5938478 M99.8193043,48.4373261 L97.6410435,41.9808043 L90.1997391,56.4981957 L90.1997391,56.5764565 L89.6388696,57.6525435 M117.473652,74.8503696 L127.797565,60.613413 L118.080174,62.0090652" id="Stroke-87" stroke="#000000" stroke-width="3" stroke-linecap="round" stroke-linejoin="round"></path>
                    <path d="M97.8888696,37.7612391 C96.8238696,37.6881957 95.7758261,38.053413 94.9866957,38.7721087 C94.1688696,39.4751522 93.6647391,40.4749348 93.5845217,41.5503696 C93.4971304,42.6264565 93.8584348,43.6908043 94.5823478,44.4916739 C96.0543043,46.145587 98.5782174,46.3197174 100.262783,44.8829783 C101.103435,44.1995 101.622565,43.198413 101.697565,42.1177609 C101.799957,39.8781957 100.116043,37.9581957 97.8823478,37.7677609 L97.8888696,37.7612391 Z M115.399739,43.6242826 C114.334739,43.5512391 113.286696,43.9164565 112.497565,44.6351522 C111.679739,45.3381957 111.175609,46.3379783 111.095391,47.413413 C111.008,48.4895 111.369304,49.5538478 112.093217,50.3547174 C113.565174,52.0086304 116.089087,52.1827609 117.773652,50.7460217 C118.614304,50.0625435 119.133435,49.0614565 119.208435,47.9808043 C119.310826,45.7418913 117.626913,43.8212391 115.393217,43.6308043 L115.399739,43.6242826 Z M131.436696,63.9003696 C132.277348,63.2168913 132.796478,62.2158043 132.871478,61.1351522 C132.97387,58.8962391 131.289957,56.975587 129.056261,56.7851522 C127.991261,56.7121087 126.943217,57.0773261 126.154087,57.7960217 C125.336261,58.4990652 124.83213,59.4988478 124.751913,60.5742826 C124.664522,61.6503696 125.025826,62.7147174 125.749739,63.515587 C127.221696,65.1695 129.745609,65.3436304 131.430174,63.9068913 L131.436696,63.9003696 Z" id="Fill-89" fill="#FFFFFF"></path>
                    <path d="M132.878,61.115587 C132.803,62.1962391 132.28387,63.1973261 131.443217,63.8808043 C129.758652,65.3175435 127.234739,65.143413 125.762783,63.4895 C125.03887,62.6886304 124.677565,61.6242826 124.764957,60.5481957 C124.845174,59.4727609 125.349304,58.4729783 126.16713,57.7699348 C126.956261,57.0512391 128.004304,56.6860217 129.069304,56.7590652 C131.303,56.9495 132.986913,58.8701522 132.884522,61.1090652 L132.878,61.115587 Z M119.228,47.9481957 C119.153,49.0288478 118.63387,50.0299348 117.793217,50.713413 C116.108652,52.1501522 113.584739,51.9760217 112.112783,50.3221087 C111.38887,49.5212391 111.027565,48.4568913 111.114957,47.3808043 C111.195174,46.3053696 111.699304,45.305587 112.51713,44.6025435 C113.306261,43.8838478 114.354304,43.5186304 115.419304,43.5916739 C117.653,43.7821087 119.336913,45.7027609 119.234522,47.9416739 L119.228,47.9481957 Z M101.723652,42.0786304 C101.648652,43.1592826 101.129522,44.1603696 100.28887,44.8438478 C98.6043043,46.280587 96.0803913,46.1064565 94.6084348,44.4525435 C93.8845217,43.6516739 93.5232174,42.5873261 93.6106087,41.5112391 C93.6908261,40.4358043 94.1949565,39.4360217 95.0127826,38.7329783 C95.801913,38.0142826 96.8499565,37.6490652 97.9149565,37.7221087 C100.148652,37.9125435 101.832565,39.8331957 101.730174,42.0721087 L101.723652,42.0786304 Z" id="Stroke-91" stroke="#000000" stroke-width="3" stroke-linecap="round" stroke-linejoin="round"></path>
                    <path d="M67.8627826,189.182978 C66.8877826,188.884283 65.8351739,188.977543 64.928,189.443848 C63.8408261,189.90037 62.7973478,190.356891 61.7975652,190.813413 C61.3586522,191.113413 60.8245217,191.241239 60.2975652,191.172109 C60.101913,191.106891 59.8195217,190.813413 59.4497391,190.291674 C59.0812609,189.617326 58.5262609,189.062326 57.851913,188.693848 C57.5160435,188.53863 57.143,188.482543 56.7758261,188.530804 C56.3982174,188.567978 56.0427826,188.728413 55.7649565,188.987326 C55.2712609,189.54363 55.1682174,190.345152 55.504087,191.009065 C55.7864783,191.596022 56.1021304,192.2045 56.4497391,192.835152 L50.9062609,196.585152 C49.601913,197.4545 48.2760435,198.334935 46.928,199.226457 C45.6973478,199.881891 44.959087,201.192761 45.0366957,202.585152 C45.1149565,203.881022 45.6321304,205.112326 46.504087,206.074283 C47.269087,206.993196 48.4064783,207.5195 49.601913,207.509065 C50.9173478,207.4745 52.2001739,207.091674 53.3193043,206.40037 C54.574087,205.658196 55.7825652,204.841674 56.9388696,203.954717 C58.1662609,203.007109 59.5149565,202.228413 60.9497391,201.6395 C61.9893043,201.232543 62.9832174,200.71863 63.9171304,200.106891 C64.4127826,199.6895 64.8223478,199.180152 65.1236522,198.606891 C65.464087,197.873848 65.599087,197.062543 65.5149565,196.259065 C65.4771304,195.4895 65.2293043,194.74537 64.7975652,194.106891 C66.0164783,193.762543 67.1799565,193.246022 68.254087,192.574283 C68.8495217,192.145804 69.191913,191.44863 69.1671304,190.715587 C69.1195217,189.972109 68.5886522,189.34863 67.8627826,189.182978" id="Fill-93" fill="#FFFFFF"></path>
                    <path d="M56.4823478,192.802543 C56.1347391,192.171891 55.819087,191.563413 55.5366957,190.976457 C55.2008261,190.312543 55.3038696,189.511022 55.7975652,188.954717 C56.0753913,188.695804 56.4308261,188.53537 56.8084348,188.498196 C57.1756087,188.449935 57.5486522,188.506022 57.8845217,188.661239 C58.5588696,189.029717 59.1138696,189.584717 59.4823478,190.259065 C59.8521304,190.780804 60.1345217,191.074283 60.3301739,191.1395 C60.8571304,191.20863 61.3912609,191.080804 61.8301739,190.780804 C62.8299565,190.324283 63.8734348,189.867761 64.9606087,189.411239 C65.8677826,188.944935 66.9203913,188.851674 67.8953913,189.15037 C68.6323478,189.319935 69.1658261,189.959717 69.1997391,190.715587 C69.2245217,191.44863 68.8821304,192.145804 68.2866957,192.574283 C67.2125652,193.246022 66.049087,193.762543 64.8301739,194.106891 C65.261913,194.74537 65.5097391,195.4895 65.5475652,196.259065 C65.6316957,197.062543 65.4966957,197.873848 65.1562609,198.606891 C64.8549565,199.180152 64.4453913,199.6895 63.9497391,200.106891 C63.0158261,200.71863 62.021913,201.232543 60.9823478,201.6395 C59.5475652,202.228413 58.1988696,203.007109 56.9714783,203.954717 C55.8151739,204.841674 54.6066957,205.658196 53.351913,206.40037 C52.2327826,207.091674 50.9499565,207.4745 49.6345217,207.509065 C48.439087,207.5195 47.3016957,206.993196 46.5366957,206.074283 C45.653,205.116891 45.1234348,203.885587 45.0366957,202.585152 C44.9401739,201.188848 45.6660435,199.86363 46.8953913,199.193848 C48.1997391,198.302326 49.5256087,197.421891 50.8736522,196.552543 L56.4823478,192.802543 Z" id="Stroke-95" stroke="#000000" stroke-width="3" stroke-linecap="round" stroke-linejoin="round"></path>
                    <path d="M54.4932174,193.813413 C54.1077826,193.454065 53.554087,193.340587 53.0584348,193.519935 C52.114087,193.997326 51.1997391,194.530804 50.3193043,195.117761 C48.9060435,195.987109 46.9495217,197.302543 44.4497391,199.063413 C41.9499565,200.824283 40.493,202.084935 40.0801739,202.846022 C39.6327826,203.67363 39.3549565,204.583413 39.2649565,205.519935 C39.154087,206.637109 39.3451739,207.763413 39.8193043,208.780804 C40.3736522,209.966457 41.3336522,210.914717 42.5258261,211.454717 C43.8673478,212.108196 45.4273478,212.144065 46.7975652,211.552543 C48.319087,210.944065 49.7760435,210.291891 51.1671304,209.596022 C52.6886522,208.802326 54.169087,207.931674 55.601913,206.987326 C56.7901739,206.234065 57.9132174,205.382978 58.9606087,204.443848 C59.5553913,203.995152 59.944087,203.324717 60.0366957,202.585152 C60.0366957,202.063413 59.6016957,201.15037 58.7323478,199.846022 L55.9932174,195.411239 C55.6162609,194.77537 55.1043043,194.230152 54.4932174,193.813413" id="Fill-97" fill="#312B66"></path>
                    <path d="M42.5258261,211.487326 C41.3336522,210.947326 40.3736522,209.999065 39.8193043,208.813413 C39.3458261,207.796022 39.154087,206.669717 39.2649565,205.552543 C39.3556087,204.616022 39.6327826,203.706239 40.0801739,202.87863 C40.4499565,202.139717 41.9062609,200.878413 44.4497391,199.096022 C46.9932174,197.31363 48.9497391,195.998196 50.3193043,195.15037 C51.1997391,194.563413 52.114087,194.029935 53.0584348,193.552543 C53.554087,193.373196 54.1084348,193.486674 54.4932174,193.846022 C55.1043043,194.262761 55.6162609,194.807978 55.9932174,195.443848 L58.6671304,199.911239 C59.5801739,201.215587 60.0151739,202.12863 59.9714783,202.65037 C59.8703913,203.361239 59.4960435,204.004935 58.928,204.443848 C57.8806087,205.382978 56.7575652,206.234065 55.5693043,206.987326 C54.1364783,207.931674 52.6560435,208.802326 51.1345217,209.596022 C49.7434348,210.313413 48.2864783,210.965587 46.7649565,211.552543 C45.409087,212.144717 43.8627826,212.120587 42.5258261,211.487326 Z" id="Stroke-99" stroke="#000000" stroke-width="3" stroke-linecap="round" stroke-linejoin="round"></path>
                    <path d="M56.1236522,181.487326 L56.2801739,181.487326 C56.726913,182.464283 57.4443043,183.292543 58.3475652,183.874283 C59.2299565,184.492543 60.2656087,184.855804 61.3410435,184.924283 C62.4164783,184.986239 63.488,184.744283 64.4323478,184.226457 C65.3949565,183.751022 66.203,183.011457 66.7606087,182.093848 C66.8982174,181.90537 66.9647391,181.6745 66.9497391,181.441674 C66.908,181.202978 66.7371304,181.006674 66.5062609,180.932978 C66.2466957,180.831891 65.9806087,180.747109 65.7106087,180.67863 C65.303,180.52863 64.9253913,180.308196 64.5953913,180.026457 C64.2471304,179.74863 63.8734348,179.504065 63.4801739,179.296022 C62.4627826,178.861022 61.1995217,179.041674 59.6910435,179.837326 L57.9693043,180.796022 C57.3966957,181.127326 56.7732174,181.360804 56.1236522,181.487326" id="Fill-101" fill="#CA3538"></path>
                    <path d="M63.6627826,179.576457 C63.6177826,179.247109 63.398,178.967978 63.0888696,178.846022 C62.6923478,178.621022 62.2403913,178.510152 61.7845217,178.526457 L61.5627826,178.526457 C61.106913,178.510152 60.6549565,178.621022 60.2584348,178.846022 C59.8977826,179.059283 59.7282174,179.302543 59.7497391,179.576457 C59.7203913,179.861457 59.8266957,180.1445 60.0366957,180.3395 C60.5101739,180.605587 61.0553913,180.717761 61.5953913,180.659065 L61.7845217,180.659065 C62.366913,180.7295 62.9571304,180.617978 63.4736522,180.3395 C63.6138696,180.110587 63.6797391,179.8445 63.6627826,179.576457" id="Fill-103" fill="#FFFFFF"></path>
                    <path d="M54.0823478,179.596022 C56.0343043,180.8045 57.7325652,180.8045 59.1758261,179.596022 C59.854087,178.934717 60.7475652,178.538848 61.6932174,178.480804 C62.6349565,178.5545 63.5232174,178.947761 64.2106087,179.596022 C65.6108261,180.782978 67.2999565,180.782978 69.278,179.596022" id="Stroke-105" stroke="#0C0C0C" stroke-width="2" stroke-linecap="round" stroke-linejoin="round"></path>
                    <path d="M68.1236522,180.169935 C67.7408261,180.722326 67.1258261,181.752761 66.278,183.261239 C65.239087,184.491891 63.716913,185.106891 61.7127826,185.106891 C60.0471304,185.204065 58.4206087,184.576022 57.251913,183.385152 C56.3388696,181.919717 55.6866957,180.869717 55.2953913,180.235152" id="Stroke-107" stroke="#000000" stroke-width="2"></path>
                    <polygon id="Fill-109" fill="#FDBB2A" points="62.5152174 214.25913 64.6021739 214.25913 64.6021739 211.422174 62.5152174 211.422174"></polygon>
                    <path d="M62.2214783,206.432978 L63.5584348,211.422109 M64.178,211.422109 L66.428,205.780804" id="Stroke-111" stroke="#000000" stroke-linecap="round" stroke-linejoin="round"></path>
                    <polygon id="Stroke-112" stroke="#000000" stroke-linecap="round" stroke-linejoin="round" points="62.7108696 214.324348 64.8304348 214.324348 64.8304348 211.454783 62.7108696 211.454783"></polygon>
                    <path d="M64.0606087,151.448196 C61.2216957,150.079283 58.073,149.481239 54.9301739,149.713413 C51.6406087,149.811239 48.4573478,150.902978 45.7997391,152.843848 C42.7997391,155.061239 41.4647391,157.844065 41.7953913,161.191674 C42.1260435,164.539283 43.9977826,166.852543 47.4106087,168.130804 C50.4308261,169.234283 53.6714783,169.596239 56.8606087,169.187326 C60.4260435,168.835152 63.304087,167.9045 65.4953913,166.396022 C68.093,164.734283 69.5062609,161.728413 69.128,158.667761 C68.8364783,155.419935 67.1473478,153.013413 64.0606087,151.448196" id="Fill-113" fill="#FDADA3"></path>
                    <path d="M69.0758261,158.635152 C69.454087,161.695804 68.0408261,164.701674 65.4432174,166.363413 C63.2695217,167.876457 60.3908261,168.807109 56.8084348,169.154717 C53.6193043,169.56363 50.3786522,169.201674 47.3584348,168.098196 C43.9410435,166.741674 42.0803913,164.431022 41.7758261,161.165587 C41.4712609,157.900152 42.8062609,155.117978 45.7801739,152.817761 C48.4371304,150.874283 51.6203913,149.780587 54.9106087,149.680804 C58.0534348,149.44863 61.2021304,150.046674 64.0410435,151.415587 C67.1193043,152.98537 68.7973478,155.391891 69.0758261,158.635152 Z" id="Stroke-114" stroke="#020202" stroke-width="2"></path>
                    <path d="M49.3410435,159.065587 L49.4584348,160.369935 M58.1975652,158.237326 L58.3149565,159.541674" id="Stroke-115" stroke="#000000" stroke-width="3" stroke-linecap="round" stroke-linejoin="round"></path>
                    <path d="M30.5910435,145.813413 L23.5475652,148.682978 M23.7758261,141.737326 L30.5910435,145.291674" id="Stroke-116" stroke="#000000" stroke-width="3" stroke-linecap="round" stroke-linejoin="round"></path>
                    <path d="M101.48887,138.737326 C101.400826,137.635804 100.87713,136.615152 100.034522,135.90037 C98.4073478,134.477978 95.9356087,134.644283 94.5132174,136.270804 C94.463,136.328848 94.414087,136.387543 94.3671304,136.448196 C92.9734348,138.269065 93.2238696,140.856891 94.9410435,142.376457 C96.5682174,143.798848 99.0399565,143.632543 100.462348,142.006022 C100.512565,141.947978 100.561478,141.889283 100.608435,141.82863 C101.301043,140.956022 101.617348,139.844065 101.48887,138.737326" id="Fill-117" fill="#000000"></path>
                    <path d="M90.4475652,111.893848 C92.186913,109.285152 94.4473478,108.709283 97.2301739,110.165587" id="Stroke-118" stroke="#0C0C0C" stroke-width="2" stroke-linecap="round" stroke-linejoin="round"></path>
                    <path d="M34.2497391,128.393848 C31.1538696,128.967761 29.1738696,127.756674 28.3084348,124.761239" id="Stroke-119" stroke="#0C0C0C" stroke-width="2" stroke-linecap="round" stroke-linejoin="round"></path>
                    <path d="M106.993217,144.509065 C103.729087,144.773196 100.54387,145.647109 97.601913,147.085152 C95.0584348,148.476239 93.8408261,149.933196 93.9497391,151.454717 C94.0586522,152.976239 95.4608261,154.117543 98.1562609,154.87863 C101.291261,155.712761 104.559957,155.923413 107.775826,155.498196 C111.039304,155.209935 114.222565,154.325587 117.16713,152.8895 C119.710609,151.585152 120.928217,150.15037 120.819304,148.585152 C120.710391,147.019935 119.308217,145.867543 116.612783,145.12863 C113.488217,144.364935 110.252783,144.166022 107.058435,144.541674 L106.993217,144.509065 Z M30.0366957,160.617761 C31.9064783,159.595804 32.8299565,158.367761 32.8084348,156.932978 C32.7216957,155.584935 31.6782174,154.454717 29.678,153.541674 C25.1114783,151.730587 19.9984348,151.896239 15.5584348,153.998196 C13.7108261,155.063196 12.8193043,156.291891 12.8845217,157.682978 C12.9497391,159.074065 13.9932174,160.204935 16.0149565,161.074283 C20.5553913,162.842326 25.6208261,162.677326 30.0366957,160.617761 L30.0366957,160.617761 Z" id="Fill-120" fill="#FEBBBC"></path>
                </g>
            </g>
        </g>
    </g>
</svg>