<?xml version="1.0" encoding="utf-8"?>
<!-- Generator: Adobe Illustrator 19.2.1, SVG Export Plug-In . SVG Version: 6.00 Build 0)  -->
<svg version="1.1" xmlns="http://www.w3.org/2000/svg" xmlns:xlink="http://www.w3.org/1999/xlink" x="0px" y="0px" width="100px"
	 height="100px" viewBox="0 0 100 100" style="enable-background:new 0 0 100 100;" xml:space="preserve">
<style type="text/css">
	.st0{display:none;}
	.st1{display:inline;}
	.st2{fill:#030104;}
</style>
<g id="left" class="st0">
	<g class="st1">
		<path d="M89,44H25.4L53.5,16c2.3-2.3,2.3-6.1,0-8.5c-2.3-2.3-6.1-2.3-8.5,0L6.8,45.8c-2.3,2.3-2.3,6.1,0,8.5L45,92.5
			c1.2,1.2,2.7,1.8,4.2,1.8c1.5,0,3.1-0.6,4.2-1.8c2.3-2.3,2.3-6.1,0-8.5L25.4,56H89c3.3,0,6-2.7,6-6C95,46.7,92.3,44,89,44z"/>
	</g>
</g>
<g id="right" class="st0">
	<g class="st1">
		<path d="M11,56h63.6L46.5,84c-2.3,2.3-2.3,6.1,0,8.5c2.3,2.3,6.1,2.3,8.5,0l38.3-38.3c2.3-2.3,2.3-6.1,0-8.5L55,7.5
			c-1.2-1.2-2.7-1.8-4.2-1.8c-1.5,0-3.1,0.6-4.2,1.8c-2.3,2.3-2.3,6.1,0,8.5L74.6,44H11c-3.3,0-6,2.7-6,6C5,53.3,7.7,56,11,56z"/>
	</g>
</g>
<g id="up" class="st0">
	<g class="st1">
		<path d="M56,89V25.4L84,53.5c2.3,2.3,6.1,2.3,8.5,0c2.3-2.3,2.3-6.1,0-8.5L54.2,6.8c-2.3-2.3-6.1-2.3-8.5,0L7.5,45
			c-1.2,1.2-1.8,2.7-1.8,4.2c0,1.5,0.6,3.1,1.8,4.2c2.3,2.3,6.1,2.3,8.5,0L44,25.4V89c0,3.3,2.7,6,6,6C53.3,95,56,92.3,56,89z"/>
	</g>
</g>
<g id="down" class="st0">
	<g class="st1">
		<path d="M44,11v63.6L16,46.5c-2.3-2.3-6.1-2.3-8.5,0c-2.3,2.3-2.3,6.1,0,8.5l38.3,38.3c2.3,2.3,6.1,2.3,8.5,0L92.5,55
			c1.2-1.2,1.8-2.7,1.8-4.2c0-1.5-0.6-3.1-1.8-4.2c-2.3-2.3-6.1-2.3-8.5,0L56,74.6V11c0-3.3-2.7-6-6-6C46.7,5,44,7.7,44,11z"/>
	</g>
</g>
<g id="sound-on" class="st0">
	<g class="st1">
		<path d="M53.1,4.4C53.1,4.4,53,4.4,53.1,4.4l-0.6,0c-1.3,0-2.6,0.4-4,1.2c-0.1,0-0.2-0.1-0.2,0C46.2,7.5,28.2,23,24.8,26h-12
			C8.9,26,6,29.6,6,33.5v33.7c0,3.9,2.9,6.8,6.8,6.8h12c3.4,3,21.4,18.3,23.6,20.1c0.1,0.1,0.1,0.4,0.2,0.4c1.3,0.8,2.7,1.5,4,1.5
			c0,0,0,0,0,0l0.5-0.2c2.9-0.3,4.5-2.8,5.1-5c0-0.1-0.2-0.3-0.2-0.5V9.7c0-0.1,0.2-0.2,0.2-0.4C57.6,7.1,56,4.7,53.1,4.4z M50,16
			v68.2c-8-7-18.6-15.5-19.5-16.3c-1.3-1.3-3.2-1.9-5.1-1.9H15V35h10.4c1.8,0,3.7-0.7,5-2C31.3,32.3,41,24.2,50,16z"/>
		<path d="M64.7,58C64.7,58,64.7,58,64.7,58c-2.1,1-3,3.8-1.9,5.9c0.7,1.5,2.2,2.4,3.9,2.4c0.6,0,1.3-0.1,1.9-0.4
			c6.1-3.1,9.9-9.2,9.9-15.9c0-6.8-3.8-12.9-9.9-15.9c-1-0.5-2.2-0.6-3.3-0.2c-1.1,0.4-2,1.1-2.5,2.2c-1.1,2.1-0.2,4.7,1.9,5.8
			c3.2,1.6,5.1,4.6,5.1,8.1C69.8,53.4,67.8,56,64.7,58z"/>
		<path d="M65.1,14.7c-1.1-0.2-2.3,0-3.2,0.7c-1,0.6-1.6,1.6-1.8,2.7c-0.2,1.1,0,2.3,0.6,3.2c0.6,1,1.6,1.6,2.8,1.8
			C76.3,25.7,85.6,36.9,85.6,50c0,13.1-9.3,24.3-22.2,26.8c-2.3,0.5-3.9,2.7-3.4,5.1c0.4,2,2.2,3.5,4.2,3.5c0.1,0,0.1,0,0.2,0
			l0.5-0.1c0,0,0.1,0,0.1,0C82,82,94.2,67.2,94.2,50C94.2,32.8,82,18,65.1,14.7z"/>
	</g>
</g>
<g id="sound-off" class="st0">
	<g class="st1">
		<path d="M53.1,4.4C53.1,4.4,53,4.4,53.1,4.4l-0.6,0c-1.3,0-2.6,0.4-4,1.2c-0.1,0-0.2-0.1-0.2,0C46.2,7.5,28.2,23,24.8,26h-12
			C8.9,26,6,29.6,6,33.5v33.7c0,3.9,2.9,6.8,6.8,6.8h12c3.4,3,21.4,18.3,23.6,20.1c0.1,0.1,0.1,0.4,0.2,0.4c1.3,0.8,2.7,1.5,4,1.5
			c0,0,0,0,0,0l0.5-0.2c2.9-0.3,4.5-2.8,5.1-5c0-0.1-0.2-0.3-0.2-0.5V9.7c0-0.1,0.2-0.2,0.2-0.4C57.6,7.1,56,4.7,53.1,4.4z M50,16
			v68.2c-8-7-18.6-15.5-19.5-16.3c-1.3-1.3-3.2-1.9-5.1-1.9H15V35h10.4c1.8,0,3.7-0.7,5-2C31.3,32.3,41,24.2,50,16z"/>
	</g>
</g>
<g id="loop" class="st0">
	<g class="st1">
		<path class="st2" d="M72.5,25H62.1l6.5-6.5c2-2,2-5.1,0-7.1c-2-2-5.1-2-7.1,0L42.9,30l18.5,18.5c1,1,2.3,1.5,3.5,1.5
			s2.6-0.5,3.5-1.5c2-2,2-5.1,0-7.1L62.1,35h10.4C79.4,35,85,41.7,85,50s-6.7,15-15,15l0,0c-2.8,0-5,2.2-5,5s2.2,5,5,5l0,0
			c13.8,0,25-11.2,25-25S84.9,25,72.5,25z"/>
		<path class="st2" d="M31.5,51.5c-2,2-2,5.1,0,7.1l6.5,6.5H27.5C20.6,65,15,58.3,15,50s6.7-15,15-15l0,0c2.8,0,5-2.2,5-5
			s-2.2-5-5-5l0,0C16.2,25,5,36.2,5,50s10.1,25,22.5,25h10.4l-6.5,6.5c-2,2-2,5.1,0,7.1c1,1,2.3,1.5,3.5,1.5s2.6-0.5,3.5-1.5
			L57.1,70L38.5,51.5C36.6,49.5,33.4,49.5,31.5,51.5z"/>
	</g>
</g>
<g id="like" class="st0">
	<path class="st1" d="M93.6,26.3c-1.5-4.2-4.1-8.1-7.5-11c-3.4-3-7.6-5-12-5.9C72.4,9,70.7,8.9,69,8.9c-5,0-9.8,1.4-14,4.1
		c-1.9,1.2-3.5,2.6-5,4.2c-1.5-1.6-3.2-3-5-4.2c-4.2-2.7-9-4.1-14-4.1c-4.1,0-8.3,1-12,3c-3.7,1.9-6.9,4.7-9.3,8.1
		c-2.4,3.5-3.9,7.4-4.4,11.6c-0.4,3.6-0.1,7.5,1,11.6c2.1,7.8,6.6,14.9,10.1,19.5c7.4,9.8,17.6,18.7,31.1,27.2l1.6,1
		c0.3,0.2,0.7,0.3,1,0.3s0.7-0.1,1-0.3l1.6-1C69.2,79.4,80.9,68.3,88.2,56c4.3-7.2,6.5-13.7,6.8-19.8C95.1,32.8,94.7,29.4,93.6,26.3
		z M85.2,35.7c-0.2,4.5-2,9.5-5.4,15.3C73.6,61.3,63.9,70.8,50,79.9C38.8,72.5,30.3,65,24.1,56.7c-2.9-3.9-6.8-9.8-8.4-16.1
		c-0.8-2.8-1-5.5-0.7-7.9c0.3-2.6,1.2-4.9,2.7-7.1c1.5-2.1,3.5-3.9,5.8-5.1c2.3-1.2,4.9-1.8,7.5-1.8c3.1,0,6.1,0.9,8.7,2.5
		c2.5,1.6,4.6,3.9,5.9,6.6l2.7,5.5c0.3,0.7,1,1.1,1.7,1.1c0,0,0,0,0,0c0.7,0,1.4-0.4,1.7-1.1l2.7-5.5c1.3-2.7,3.4-5,5.9-6.6
		c2.6-1.7,5.6-2.5,8.7-2.5c1.1,0,2.1,0.1,3.2,0.3c2.7,0.5,5.3,1.8,7.5,3.7c2.2,1.9,3.8,4.3,4.7,6.9C85,31.5,85.3,33.5,85.2,35.7z"/>
</g>
<g id="angle-left" class="st0">
	<g class="st1">
		<path d="M24.3,50c0-1.6,0.6-3.2,1.8-4.5L64.9,6.8c2.5-2.5,6.5-2.5,8.9,0c2.5,2.5,2.5,6.5,0,8.9L39.6,50l34.2,34.2
			c2.5,2.5,2.5,6.5,0,8.9c-2.5,2.5-6.5,2.5-8.9,0L26.2,54.5C25,53.2,24.3,51.6,24.3,50z"/>
	</g>
</g>
<g id="angle-right" class="st0">
	<g class="st1">
		<path d="M75.7,50c0,1.6-0.6,3.2-1.8,4.5L35.1,93.2c-2.5,2.5-6.5,2.5-8.9,0c-2.5-2.5-2.5-6.5,0-8.9L60.4,50L26.2,15.8
			c-2.5-2.5-2.5-6.5,0-8.9c2.5-2.5,6.5-2.5,8.9,0l38.7,38.7C75,46.8,75.7,48.4,75.7,50z"/>
	</g>
</g>
<g id="angle-top" class="st0">
	<g class="st1">
		<path d="M50,24.3c1.6,0,3.2,0.6,4.5,1.8l38.7,38.7c2.5,2.5,2.5,6.5,0,8.9c-2.5,2.5-6.5,2.5-8.9,0L50,39.6L15.8,73.8
			c-2.5,2.5-6.5,2.5-8.9,0c-2.5-2.5-2.5-6.5,0-8.9l38.7-38.7C46.8,25,48.4,24.3,50,24.3z"/>
	</g>
</g>
<g id="angle-bottom">
	<g>
		<path d="M50,75.7c-1.6,0-3.2-0.6-4.5-1.8L6.8,35.1c-2.5-2.5-2.5-6.5,0-8.9c2.5-2.5,6.5-2.5,8.9,0L50,60.4l34.2-34.2
			c2.5-2.5,6.5-2.5,8.9,0c2.5,2.5,2.5,6.5,0,8.9L54.5,73.8C53.2,75,51.6,75.7,50,75.7z"/>
	</g>
</g>
</svg>
